<svg width="32" height="32" viewBox="0 0 32 32" fill="none" xmlns="http://www.w3.org/2000/svg">
<path d="M0 29.0831V28.5008C0.776281 28.4232 1.43612 28.1903 1.97952 27.8022C2.52291 27.4335 2.94017 26.793 3.23127 25.8809C3.52238 24.9688 3.66793 23.6879 3.66793 22.0383V6.08572C3.66793 5.36766 3.60971 4.84367 3.49327 4.51375C3.39623 4.16442 3.19246 3.93154 2.88194 3.8151C2.57143 3.67925 2.10566 3.60162 1.48464 3.58221V3C1.96981 3.01941 2.60054 3.03881 3.37682 3.05822C4.17251 3.07763 5.00701 3.08733 5.88033 3.08733C6.75365 3.08733 7.59785 3.07763 8.41295 3.05822C9.24745 3.03881 9.9364 3.01941 10.4798 3V3.58221C9.87818 3.60162 9.41241 3.67925 9.08249 3.8151C8.77198 3.93154 8.5585 4.16442 8.44206 4.51375C8.34503 4.84367 8.29651 5.36766 8.29651 6.08572V16.7402C8.29651 17.5359 8.29651 18.3995 8.29651 19.331C8.29651 20.2431 8.25769 21.1359 8.18007 22.0092C8.12184 22.8825 7.9957 23.6588 7.80163 24.338C7.41349 25.6771 6.56928 26.8027 5.26901 27.7149C3.98815 28.627 2.23181 29.0831 0 29.0831Z" fill="#171717"/>
<path d="M12.263 3C12.7482 3.01941 13.3984 3.03881 14.2135 3.05822C15.048 3.07763 15.8728 3.08733 16.6878 3.08733C17.6194 3.08733 18.5218 3.07763 19.3951 3.05822C20.2684 3.03881 20.8895 3.02911 21.2582 3.02911C23.0631 3.02911 24.5574 3.23288 25.7412 3.64043C26.9445 4.02857 27.8372 4.60108 28.4194 5.35795C29.021 6.11483 29.3218 7.02696 29.3218 8.09434C29.3218 8.75418 29.186 9.42373 28.9143 10.103C28.6426 10.7628 28.1768 11.3838 27.517 11.966C26.8765 12.5289 25.9935 12.9849 24.8679 13.3342C23.7423 13.6642 22.3256 13.8291 20.6178 13.8291H17.8232V13.2469H20.3267C21.4717 13.2469 22.3353 13.0334 22.9175 12.6065C23.5191 12.1601 23.9267 11.5779 24.1402 10.8598C24.373 10.1224 24.4895 9.30729 24.4895 8.41456C24.4895 6.88141 24.2178 5.69758 23.6744 4.86307C23.131 4.00916 22.1994 3.58221 20.8798 3.58221C20.1229 3.58221 19.628 3.74717 19.3951 4.07709C19.1817 4.40701 19.0749 5.07655 19.0749 6.08572V20.5246C19.0749 21.2232 19.1234 21.7472 19.2205 22.0965C19.3369 22.4458 19.5504 22.6787 19.8609 22.7952C20.1714 22.9116 20.6372 22.9892 21.2582 23.0281V23.6103C20.7342 23.5715 20.0744 23.552 19.2787 23.552C18.483 23.5326 17.6776 23.5229 16.8625 23.5229C15.931 23.5229 15.048 23.5326 14.2135 23.552C13.3984 23.552 12.7482 23.5715 12.263 23.6103V23.0281C12.8841 22.9892 13.3498 22.9116 13.6604 22.7952C13.9709 22.6787 14.1746 22.4458 14.2717 22.0965C14.3881 21.7472 14.4463 21.2232 14.4463 20.5246V6.08572C14.4463 5.36766 14.3881 4.84367 14.2717 4.51375C14.1746 4.16442 13.9612 3.93154 13.6312 3.8151C13.3207 3.67925 12.8647 3.60162 12.263 3.58221V3ZM17.7649 13.3342C18.5994 13.3537 19.3175 13.3925 19.9191 13.4507C20.5401 13.5089 21.0835 13.5671 21.5493 13.6254C22.0151 13.6642 22.4323 13.6933 22.8011 13.7127C24.5671 13.8679 25.8674 14.2464 26.7019 14.848C27.5558 15.4496 28.1089 16.352 28.3612 17.5553L29.0307 20.5537C29.2054 21.3299 29.3898 21.8733 29.5838 22.1839C29.7779 22.4944 30.0593 22.6496 30.428 22.6496C30.6803 22.6302 30.8841 22.572 31.0394 22.475C31.214 22.3585 31.3984 22.1936 31.5925 21.9801L32 22.3294C31.476 22.931 30.9132 23.358 30.3116 23.6103C29.71 23.882 28.9822 24.0178 28.1283 24.0178C27.0803 24.0178 26.2167 23.7946 25.5375 23.3483C24.8582 22.9019 24.4118 22.0771 24.1984 20.8739L23.6744 17.9628C23.5385 17.1477 23.3736 16.4394 23.1795 15.8378C22.9854 15.2167 22.7137 14.7316 22.3644 14.3822C22.0345 14.0135 21.5687 13.8291 20.9671 13.8291H17.8232L17.7649 13.3342Z" fill="#171717"/>
</svg>
