<svg width="436" height="36" viewBox="0 0 436 36" fill="none" xmlns="http://www.w3.org/2000/svg">
<path d="M25.304 1.40001H38.12V2.31201H35.48V34.088H38.12V35H23.48V34.088H26.12V4.08801H25.928L18.728 35H12.728L4.28001 3.94401H4.08801V34.088H6.72801V35H0.200012V34.088H2.84001V2.31201H0.200012V1.40001H13.16L19.544 26.12L25.304 1.40001Z" fill="#747373"/>
<path d="M40.3205 1.40001H65.2805L65.7605 10.904H64.8965C63.5525 7.67201 62.1445 5.46401 60.6725 4.28001C59.2005 3.06401 57.0405 2.45601 54.1925 2.45601H52.5125V17.288H54.1445C55.6485 17.288 56.9125 16.728 57.9365 15.608C58.9605 14.456 59.6805 12.92 60.0965 11H60.8165V25.208H60.0005C59.4245 22.808 58.6405 21.096 57.6485 20.072C56.6885 19.048 55.3605 18.536 53.6645 18.536H52.5125V33.944H54.3365C57.2805 33.944 59.7765 33.064 61.8245 31.304C63.9045 29.544 65.3285 27.288 66.0965 24.536H67.0565L66.6725 35H40.3205V33.944H43.1525V2.45601H40.3205V1.40001Z" fill="#747373"/>
<path d="M89.5329 34.088L86.0289 23.72H76.5249L72.8289 34.088H76.4289V35H69.0849V34.088H71.3409L83.5809 1.11201H87.5169L99.6129 34.088H101.821V35H86.1249V34.088H89.5329ZM81.4689 10.088L76.9569 22.664H85.6449L81.4689 10.088Z" fill="#747373"/>
<path d="M127.872 1.40001L128.352 13.448H127.44C126.032 9.19201 124.784 6.29601 123.696 4.76001C122.608 3.19201 121.04 2.40801 118.992 2.40801H118.416V33.992H122.496V35H104.976V33.992H109.056V2.40801H108.432C106.384 2.40801 104.8 3.22401 103.68 4.85601C102.56 6.45601 101.328 9.32001 99.9838 13.448H99.0718L99.5518 1.40001H127.872Z" fill="#747373"/>
<path d="M157.934 1.83201C152.974 1.83201 150.494 6.61601 150.494 16.184V19.976C150.494 24.52 151.15 28.088 152.462 30.68C153.774 33.24 155.71 34.52 158.27 34.52C161.79 34.52 165.022 31.096 167.966 24.248H168.83L168.494 34.952H167.966C167.774 34.6 167.598 34.36 167.438 34.232C167.278 34.072 167.038 33.992 166.718 33.992C166.43 33.992 165.278 34.248 163.262 34.76C161.246 35.24 159.198 35.48 157.118 35.48C151.902 35.48 147.854 34.072 144.974 31.256C142.126 28.44 140.702 24.216 140.702 18.584C140.702 12.92 142.19 8.55201 145.166 5.48001C148.174 2.40801 152.206 0.872009 157.262 0.872009C159.214 0.872009 161.118 1.12801 162.974 1.64001C164.862 2.12001 165.966 2.36001 166.286 2.36001C166.606 2.36001 166.846 2.29601 167.006 2.16801C167.166 2.00801 167.342 1.75201 167.534 1.40001H168.062L168.446 11.816H167.582C166.142 8.58401 164.654 6.12001 163.118 4.42401C161.614 2.69601 159.886 1.83201 157.934 1.83201Z" fill="#747373"/>
<path d="M194.47 20.168V16.616C194.47 10.76 194.182 7.06401 193.606 5.52801C192.966 3.76801 192.054 2.68001 190.87 2.26401C190.198 2.00801 189.382 1.88001 188.422 1.88001C187.462 1.88001 186.63 2.00801 185.926 2.26401C185.254 2.52001 184.694 2.96801 184.246 3.60801C183.798 4.24801 183.43 4.92001 183.142 5.62401C182.886 6.32801 182.678 7.32001 182.518 8.60001C182.326 10.456 182.23 13.192 182.23 16.808V20.264C182.23 24.168 182.374 26.952 182.662 28.616C182.982 30.248 183.366 31.416 183.814 32.12C184.806 33.688 186.342 34.472 188.422 34.472C190.95 34.472 192.582 33.416 193.318 31.304C194.086 29.16 194.47 25.448 194.47 20.168ZM188.326 35.48C182.982 35.48 178.982 34.04 176.326 31.16C173.702 28.248 172.39 24.056 172.39 18.584C172.39 13.08 173.798 8.76001 176.614 5.62401C179.462 2.45601 183.478 0.872009 188.662 0.872009C193.846 0.872009 197.75 2.37601 200.374 5.38401C203.03 8.36001 204.358 12.6 204.358 18.104C204.358 23.608 203.014 27.88 200.326 30.92C197.67 33.96 193.67 35.48 188.326 35.48Z" fill="#747373"/>
<path d="M230.376 20.168V16.616C230.376 10.76 230.088 7.06401 229.512 5.52801C228.872 3.76801 227.96 2.68001 226.776 2.26401C226.104 2.00801 225.288 1.88001 224.328 1.88001C223.368 1.88001 222.536 2.00801 221.832 2.26401C221.16 2.52001 220.6 2.96801 220.152 3.60801C219.704 4.24801 219.336 4.92001 219.048 5.62401C218.792 6.32801 218.584 7.32001 218.424 8.60001C218.232 10.456 218.136 13.192 218.136 16.808V20.264C218.136 24.168 218.28 26.952 218.568 28.616C218.888 30.248 219.272 31.416 219.72 32.12C220.712 33.688 222.248 34.472 224.328 34.472C226.856 34.472 228.488 33.416 229.224 31.304C229.992 29.16 230.376 25.448 230.376 20.168ZM224.232 35.48C218.888 35.48 214.888 34.04 212.232 31.16C209.608 28.248 208.296 24.056 208.296 18.584C208.296 13.08 209.704 8.76001 212.52 5.62401C215.368 2.45601 219.384 0.872009 224.568 0.872009C229.752 0.872009 233.656 2.37601 236.28 5.38401C238.936 8.36001 240.264 12.6 240.264 18.104C240.264 23.608 238.92 27.88 236.232 30.92C233.576 33.96 229.576 35.48 224.232 35.48Z" fill="#747373"/>
<path d="M243.242 1.40001H260.522V2.45601H255.434V33.944H257.162C259.882 33.944 262.042 33.112 263.642 31.448C265.274 29.784 266.922 27.224 268.586 23.768H269.594L268.682 35H243.242V33.944H246.074V2.45601H243.242V1.40001Z" fill="#747373"/>
<path d="M295.053 34.472C296.653 34.472 298.061 34.04 299.277 33.176C300.525 32.312 301.149 31.016 301.149 29.288C301.149 27.528 300.477 26.184 299.133 25.256C297.821 24.328 295.933 23.528 293.469 22.856C291.037 22.152 289.261 21.544 288.141 21.032C287.053 20.52 286.013 19.848 285.021 19.016C283.037 17.352 282.045 14.776 282.045 11.288C282.045 8.44001 283.053 5.99201 285.069 3.94401C287.117 1.89601 289.901 0.872009 293.421 0.872009C295.117 0.872009 296.877 1.12801 298.701 1.64001C300.557 2.12001 301.709 2.36001 302.157 2.36001C302.605 2.36001 303.005 2.04001 303.357 1.40001H303.885L304.221 11.096H303.453C301.917 8.31201 300.301 6.08801 298.605 4.42401C296.941 2.72801 295.117 1.88001 293.133 1.88001C291.181 1.88001 289.661 2.34401 288.573 3.27201C287.485 4.16801 286.941 5.38401 286.941 6.92001C286.941 8.42401 287.581 9.59201 288.861 10.424C290.173 11.224 291.773 11.88 293.661 12.392C295.549 12.904 296.781 13.256 297.357 13.448C297.965 13.64 298.701 13.912 299.565 14.264C300.461 14.584 301.181 14.936 301.725 15.32C302.301 15.672 302.893 16.136 303.501 16.712C304.141 17.256 304.637 17.864 304.989 18.536C305.853 20.072 306.285 21.896 306.285 24.008C306.285 27.464 305.197 30.248 303.021 32.36C300.877 34.44 298.045 35.48 294.525 35.48C292.701 35.48 290.605 35.24 288.237 34.76C285.901 34.28 284.605 34.04 284.349 34.04C283.901 34.04 283.469 34.52 283.053 35.48H282.381L281.901 24.056H282.717C284.125 26.84 285.917 29.272 288.093 31.352C290.301 33.432 292.621 34.472 295.053 34.472Z" fill="#747373"/>
<path d="M336.606 1.40001L337.086 13.448H336.174C334.766 9.19201 333.518 6.29601 332.43 4.76001C331.342 3.19201 329.774 2.40801 327.726 2.40801H327.15V33.992H331.23V35H313.71V33.992H317.79V2.40801H317.166C315.118 2.40801 313.534 3.22401 312.414 4.85601C311.294 6.45601 310.062 9.32001 308.718 13.448H307.806L308.286 1.40001H336.606Z" fill="#747373"/>
<path d="M361.439 20.168V16.616C361.439 10.76 361.151 7.06401 360.575 5.52801C359.935 3.76801 359.023 2.68001 357.839 2.26401C357.167 2.00801 356.351 1.88001 355.391 1.88001C354.431 1.88001 353.599 2.00801 352.895 2.26401C352.223 2.52001 351.663 2.96801 351.215 3.60801C350.767 4.24801 350.399 4.92001 350.111 5.62401C349.855 6.32801 349.647 7.32001 349.487 8.60001C349.295 10.456 349.199 13.192 349.199 16.808V20.264C349.199 24.168 349.343 26.952 349.631 28.616C349.951 30.248 350.335 31.416 350.783 32.12C351.775 33.688 353.311 34.472 355.391 34.472C357.919 34.472 359.551 33.416 360.287 31.304C361.055 29.16 361.439 25.448 361.439 20.168ZM355.295 35.48C349.951 35.48 345.951 34.04 343.295 31.16C340.671 28.248 339.359 24.056 339.359 18.584C339.359 13.08 340.767 8.76001 343.583 5.62401C346.431 2.45601 350.447 0.872009 355.631 0.872009C360.815 0.872009 364.719 2.37601 367.343 5.38401C369.999 8.36001 371.327 12.6 371.327 18.104C371.327 23.608 369.983 27.88 367.295 30.92C364.639 33.96 360.639 35.48 355.295 35.48Z" fill="#747373"/>
<path d="M389.041 18.008H386.497V34.088H389.617V35H374.017V34.088H377.137V2.31201H374.017V1.40001H388.513C392.673 1.40001 395.617 1.62401 397.345 2.07201C399.105 2.48801 400.337 3.00001 401.041 3.60801C402.577 4.85601 403.345 6.84001 403.345 9.56001C403.345 12.28 402.673 14.232 401.329 15.416C399.985 16.568 397.937 17.256 395.185 17.48V17.624C397.777 17.976 399.585 18.744 400.609 19.928C401.633 21.112 402.145 23.096 402.145 25.88V28.424C402.145 30.088 402.225 31.208 402.385 31.784C402.577 32.36 402.961 32.648 403.537 32.648C404.113 32.648 404.561 32.392 404.881 31.88C405.233 31.336 405.553 30.216 405.841 28.52L406.657 28.616C406.305 31.336 405.681 33.16 404.785 34.088C403.921 35.016 402.177 35.48 399.553 35.48C396.929 35.48 395.057 34.872 393.937 33.656C392.849 32.408 392.305 30.088 392.305 26.696V23.192C392.305 21.4 392.065 20.088 391.585 19.256C391.137 18.424 390.289 18.008 389.041 18.008ZM386.497 2.31201V17.096H388.033C389.857 17.096 391.201 16.536 392.065 15.416C392.961 14.296 393.409 12.472 393.409 9.94401V8.55201C393.409 6.02401 392.977 4.36001 392.113 3.56001C391.281 2.72801 389.937 2.31201 388.081 2.31201H386.497Z" fill="#747373"/>
<path d="M408.664 1.40001H433.624L434.104 10.904H433.24C431.896 7.67201 430.488 5.46401 429.016 4.28001C427.544 3.06401 425.384 2.45601 422.536 2.45601H420.856V17.288H422.488C423.992 17.288 425.256 16.728 426.28 15.608C427.304 14.456 428.024 12.92 428.44 11H429.16V25.208H428.344C427.768 22.808 426.984 21.096 425.992 20.072C425.032 19.048 423.704 18.536 422.008 18.536H420.856V33.944H422.68C425.624 33.944 428.12 33.064 430.168 31.304C432.248 29.544 433.672 27.288 434.44 24.536H435.4L435.016 35H408.664V33.944H411.496V2.45601H408.664V1.40001Z" fill="#747373"/>
</svg>
