<svg width="367" height="96" viewBox="0 0 367 96" fill="none" xmlns="http://www.w3.org/2000/svg">
<path d="M0.191982 3.256C0.159982 3.096 0.143982 2.936 0.143982 2.776C0.143982 2.584 0.223982 2.344 0.383982 2.056C2.43198 2.312 4.79998 2.44 7.48798 2.44C10.176 2.44 12.528 2.392 14.544 2.296C14.608 2.488 14.64 2.728 14.64 3.016L14.544 3.784C12.688 3.784 11.376 3.8 10.608 3.832C10.608 5.048 10.992 7.016 11.76 9.736C12.56 12.424 13.488 15.048 14.544 17.608L20.4 31.816L26.832 17.608C28.112 14.76 29.216 11.992 30.144 9.304C31.072 6.584 31.536 4.808 31.536 3.976C30.96 3.848 29.744 3.784 27.888 3.784C27.824 3.56 27.792 3.304 27.792 3.016C27.792 2.728 27.824 2.488 27.888 2.296C30 2.392 31.888 2.44 33.552 2.44C35.216 2.44 36.848 2.312 38.448 2.056C38.64 2.248 38.736 2.52 38.736 2.872L38.64 3.256C37.392 3.64 36.4 4.2 35.664 4.936C34.608 5.992 33.376 8.008 31.968 10.984C31.264 12.488 30.624 13.896 30.048 15.208C29.472 16.488 29.104 17.288 28.944 17.608L19.248 38.872H18.432L8.06398 13.96C6.11198 9.096 4.57598 6.024 3.45598 4.744C2.97598 4.2 1.88798 3.704 0.191982 3.256Z" fill="#747373"/>
<path d="M59.5005 37.192L51.2925 37H48.7485C45.0365 37 42.3645 37.128 40.7325 37.384C40.5725 37.192 40.4925 36.92 40.4925 36.568L40.5405 36.184C42.2045 35.8 43.2925 35.208 43.8045 34.408C44.2205 33.768 44.4925 32.968 44.6205 32.008C45.0045 29.096 45.1965 25.128 45.1965 20.104C45.1965 9.576 44.9085 4.216 44.3325 4.024C43.7245 3.864 42.6685 3.784 41.1645 3.784C41.1005 3.56 41.0685 3.304 41.0685 3.016C41.0685 2.728 41.1005 2.488 41.1645 2.296L48.4605 2.44H53.9805L65.3085 2.104C65.8525 2.104 66.1245 2.28 66.1245 2.632C66.1245 2.664 66.0765 3.048 65.9805 3.784C65.6605 5.768 65.4365 7.992 65.3085 10.456C64.9245 10.648 64.5725 10.744 64.2525 10.744C63.9645 10.744 63.6925 10.68 63.4365 10.552C63.0525 7.64 62.7645 5.832 62.5725 5.128C59.6605 4.456 57.0365 4.12 54.7005 4.12C52.3965 4.12 50.7965 4.184 49.9005 4.312C49.5165 6.36 49.3245 10.92 49.3245 17.992C49.8365 18.12 51.1965 18.184 53.4045 18.184C55.6125 18.184 57.2605 18.12 58.3485 17.992C59.4365 17.864 60.2205 17.608 60.7005 17.224C61.2125 16.84 61.5965 16.056 61.8525 14.872C62.5245 14.872 63.0205 14.968 63.3405 15.16C63.0205 16.984 62.8605 18.328 62.8605 19.192L62.9565 23.368C62.7325 23.528 62.4445 23.608 62.0925 23.608L61.4205 23.512L60.8925 20.344C59.1645 20.056 57.1485 19.912 54.8445 19.912C52.5405 19.912 50.7005 19.992 49.3245 20.152V28.744C49.3245 31.752 49.4205 33.864 49.6125 35.08C50.6045 35.208 51.7405 35.272 53.0205 35.272C56.3165 35.272 59.5805 34.84 62.8125 33.976C63.2925 33.208 63.7565 32.216 64.2045 31C64.6525 29.752 64.9085 29.016 64.9725 28.792C65.1645 28.76 65.4205 28.744 65.7405 28.744C66.0605 28.744 66.4125 28.888 66.7965 29.176C66.3165 31.448 65.9645 33.8 65.7405 36.232C65.7085 36.616 65.5005 36.824 65.1165 36.856C63.7085 37.08 61.8365 37.192 59.5005 37.192Z" fill="#747373"/>
<path d="M93.7444 22.984L101.424 23.128C102.928 23.128 104.4 23 105.84 22.744C105.968 23.064 106.032 23.336 106.032 23.56L105.936 24.136C104.72 24.648 104.048 25.688 103.92 27.256C103.696 29.432 103.584 32.504 103.584 36.472C101.664 36.472 99.4404 36.712 96.9124 37.192C94.3844 37.704 92.3684 37.96 90.8644 37.96C85.3604 37.96 81.0084 36.248 77.8084 32.824C74.6404 29.368 73.0564 25.032 73.0564 19.816C73.0564 14.568 74.7844 10.232 78.2404 6.808C81.6964 3.384 86.1124 1.672 91.4884 1.672C95.8404 1.672 99.6964 2.136 103.056 3.064C103.28 3.128 103.392 3.24 103.392 3.4C103.392 3.56 103.376 3.768 103.344 4.024C103.344 4.28 103.312 4.648 103.248 5.128C103.216 5.576 103.184 6.088 103.152 6.664C103.088 7.88 103.056 9.48 103.056 11.464C102.832 11.592 102.528 11.656 102.144 11.656C101.76 11.656 101.456 11.608 101.232 11.512C100.656 8.92 100.24 7.304 99.9844 6.664C97.4564 4.488 94.3844 3.4 90.7684 3.4C87.1844 3.4 84.1924 4.68 81.7924 7.24C79.4244 9.8 78.2404 13.304 78.2404 17.752C78.2404 20.888 78.7524 23.832 79.7764 26.584C80.8324 29.336 82.3844 31.608 84.4324 33.4C86.5124 35.16 88.9124 36.04 91.6324 36.04C94.3844 36.04 97.0084 35.464 99.5044 34.312V31.384C99.5044 28.984 99.4084 26.808 99.2164 24.856C97.5844 24.664 95.7604 24.568 93.7444 24.568C93.6164 24.344 93.5524 24.088 93.5524 23.8L93.7444 22.984Z" fill="#747373"/>
<path d="M129.907 37.192L121.699 37H119.155C115.443 37 112.771 37.128 111.139 37.384C110.979 37.192 110.899 36.92 110.899 36.568L110.947 36.184C112.611 35.8 113.699 35.208 114.211 34.408C114.627 33.768 114.899 32.968 115.027 32.008C115.411 29.096 115.603 25.128 115.603 20.104C115.603 9.576 115.315 4.216 114.739 4.024C114.131 3.864 113.075 3.784 111.571 3.784C111.507 3.56 111.475 3.304 111.475 3.016C111.475 2.728 111.507 2.488 111.571 2.296L118.867 2.44H124.387L135.715 2.104C136.259 2.104 136.531 2.28 136.531 2.632C136.531 2.664 136.483 3.048 136.387 3.784C136.067 5.768 135.843 7.992 135.715 10.456C135.331 10.648 134.979 10.744 134.659 10.744C134.371 10.744 134.099 10.68 133.843 10.552C133.459 7.64 133.171 5.832 132.979 5.128C130.067 4.456 127.443 4.12 125.107 4.12C122.803 4.12 121.203 4.184 120.307 4.312C119.923 6.36 119.731 10.92 119.731 17.992C120.243 18.12 121.603 18.184 123.811 18.184C126.019 18.184 127.667 18.12 128.755 17.992C129.843 17.864 130.627 17.608 131.107 17.224C131.619 16.84 132.003 16.056 132.259 14.872C132.931 14.872 133.427 14.968 133.747 15.16C133.427 16.984 133.267 18.328 133.267 19.192L133.363 23.368C133.139 23.528 132.851 23.608 132.499 23.608L131.827 23.512L131.299 20.344C129.571 20.056 127.555 19.912 125.251 19.912C122.947 19.912 121.107 19.992 119.731 20.152V28.744C119.731 31.752 119.827 33.864 120.019 35.08C121.011 35.208 122.147 35.272 123.427 35.272C126.723 35.272 129.987 34.84 133.219 33.976C133.699 33.208 134.163 32.216 134.611 31C135.059 29.752 135.315 29.016 135.379 28.792C135.571 28.76 135.827 28.744 136.147 28.744C136.467 28.744 136.819 28.888 137.203 29.176C136.723 31.448 136.371 33.8 136.147 36.232C136.115 36.616 135.907 36.824 135.523 36.856C134.115 37.08 132.243 37.192 129.907 37.192Z" fill="#747373"/>
<path d="M164.583 37.144L156.711 37C153.255 37 150.391 37.128 148.119 37.384C147.959 37.192 147.879 36.92 147.879 36.568L147.927 36.184C150.135 35.832 151.591 35.384 152.295 34.84C152.999 34.264 153.463 33.336 153.687 32.056C154.135 29.688 154.359 25.72 154.359 20.152C154.359 14.584 154.295 10.696 154.167 8.488C154.039 6.28 153.879 4.904 153.687 4.36C152.887 4.2 151.911 4.12 150.759 4.12C148.071 4.12 145.975 4.472 144.471 5.176L142.359 10.456C141.623 10.456 141.079 10.328 140.727 10.072L141.495 2.632C141.495 2.28 141.767 2.104 142.311 2.104L150.759 2.44H162.519L171.735 2.104C172.311 2.104 172.599 2.28 172.599 2.632C172.087 5.448 171.831 8.024 171.831 10.36C171.575 10.488 171.255 10.552 170.871 10.552C170.487 10.552 170.183 10.488 169.959 10.36C169.383 7.192 169.063 5.464 168.999 5.176C167.399 4.472 165.207 4.12 162.423 4.12C161.175 4.12 160.167 4.2 159.399 4.36C159.303 4.648 159.175 5.976 159.015 8.344C158.887 10.712 158.823 13.752 158.823 17.464V26.056C158.823 29.608 159.079 32.696 159.591 35.32C161.063 35.544 162.727 35.656 164.583 35.656C164.679 35.912 164.727 36.2 164.727 36.52C164.727 36.808 164.679 37.016 164.583 37.144Z" fill="#747373"/>
<path d="M206.249 37.144L200.633 37C198.201 37 196.073 37.128 194.249 37.384C194.057 37.128 193.961 36.856 193.961 36.568L194.057 36.184C195.305 35.896 196.169 35.576 196.649 35.224C197.161 34.84 197.417 34.424 197.417 33.976C197.417 33.528 197.193 32.632 196.745 31.288L193.913 24.088C192.185 23.992 190.121 23.944 187.721 23.944L180.857 24.088L179.657 27.16C178.057 31.128 177.257 33.944 177.257 35.608C177.993 35.64 179.113 35.656 180.617 35.656C180.681 35.88 180.713 36.136 180.713 36.424C180.713 36.712 180.681 36.952 180.617 37.144L175.529 37C173.513 37 171.753 37.128 170.249 37.384C170.057 37.16 169.961 36.888 169.961 36.568L170.057 36.184C171.689 35.736 172.873 35.032 173.609 34.072C174.377 33.112 175.513 30.936 177.017 27.544L188.873 0.664001H189.641L200.681 28.888C200.873 29.496 201.369 30.68 202.169 32.44C203.001 34.168 203.529 35.192 203.753 35.512C204.649 35.608 205.481 35.656 206.249 35.656C206.345 35.88 206.393 36.136 206.393 36.424C206.393 36.712 206.345 36.952 206.249 37.144ZM181.577 22.216L187.721 22.408C189.929 22.408 191.785 22.36 193.289 22.264L187.721 7.576L181.577 22.216Z" fill="#747373"/>
<path d="M208.508 2.296L215.804 2.44H223.196C226.236 2.44 228.684 3.112 230.54 4.456C232.428 5.8 233.372 7.768 233.372 10.36C233.372 12.44 232.668 14.2 231.26 15.64C229.852 17.08 228.396 17.992 226.892 18.376C229.516 18.856 231.548 19.88 232.988 21.448C234.46 23.016 235.196 25.064 235.196 27.592C235.196 30.536 233.9 32.84 231.308 34.504C228.748 36.168 225.548 37 221.708 37C214.7 37 210.156 37.128 208.076 37.384C207.916 37.192 207.836 36.92 207.836 36.568L207.884 36.184C209.548 35.8 210.636 35.208 211.148 34.408C211.564 33.768 211.836 32.968 211.964 32.008C212.348 29.096 212.54 25.128 212.54 20.104C212.54 9.576 212.252 4.216 211.676 4.024C211.068 3.864 210.012 3.784 208.508 3.784C208.444 3.56 208.412 3.304 208.412 3.016C208.412 2.728 208.444 2.488 208.508 2.296ZM216.668 19.144V28.744C216.668 31.752 216.764 33.864 216.956 35.08C218.108 35.208 219.452 35.272 220.988 35.272C224.284 35.272 226.732 34.712 228.332 33.592C229.964 32.472 230.78 30.664 230.78 28.168C230.78 25.64 229.98 23.544 228.38 21.88C226.78 20.216 224.7 19.384 222.14 19.384H220.124C219.932 19.16 219.836 18.888 219.836 18.568L220.124 17.608H221.516C226.636 17.608 229.196 15.384 229.196 10.936C229.196 8.728 228.524 7.048 227.18 5.896C225.836 4.712 224.06 4.12 221.852 4.12C219.676 4.12 218.14 4.184 217.244 4.312C216.86 5.848 216.668 10.792 216.668 19.144Z" fill="#747373"/>
<path d="M260.14 37.192L251.932 37H248.764C245.148 37 242.476 37.128 240.748 37.384C240.588 37.192 240.508 36.92 240.508 36.568L240.556 36.184C242.22 35.8 243.308 35.208 243.82 34.408C244.236 33.768 244.556 32.552 244.78 30.76C245.036 28.936 245.164 25.432 245.164 20.248V10.552C245.164 6.168 244.956 3.96 244.54 3.928C243.932 3.832 242.972 3.784 241.66 3.784C241.564 3.56 241.516 3.304 241.516 3.016C241.516 2.728 241.564 2.488 241.66 2.296L246.268 2.44C249.212 2.44 251.484 2.312 253.084 2.056C253.276 2.312 253.372 2.568 253.372 2.824L253.276 3.256C251.964 3.608 251.1 4.056 250.684 4.6C250.268 5.112 250.012 5.864 249.916 6.856C249.532 10.792 249.34 15.064 249.34 19.672V28.744C249.34 31.752 249.436 33.864 249.628 35.08C250.78 35.208 252.124 35.272 253.66 35.272C256.956 35.272 260.22 34.84 263.452 33.976C263.964 33.24 264.428 32.264 264.844 31.048C265.292 29.8 265.564 29.048 265.66 28.792C265.82 28.76 266.06 28.744 266.38 28.744C266.7 28.744 267.052 28.888 267.436 29.176C267.308 29.848 267.1 31.256 266.812 33.4C266.524 35.544 266.348 36.648 266.284 36.712C265.868 37.032 263.82 37.192 260.14 37.192Z" fill="#747373"/>
<path d="M288.11 37.192L279.902 37H277.358C273.646 37 270.974 37.128 269.342 37.384C269.182 37.192 269.102 36.92 269.102 36.568L269.15 36.184C270.814 35.8 271.902 35.208 272.414 34.408C272.83 33.768 273.102 32.968 273.23 32.008C273.614 29.096 273.806 25.128 273.806 20.104C273.806 9.576 273.518 4.216 272.942 4.024C272.334 3.864 271.278 3.784 269.774 3.784C269.71 3.56 269.678 3.304 269.678 3.016C269.678 2.728 269.71 2.488 269.774 2.296L277.07 2.44H282.59L293.918 2.104C294.462 2.104 294.734 2.28 294.734 2.632C294.734 2.664 294.686 3.048 294.59 3.784C294.27 5.768 294.046 7.992 293.918 10.456C293.534 10.648 293.182 10.744 292.862 10.744C292.574 10.744 292.302 10.68 292.046 10.552C291.662 7.64 291.374 5.832 291.182 5.128C288.27 4.456 285.646 4.12 283.31 4.12C281.006 4.12 279.406 4.184 278.51 4.312C278.126 6.36 277.934 10.92 277.934 17.992C278.446 18.12 279.806 18.184 282.014 18.184C284.222 18.184 285.87 18.12 286.958 17.992C288.046 17.864 288.83 17.608 289.31 17.224C289.822 16.84 290.206 16.056 290.462 14.872C291.134 14.872 291.63 14.968 291.95 15.16C291.63 16.984 291.47 18.328 291.47 19.192L291.566 23.368C291.342 23.528 291.054 23.608 290.702 23.608L290.03 23.512L289.502 20.344C287.774 20.056 285.758 19.912 283.454 19.912C281.15 19.912 279.31 19.992 277.934 20.152V28.744C277.934 31.752 278.03 33.864 278.222 35.08C279.214 35.208 280.35 35.272 281.63 35.272C284.926 35.272 288.19 34.84 291.422 33.976C291.902 33.208 292.366 32.216 292.814 31C293.262 29.752 293.518 29.016 293.582 28.792C293.774 28.76 294.03 28.744 294.35 28.744C294.67 28.744 295.022 28.888 295.406 29.176C294.926 31.448 294.574 33.8 294.35 36.232C294.318 36.616 294.11 36.824 293.726 36.856C292.318 37.08 290.446 37.192 288.11 37.192Z" fill="#747373"/>
<path d="M320.818 5.32C318.674 3.944 316.61 3.256 314.626 3.256C312.642 3.256 311.042 3.8 309.826 4.888C308.61 5.976 308.002 7.352 308.002 9.016C308.002 10.648 308.658 12.072 309.97 13.288C311.282 14.504 313.394 15.816 316.306 17.224C320.978 19.496 323.938 21.928 325.186 24.52C325.762 25.736 326.05 27.032 326.05 28.408C326.05 31.384 324.786 33.72 322.258 35.416C319.762 37.112 316.818 37.96 313.426 37.96C311.602 37.96 309.698 37.784 307.714 37.432C305.73 37.08 304.306 36.728 303.442 36.376C303.122 33.88 302.578 31.032 301.81 27.832C302.386 27.544 302.818 27.4 303.106 27.4C303.426 27.4 303.666 27.416 303.826 27.448C304.722 29.688 305.554 31.384 306.322 32.536C306.994 33.24 307.586 33.816 308.098 34.264C308.61 34.68 309.442 35.112 310.594 35.56C311.778 36.008 313.202 36.232 314.866 36.232C316.53 36.232 318.034 35.656 319.378 34.504C320.722 33.352 321.394 31.88 321.394 30.088C321.394 28.648 321.138 27.608 320.626 26.968C320.114 26.328 319.73 25.848 319.474 25.528C319.25 25.208 318.802 24.84 318.13 24.424C317.458 23.976 316.994 23.672 316.738 23.512C316.482 23.352 315.922 23.048 315.058 22.6C314.226 22.152 313.474 21.752 312.802 21.4C312.162 21.016 311.618 20.696 311.17 20.44C310.722 20.184 310.034 19.784 309.106 19.24C308.178 18.664 307.522 18.216 307.138 17.896C306.754 17.544 306.258 17.08 305.65 16.504C305.042 15.928 304.61 15.4 304.354 14.92C303.714 13.544 303.394 12.248 303.394 11.032C303.394 8.088 304.626 5.8 307.09 4.168C309.554 2.504 312.53 1.672 316.018 1.672C317.458 1.672 319.058 1.864 320.818 2.248C322.578 2.632 323.938 3.032 324.898 3.448C324.61 4.568 324.338 6.904 324.082 10.456C323.762 10.616 323.426 10.696 323.074 10.696C322.722 10.696 322.418 10.632 322.162 10.504C322.13 10.12 321.938 9.256 321.586 7.912C321.234 6.536 320.978 5.672 320.818 5.32Z" fill="#747373"/>
<path d="M20.88 94.96C15.376 94.96 11.024 93.248 7.82398 89.824C4.65598 86.368 3.07198 82.032 3.07198 76.816C3.07198 71.568 4.79998 67.232 8.25598 63.808C11.712 60.384 16.128 58.672 21.504 58.672C25.76 58.672 29.536 59.2 32.832 60.256C32.992 60.352 33.072 60.48 33.072 60.64C33.072 60.768 33.024 61.264 32.928 62.128C32.512 65.104 32.288 67.28 32.256 68.656C31.776 68.752 31.44 68.8 31.248 68.8C31.056 68.8 30.768 68.736 30.384 68.608C30.096 66.4 29.808 64.752 29.52 63.664C28.688 62.768 27.52 62 26.016 61.36C24.512 60.72 22.8 60.4 20.88 60.4C17.232 60.4 14.208 61.68 11.808 64.24C9.43998 66.8 8.25598 70.304 8.25598 74.752C8.25598 77.888 8.76798 80.832 9.79198 83.584C10.848 86.336 12.4 88.608 14.448 90.4C16.528 92.16 18.992 93.04 21.84 93.04C24.688 93.04 27.216 92.272 29.424 90.736C30.032 89.712 30.784 88 31.68 85.6C32.448 85.6 33.04 85.76 33.456 86.08C33.008 88.384 32.672 90.704 32.448 93.04C32.416 93.392 32.208 93.6 31.824 93.664C28.752 94.528 25.104 94.96 20.88 94.96Z" fill="#747373"/>
<path d="M73.8607 76.864C73.8607 79.104 73.5407 81.168 72.9007 83.056C72.2927 84.912 71.5087 86.448 70.5487 87.664C69.6207 88.848 68.5327 89.92 67.2847 90.88C66.0367 91.808 64.8367 92.528 63.6847 93.04C62.5647 93.52 61.4287 93.92 60.2767 94.24C58.5807 94.72 57.3007 94.96 56.4367 94.96C51.7647 94.96 47.7807 93.232 44.4847 89.776C41.1887 86.288 39.5407 81.984 39.5407 76.864C39.5407 74.624 39.8447 72.576 40.4527 70.72C41.0927 68.832 41.8767 67.28 42.8047 66.064C43.7647 64.848 44.8687 63.776 46.1167 62.848C47.3647 61.888 48.5647 61.152 49.7167 60.64C50.8687 60.128 52.0047 59.712 53.1247 59.392C54.7887 58.912 56.0847 58.672 57.0127 58.672C61.6527 58.672 65.6207 60.448 68.9167 64C72.2127 67.52 73.8607 71.808 73.8607 76.864ZM57.9247 92.464C61.5407 92.464 64.2767 91.248 66.1327 88.816C68.0207 86.352 68.9647 83.2 68.9647 79.36C68.9647 76.384 68.4207 73.52 67.3327 70.768C66.2767 68.016 64.7087 65.728 62.6287 63.904C60.5487 62.048 58.2127 61.12 55.6207 61.12C52.0047 61.12 49.2207 62.384 47.2687 64.912C45.3487 67.408 44.3887 70.512 44.3887 74.224C44.3887 77.2 44.9327 80.08 46.0207 82.864C47.1407 85.616 48.7567 87.904 50.8687 89.728C52.9807 91.552 55.3327 92.464 57.9247 92.464Z" fill="#747373"/>
<path d="M123.77 94.144L118.778 94C115.322 94 112.522 94.128 110.378 94.384C110.218 94.192 110.138 93.92 110.138 93.568L110.186 93.184C112.106 92.736 113.322 92.256 113.834 91.744C114.346 91.232 114.65 90.144 114.746 88.48C114.842 86.816 114.89 85.088 114.89 83.296C114.89 81.472 114.794 78.704 114.602 74.992L114.218 67.12C112.746 69.84 110.442 74.464 107.306 80.992C104.202 87.52 102.186 92.176 101.258 94.96H99.9139C93.6739 80.848 89.6739 72.256 87.9139 69.184L85.8979 65.728C85.7699 69.696 85.7059 74.544 85.7059 80.272C85.7059 85.968 85.8979 90.048 86.2819 92.512C86.9859 92.608 88.2339 92.656 90.0259 92.656C90.1219 92.912 90.1699 93.2 90.1699 93.52C90.1699 93.808 90.1219 94.016 90.0259 94.144L84.6019 94C82.3939 94 80.5379 94.128 79.0339 94.384C78.8739 94.192 78.7939 93.92 78.7939 93.568L78.8419 93.184C80.4099 92.832 81.4499 92.32 81.9619 91.648C82.5059 90.976 82.8579 90.096 83.0179 89.008C83.7859 83.536 84.2339 74.912 84.3619 63.136C83.4979 62.048 82.5539 61.28 81.5299 60.832C81.4019 60.8 80.5059 60.672 78.8419 60.448L78.6979 59.776C78.6979 59.456 78.7459 59.2 78.8419 59.008L86.5219 58.816C87.0019 58.816 87.8179 59.664 88.9699 61.36C90.1539 63.056 91.3219 64.944 92.4739 67.024C93.6259 69.072 94.9539 71.744 96.4579 75.04C97.9939 78.336 99.2739 81.184 100.298 83.584C101.322 85.984 101.898 87.296 102.026 87.52C102.442 86.592 104.41 82.416 107.93 74.992C111.45 67.536 113.77 62.352 114.89 59.44C118.122 59.44 120.698 59.296 122.618 59.008C122.778 59.296 122.858 59.696 122.858 60.208C121.258 60.56 120.186 61.088 119.642 61.792C119.098 62.496 118.794 63.248 118.73 64.048C118.666 64.848 118.634 66.352 118.634 68.56C118.634 70.768 118.73 74.512 118.922 79.792C119.146 85.072 119.482 89.312 119.93 92.512C120.538 92.608 121.818 92.656 123.77 92.656C123.866 92.88 123.914 93.136 123.914 93.424C123.914 93.712 123.866 93.952 123.77 94.144Z" fill="#747373"/>
<path d="M127.977 59.296L135.273 59.44H141.417C145.321 59.44 148.393 60.272 150.633 61.936C152.873 63.6 153.993 66.208 153.993 69.76C153.993 73.28 152.793 75.936 150.393 77.728C147.993 79.52 144.857 80.416 140.985 80.416C139.801 80.416 138.905 80.4 138.297 80.368C138.137 80.176 138.057 79.904 138.057 79.552L138.297 78.592C138.713 78.624 139.545 78.64 140.793 78.64C143.353 78.64 145.481 77.888 147.177 76.384C148.905 74.848 149.769 72.832 149.769 70.336C149.769 67.808 149.001 65.648 147.465 63.856C145.961 62.032 144.089 61.12 141.849 61.12C139.609 61.12 137.897 61.184 136.713 61.312C136.521 61.856 136.377 63.056 136.281 64.912C136.185 66.768 136.137 71.744 136.137 79.84V85.744C136.137 88.368 136.217 90.528 136.377 92.224C137.881 92.416 139.929 92.512 142.521 92.512C142.649 92.832 142.713 93.152 142.713 93.472C142.713 93.76 142.649 93.984 142.521 94.144L134.217 94C131.785 94 129.561 94.128 127.545 94.384C127.385 94.192 127.305 93.92 127.305 93.568L127.353 93.184C129.017 92.8 130.105 92.208 130.617 91.408C131.033 90.768 131.305 89.968 131.433 89.008C131.817 86.096 132.009 82.16 132.009 77.2C132.009 66.608 131.721 61.216 131.145 61.024C130.537 60.864 129.481 60.784 127.977 60.784C127.913 60.56 127.881 60.304 127.881 60.016C127.881 59.728 127.913 59.488 127.977 59.296Z" fill="#747373"/>
<path d="M188.811 94.144L183.195 94C180.763 94 178.635 94.128 176.811 94.384C176.619 94.128 176.523 93.856 176.523 93.568L176.619 93.184C177.867 92.896 178.731 92.576 179.211 92.224C179.723 91.84 179.979 91.424 179.979 90.976C179.979 90.528 179.755 89.632 179.307 88.288L176.475 81.088C174.747 80.992 172.683 80.944 170.283 80.944L163.419 81.088L162.219 84.16C160.619 88.128 159.819 90.944 159.819 92.608C160.555 92.64 161.675 92.656 163.179 92.656C163.243 92.88 163.275 93.136 163.275 93.424C163.275 93.712 163.243 93.952 163.179 94.144L158.091 94C156.075 94 154.315 94.128 152.811 94.384C152.619 94.16 152.523 93.888 152.523 93.568L152.619 93.184C154.251 92.736 155.435 92.032 156.171 91.072C156.939 90.112 158.075 87.936 159.579 84.544L171.435 57.664H172.203L183.243 85.888C183.435 86.496 183.931 87.68 184.731 89.44C185.563 91.168 186.091 92.192 186.315 92.512C187.211 92.608 188.043 92.656 188.811 92.656C188.907 92.88 188.955 93.136 188.955 93.424C188.955 93.712 188.907 93.952 188.811 94.144ZM164.139 79.216L170.283 79.408C172.491 79.408 174.347 79.36 175.851 79.264L170.283 64.576L164.139 79.216Z" fill="#747373"/>
<path d="M201.391 94.144L195.967 94C193.759 94 191.903 94.128 190.399 94.384C190.207 94.128 190.111 93.856 190.111 93.568L190.207 93.184C191.871 92.8 192.975 92.208 193.519 91.408C193.935 90.768 194.207 89.968 194.335 89.008C194.911 84.848 195.279 76.064 195.439 62.656C194.639 61.792 193.935 61.232 193.327 60.976C192.719 60.72 191.743 60.544 190.399 60.448C190.303 60.256 190.255 60.016 190.255 59.728C190.255 59.408 190.303 59.168 190.399 59.008L198.271 58.816C199.231 58.816 202.463 62.112 207.967 68.704C211.103 72.416 215.695 78.336 221.743 86.464C221.647 83.968 221.535 79.52 221.407 73.12C221.311 66.688 221.119 62.624 220.831 60.928C220.127 60.832 218.831 60.784 216.943 60.784C216.815 60.528 216.751 60.272 216.751 60.016C216.751 59.728 216.799 59.488 216.895 59.296L222.319 59.44C224.527 59.44 226.383 59.312 227.887 59.056C228.047 59.248 228.127 59.52 228.127 59.872L228.079 60.256C226.511 60.608 225.471 61.104 224.959 61.744C224.447 62.384 224.143 63.28 224.047 64.432C223.631 71.088 223.423 81.184 223.423 94.72L222.271 95.2L221.215 93.856C215.103 85.792 209.119 78.144 203.263 70.912C200.959 68.096 198.863 65.824 196.975 64.096C196.975 68.416 196.975 73.552 196.975 79.504C197.007 85.456 197.215 89.792 197.599 92.512C198.335 92.608 199.599 92.656 201.391 92.656C201.487 92.912 201.535 93.168 201.535 93.424C201.535 93.68 201.487 93.92 201.391 94.144Z" fill="#747373"/>
<path d="M230.16 59.008L237.936 58.816C238.256 58.816 239.072 59.696 240.384 61.456C241.728 63.216 243.232 65.6 244.896 68.608C246.592 71.584 247.888 74.416 248.784 77.104C249.264 76.272 249.984 75.04 250.944 73.408C251.904 71.744 252.624 70.48 253.104 69.616C253.616 68.72 254.192 67.664 254.832 66.448C256.016 64.272 256.768 62.448 257.088 60.976C256.416 60.848 255.12 60.784 253.2 60.784C253.104 60.56 253.056 60.304 253.056 60.016C253.056 59.728 253.104 59.488 253.2 59.296C255.312 59.392 257.344 59.44 259.296 59.44C261.248 59.44 262.96 59.312 264.432 59.056C264.624 59.376 264.72 59.648 264.72 59.872L264.624 60.256C263.76 60.512 262.768 61.056 261.648 61.888C260.208 62.912 258.064 65.616 255.216 70C252.368 74.384 250.736 77.376 250.32 78.976C250.064 79.648 249.936 81.504 249.936 84.544C249.936 87.552 250.096 90.144 250.416 92.32C251.728 92.544 253.568 92.656 255.936 92.656C256.032 92.88 256.08 93.136 256.08 93.424L255.936 94.144L248.304 94C244.592 94 241.52 94.128 239.088 94.384C238.928 94.192 238.848 93.92 238.848 93.568L238.896 93.184C241.968 92.704 243.84 91.984 244.512 91.024C245.184 90.064 245.52 88.256 245.52 85.6C245.52 82.944 245.296 80.752 244.848 79.024C244.4 77.264 243.088 74.56 240.912 70.912C238.768 67.264 236.816 64.48 235.056 62.56C234.352 61.76 233.68 61.232 233.04 60.976C232.432 60.688 231.472 60.512 230.16 60.448C230.064 60.256 230.016 60 230.016 59.68C230.016 59.328 230.064 59.104 230.16 59.008Z" fill="#747373"/>
<path d="M301.646 62.32C299.502 60.944 297.438 60.256 295.454 60.256C293.47 60.256 291.87 60.8 290.654 61.888C289.438 62.976 288.83 64.352 288.83 66.016C288.83 67.648 289.486 69.072 290.798 70.288C292.11 71.504 294.222 72.816 297.134 74.224C301.806 76.496 304.766 78.928 306.014 81.52C306.59 82.736 306.878 84.032 306.878 85.408C306.878 88.384 305.614 90.72 303.086 92.416C300.59 94.112 297.646 94.96 294.254 94.96C292.43 94.96 290.526 94.784 288.542 94.432C286.558 94.08 285.134 93.728 284.27 93.376C283.95 90.88 283.406 88.032 282.638 84.832C283.214 84.544 283.646 84.4 283.934 84.4C284.254 84.4 284.494 84.416 284.654 84.448C285.55 86.688 286.382 88.384 287.15 89.536C287.822 90.24 288.414 90.816 288.926 91.264C289.438 91.68 290.27 92.112 291.422 92.56C292.606 93.008 294.03 93.232 295.694 93.232C297.358 93.232 298.862 92.656 300.206 91.504C301.55 90.352 302.222 88.88 302.222 87.088C302.222 85.648 301.966 84.608 301.454 83.968C300.942 83.328 300.558 82.848 300.302 82.528C300.078 82.208 299.63 81.84 298.958 81.424C298.286 80.976 297.822 80.672 297.566 80.512C297.31 80.352 296.75 80.048 295.886 79.6C295.054 79.152 294.302 78.752 293.63 78.4C292.99 78.016 292.446 77.696 291.998 77.44C291.55 77.184 290.862 76.784 289.934 76.24C289.006 75.664 288.35 75.216 287.966 74.896C287.582 74.544 287.086 74.08 286.478 73.504C285.87 72.928 285.438 72.4 285.182 71.92C284.542 70.544 284.222 69.248 284.222 68.032C284.222 65.088 285.454 62.8 287.918 61.168C290.382 59.504 293.358 58.672 296.846 58.672C298.286 58.672 299.886 58.864 301.646 59.248C303.406 59.632 304.766 60.032 305.726 60.448C305.438 61.568 305.166 63.904 304.91 67.456C304.59 67.616 304.254 67.696 303.902 67.696C303.55 67.696 303.246 67.632 302.99 67.504C302.958 67.12 302.766 66.256 302.414 64.912C302.062 63.536 301.806 62.672 301.646 62.32Z" fill="#747373"/>
<path d="M315.406 94.96C314.158 93.904 313.23 92.704 312.622 91.36C313.774 90.144 315.022 89.232 316.366 88.624C317.678 89.872 318.542 91.088 318.958 92.272C318.67 92.72 318.158 93.216 317.422 93.76C316.686 94.272 316.014 94.672 315.406 94.96Z" fill="#747373"/>
<path d="M357.374 94.144L351.758 94C349.326 94 347.198 94.128 345.374 94.384C345.182 94.128 345.086 93.856 345.086 93.568L345.182 93.184C346.43 92.896 347.294 92.576 347.774 92.224C348.286 91.84 348.542 91.424 348.542 90.976C348.542 90.528 348.318 89.632 347.87 88.288L345.038 81.088C343.31 80.992 341.246 80.944 338.846 80.944L331.982 81.088L330.782 84.16C329.182 88.128 328.382 90.944 328.382 92.608C329.118 92.64 330.238 92.656 331.742 92.656C331.806 92.88 331.838 93.136 331.838 93.424C331.838 93.712 331.806 93.952 331.742 94.144L326.654 94C324.638 94 322.878 94.128 321.374 94.384C321.182 94.16 321.086 93.888 321.086 93.568L321.182 93.184C322.814 92.736 323.998 92.032 324.734 91.072C325.502 90.112 326.638 87.936 328.142 84.544L339.998 57.664H340.766L351.806 85.888C351.998 86.496 352.494 87.68 353.294 89.44C354.126 91.168 354.654 92.192 354.878 92.512C355.774 92.608 356.606 92.656 357.374 92.656C357.47 92.88 357.518 93.136 357.518 93.424C357.518 93.712 357.47 93.952 357.374 94.144ZM332.702 79.216L338.846 79.408C341.054 79.408 342.91 79.36 344.414 79.264L338.846 64.576L332.702 79.216Z" fill="#747373"/>
<path d="M362.609 94.96C361.361 93.904 360.433 92.704 359.825 91.36C360.977 90.144 362.225 89.232 363.569 88.624C364.881 89.872 365.745 91.088 366.161 92.272C365.873 92.72 365.361 93.216 364.625 93.76C363.889 94.272 363.217 94.672 362.609 94.96Z" fill="#747373"/>
</svg>
