<svg width="340" height="48" viewBox="0 0 340 48" fill="none" xmlns="http://www.w3.org/2000/svg">
<path d="M24.0825 18.8501C22.2807 18.689 20.5156 18.6084 18.787 18.6084C17.0732 18.6084 15.2934 18.7183 13.4477 18.938C11.1186 25.4419 8.62103 30.0928 5.95502 32.8906C4.97357 33.9307 3.95551 34.6338 2.90082 35C2.63715 35.1025 2.36615 35.1538 2.08783 35.1538C1.82416 35.1538 1.58978 35.1025 1.3847 35C1.16498 34.9121 0.989197 34.7949 0.857361 34.6484C0.549744 34.3555 0.395935 34.0479 0.395935 33.7256C0.395935 33.3887 0.505798 33.1396 0.725525 32.9785C3.05463 31.3086 5.52289 26.9653 8.13031 19.9487C8.01312 19.978 7.90326 20.0073 7.80072 20.0366C7.69818 20.0659 7.57367 20.1025 7.42719 20.1465C7.2807 20.1904 7.10492 20.1465 6.89984 20.0146C6.69476 19.8828 6.51166 19.707 6.35052 19.4873C5.96967 18.96 5.9184 18.5718 6.19672 18.3228C6.70941 17.8687 7.69086 17.4365 9.14105 17.0264C11.1039 10.9473 12.122 6.64062 12.1953 4.10645C11.5947 4.13574 11.038 4.29688 10.5253 4.58984L8.85541 5.53467C8.40131 5.78369 7.80072 5.58594 7.05365 4.94141C6.32123 4.32617 5.99896 3.74023 6.08685 3.18359C6.18939 2.34863 7.36127 1.66016 9.60248 1.11816C10.3935 0.927734 11.0161 0.83252 11.4702 0.83252C11.9243 0.83252 12.371 0.847168 12.8105 0.876465C13.2646 0.891113 13.6747 0.942383 14.041 1.03027C15.5058 1.38184 16.4067 2.01172 16.7436 2.91992C16.8901 3.33008 16.9633 3.82812 16.9633 4.41406C16.9633 4.98535 16.9047 5.6665 16.7875 6.45752C16.6703 7.23389 16.5019 8.12012 16.2822 9.11621C15.8134 11.2842 15.1909 13.5986 14.4145 16.0596C17.6078 15.6787 20.9111 15.4883 24.3242 15.4883H25.269L26.4775 11.8848C27.8251 7.82715 28.6528 4.7583 28.9604 2.67822C29.1508 1.44775 29.7661 0.83252 30.8061 0.83252C31.4799 0.83252 32.0366 1.00098 32.476 1.33789C33.2963 1.93848 33.6918 2.59033 33.6625 3.29346C33.6332 3.98193 33.5087 4.7583 33.289 5.62256C33.0693 6.48682 32.7836 7.45361 32.4321 8.52295C32.0805 9.59229 31.6777 10.7422 31.2236 11.9727L29.8393 15.686L30.3666 15.73C30.5864 15.7593 30.7914 15.7886 30.9819 15.8179C31.187 15.8325 31.3627 15.8691 31.5092 15.9277C31.8168 16.0449 31.9706 16.25 31.9706 16.543C31.9706 16.8213 31.8828 17.1216 31.707 17.4438C31.5458 17.7515 31.3115 18.0444 31.0038 18.3228C30.2568 18.9966 29.3925 19.3481 28.4111 19.3774C26.624 24.0796 25.5839 26.9653 25.291 28.0347C24.998 29.0894 24.8515 29.8071 24.8515 30.188C24.8515 30.979 25.1664 31.3745 25.7963 31.3745C26.3823 31.3745 26.8583 31.2793 27.2245 31.0889L28.0156 30.6934C28.1767 30.6201 28.3305 30.5835 28.477 30.5835C28.7846 30.5835 28.9384 30.7373 28.9384 31.0449C28.9384 32.3486 28.184 33.4399 26.6752 34.3188C25.6791 34.9048 24.6464 35.1978 23.5771 35.1978C22.0829 35.1978 21.0429 34.5312 20.457 33.1982C20.2519 32.7441 20.1494 32.312 20.1494 31.9019C20.1494 30.9497 20.2958 29.9902 20.5888 29.0234C20.8818 28.042 21.204 27.0459 21.5556 26.0352L24.0825 18.8501Z" fill="#747373"/>
<path d="M34.8271 24.9805C34.8857 23.2227 35.1567 21.377 35.6401 19.4434C36.1381 17.4951 36.812 15.6201 37.6616 13.8184C38.5112 12.0166 39.5146 10.3247 40.6718 8.74268C41.8437 7.16064 43.1254 5.78369 44.517 4.61182C47.5053 2.09229 50.6401 0.83252 53.9213 0.83252C57.9057 0.83252 60.5058 2.6416 61.7216 6.25977C62.1611 7.53418 62.3515 9.10889 62.2929 10.9839C62.249 12.8442 61.9633 14.7412 61.436 16.6748C60.9233 18.6084 60.2202 20.4761 59.3266 22.2778C58.4477 24.0796 57.415 25.7715 56.2285 27.3535C55.0419 28.9209 53.7529 30.2832 52.3613 31.4404C49.3876 33.96 46.414 35.2197 43.4404 35.2197C40.7744 35.2197 38.6577 34.3481 37.0903 32.605C35.4936 30.8179 34.7392 28.2764 34.8271 24.9805ZM41.9902 16.543C41.2431 18.2422 40.6352 19.978 40.1664 21.7505C39.7123 23.5229 39.4633 25.0317 39.4194 26.2769C39.3901 27.5073 39.4633 28.4668 39.6391 29.1553C39.8295 29.8291 40.0932 30.4004 40.4301 30.8691C41.1332 31.8652 42.0341 32.3633 43.1328 32.3633C44.246 32.3633 45.3593 32.0044 46.4726 31.2866C47.5859 30.5688 48.6625 29.6094 49.7026 28.4082C50.7573 27.207 51.7534 25.8228 52.6909 24.2554C53.643 22.688 54.478 21.0547 55.1957 19.3555C57.2758 14.4189 58.0375 10.3467 57.4809 7.13867C57.1 4.91211 55.8842 3.79883 53.8334 3.79883C51.9584 3.79883 49.871 5.07324 47.5712 7.62207C45.4033 9.99512 43.5429 12.9688 41.9902 16.543Z" fill="#747373"/>
<path d="M101.097 30.5615C101.463 30.5615 101.646 30.8252 101.646 31.3525C101.646 31.8652 101.551 32.29 101.36 32.627C101.17 32.9639 100.95 33.2715 100.701 33.5498C100.452 33.8281 100.137 34.0918 99.7563 34.3408C98.8627 34.9268 97.9179 35.2197 96.9218 35.2197C95.9404 35.2197 95.1567 35.1025 94.5707 34.8682C93.9995 34.6191 93.5014 34.2529 93.0766 33.7695C92.1684 32.7588 91.7143 31.3599 91.7143 29.5728C91.7143 27.6685 92.0805 25.3467 92.8129 22.6074C93.5453 19.8535 94.2485 17.5024 94.9223 15.5542C95.6108 13.5913 96.3139 11.7236 97.0317 9.95117L99.0092 4.91943C96.8412 6.86768 94.0947 10.9619 90.7695 17.2021L85.4521 27.2656C82.6103 32.5684 80.5815 35.2197 79.3657 35.2197C78.1791 35.2197 77.3661 34.707 76.9267 33.6816C76.5312 32.7002 76.3334 31.0376 76.3334 28.6938C76.3334 26.3354 76.5165 24.0796 76.8828 21.9263C77.2636 19.7583 77.7397 17.6416 78.311 15.5762C79.3071 11.9287 80.5961 8.31055 82.1782 4.72168C80.6401 5.58594 78.9335 7.51221 77.0585 10.5005C75.623 12.8882 74.6122 14.6313 74.0263 15.73L68.3574 26.167C65.999 30.459 64.102 33.1104 62.6664 34.1211C61.6264 34.8535 60.5058 35.2197 59.3046 35.2197C58.2792 35.2197 57.5395 34.8975 57.0854 34.2529C56.9096 33.9893 56.8217 33.7476 56.8217 33.5278C56.8217 33.3081 56.8876 33.1763 57.0195 33.1323C57.9277 32.8833 58.5722 32.627 58.9531 32.3633C59.3193 32.085 59.6855 31.8066 60.0517 31.5283C60.4179 31.2354 60.9526 30.6274 61.6557 29.7046C62.3588 28.7671 63.1205 27.6465 63.9409 26.3428C64.7612 25.0244 65.6181 23.5522 66.5117 21.9263L69.3022 16.7847C71.8803 11.8042 74.5756 7.8125 77.3881 4.80957C78.3842 3.74023 79.3657 2.9126 80.3325 2.32666C81.2993 1.63818 82.4199 1.17676 83.6943 0.942383C84.0458 0.869141 84.3681 0.83252 84.6611 0.83252C84.9687 0.83252 85.3056 0.876465 85.6718 0.964355C86.0527 1.05225 86.3823 1.19141 86.6606 1.38184C87.3051 1.82129 87.4955 2.40723 87.2319 3.13965C87.1147 3.5791 86.8876 4.23828 86.5507 5.11719L85.3642 8.25928C82.5956 15.9058 81.0795 22.8638 80.8159 29.1333C81.5922 27.8003 82.3759 26.3428 83.1669 24.7607L85.6498 19.8608L88.2646 14.873C92.2929 7.40234 96.0356 3.125 99.4926 2.04102C100.21 1.80664 100.811 1.68945 101.294 1.68945C101.778 1.68945 102.159 1.75537 102.437 1.88721C102.715 2.00439 102.964 2.1582 103.184 2.34863C103.697 2.81738 103.872 3.30078 103.711 3.79883C103.55 4.28223 103.338 4.90479 103.074 5.6665L99.8881 14.9609L98.7455 18.6084C97.4858 22.8271 96.7387 26.0645 96.5043 28.3203C96.4164 29.2725 96.519 30.0195 96.812 30.5615C97.1196 31.0889 97.537 31.3525 98.0644 31.3525C98.5917 31.3525 99.0019 31.3159 99.2949 31.2427C99.6025 31.1548 99.8661 31.0596 100.086 30.957L100.657 30.6934C100.818 30.6055 100.965 30.5615 101.097 30.5615Z" fill="#747373"/>
<path d="M126.431 5.71045C126.431 4.47998 125.699 3.86475 124.234 3.86475C121.436 3.86475 118.894 5.16113 116.609 7.75391C115.262 9.27734 114.317 10.9253 113.775 12.6978C113.511 13.562 113.379 14.3237 113.379 14.9829C113.379 15.6421 113.453 16.1694 113.599 16.5649C113.76 16.9458 113.958 17.2607 114.192 17.5098C114.69 18.0371 115.269 18.2422 115.928 18.125C116.646 17.832 117.276 17.6855 117.818 17.6855C118.374 17.6855 118.814 17.7588 119.136 17.9053C119.473 18.0371 119.744 18.2056 119.949 18.4106C120.374 18.8208 120.586 19.2163 120.586 19.5972C120.586 20.3442 120.337 20.7324 119.839 20.7617C119.078 20.835 118.279 21.0474 117.444 21.3989C116.609 21.7505 115.767 22.2119 114.917 22.7832C114.068 23.3398 113.313 23.9697 112.654 24.6729C111.145 26.2842 110.391 27.9028 110.391 29.5288C110.391 30.3052 110.574 30.8911 110.94 31.2866C111.556 31.9751 112.288 32.3193 113.138 32.3193C113.987 32.3193 114.815 32.1582 115.621 31.8359C116.441 31.499 117.181 31.0962 117.84 30.6274C118.836 29.9097 119.803 28.9941 120.74 27.8809C121.209 27.3242 121.619 27.0459 121.971 27.0459C122.322 27.0459 122.586 27.2583 122.762 27.6831C122.952 28.0933 123.047 28.5327 123.047 29.0015C123.047 29.9683 122.864 30.686 122.498 31.1548C122.132 31.6089 121.67 32.0703 121.114 32.5391C120.572 32.9932 119.92 33.418 119.158 33.8135C117.327 34.751 115.364 35.2197 113.269 35.2197C109.739 35.2197 107.322 34.0625 106.018 31.748C105.55 30.8838 105.315 29.9976 105.315 29.0894C105.315 28.1812 105.447 27.3389 105.711 26.5625C105.989 25.7861 106.341 25.0684 106.766 24.4092C107.19 23.7354 107.666 23.1348 108.194 22.6074C108.721 22.0654 109.241 21.5967 109.754 21.2012C110.765 20.4102 111.6 19.9634 112.259 19.8608C110.603 19.2017 109.49 17.9199 108.919 16.0156C108.743 15.4004 108.655 14.6533 108.655 13.7744C108.655 12.8955 108.824 11.9287 109.161 10.874C109.497 9.80469 109.974 8.78662 110.589 7.81982C111.204 6.83838 111.936 5.92285 112.786 5.07324C113.636 4.22363 114.573 3.48389 115.599 2.854C117.81 1.50635 120.14 0.83252 122.586 0.83252C125.149 0.83252 127.061 1.46973 128.321 2.74414C129.331 3.76953 129.837 5.08057 129.837 6.67725C129.837 8.49365 129.075 10.332 127.552 12.1924C126.629 13.3057 125.794 14.0601 125.047 14.4556C124.314 14.8511 123.736 15.0708 123.311 15.1147C122.901 15.144 122.513 15.0928 122.146 14.9609C121.795 14.8145 121.487 14.624 121.224 14.3896C120.623 13.8477 120.323 13.3569 120.323 12.9175C120.323 12.3755 120.513 11.958 120.894 11.665L122.872 10.2588C125.245 8.51562 126.431 6.99951 126.431 5.71045Z" fill="#747373"/>
<path d="M143.02 24.9805C143.079 23.2227 143.35 21.377 143.833 19.4434C144.331 17.4951 145.005 15.6201 145.855 13.8184C146.705 12.0166 147.708 10.3247 148.865 8.74268C150.037 7.16064 151.319 5.78369 152.71 4.61182C155.699 2.09229 158.833 0.83252 162.115 0.83252C166.099 0.83252 168.699 2.6416 169.915 6.25977C170.354 7.53418 170.545 9.10889 170.486 10.9839C170.442 12.8442 170.157 14.7412 169.629 16.6748C169.117 18.6084 168.414 20.4761 167.52 22.2778C166.641 24.0796 165.608 25.7715 164.422 27.3535C163.235 28.9209 161.946 30.2832 160.555 31.4404C157.581 33.96 154.607 35.2197 151.634 35.2197C148.968 35.2197 146.851 34.3481 145.284 32.605C143.687 30.8179 142.933 28.2764 143.02 24.9805ZM150.184 16.543C149.436 18.2422 148.829 19.978 148.36 21.7505C147.906 23.5229 147.657 25.0317 147.613 26.2769C147.583 27.5073 147.657 28.4668 147.832 29.1553C148.023 29.8291 148.287 30.4004 148.623 30.8691C149.327 31.8652 150.227 32.3633 151.326 32.3633C152.439 32.3633 153.553 32.0044 154.666 31.2866C155.779 30.5688 156.856 29.6094 157.896 28.4082C158.951 27.207 159.947 25.8228 160.884 24.2554C161.836 22.688 162.671 21.0547 163.389 19.3555C165.469 14.4189 166.231 10.3467 165.674 7.13867C165.293 4.91211 164.078 3.79883 162.027 3.79883C160.152 3.79883 158.064 5.07324 155.765 7.62207C153.597 9.99512 151.736 12.9688 150.184 16.543Z" fill="#747373"/>
<path d="M190.811 20.6079C190.386 20.5933 189.939 20.5713 189.471 20.542C189.017 20.498 188.475 20.4688 187.845 20.4541C186.468 20.4248 184.974 20.4834 183.362 20.6299C182.996 21.8896 182.388 23.4424 181.539 25.2881C180.704 27.1191 179.876 28.6719 179.056 29.9463C177.298 32.6709 175.511 34.3555 173.694 35C173.431 35.1025 173.16 35.1538 172.881 35.1538C172.618 35.1538 172.376 35.1025 172.156 35C171.936 34.9121 171.753 34.7949 171.607 34.6484C171.299 34.3701 171.145 34.0625 171.145 33.7256C171.145 33.3887 171.255 33.1396 171.475 32.9785C173.555 31.4697 175.694 27.6685 177.891 21.5747C177.73 21.6187 177.569 21.6626 177.408 21.7065C177.247 21.7505 177.107 21.7944 176.99 21.8384C176.873 21.8823 176.734 21.9043 176.573 21.9043C176.426 21.9043 176.258 21.8604 176.067 21.7725C175.892 21.6699 175.73 21.5527 175.584 21.4209C175.262 21.1279 175.101 20.8423 175.101 20.564C175.101 20.2856 175.225 20.0293 175.474 19.7949C175.738 19.5459 176.06 19.3115 176.441 19.0918C177.144 18.6816 178.03 18.3008 179.1 17.9492L180.286 14.2578C181.678 9.93652 183.011 6.94092 184.285 5.271C183.084 5.16846 182.198 5.11719 181.626 5.11719C179.898 5.11719 178.653 5.35889 177.891 5.84229C177.144 6.32568 176.617 6.85303 176.309 7.42432C176.016 7.98096 175.862 8.36914 175.848 8.58887C175.804 8.99902 175.672 9.2627 175.452 9.37988C175.232 9.48242 174.961 9.53369 174.639 9.53369C174.331 9.53369 174.009 9.42383 173.672 9.2041C173.335 8.96973 173.057 8.67676 172.837 8.3252C172.369 7.60742 172.185 6.80176 172.288 5.9082C172.391 5 172.684 4.22363 173.167 3.5791C173.665 2.91992 174.251 2.38525 174.925 1.9751C176.17 1.21338 177.481 0.83252 178.858 0.83252C180.249 0.83252 181.56 0.905762 182.791 1.05225C184.036 1.18408 185.274 1.33789 186.504 1.51367C189.771 1.95312 191.851 2.17285 192.745 2.17285C193.638 2.17285 194.297 2.12158 194.722 2.01904C195.162 1.9165 195.535 1.7627 195.843 1.55762C196.15 1.35254 196.363 1.2207 196.48 1.16211C196.612 1.08887 196.817 1.05225 197.095 1.05225C197.535 1.05225 197.725 1.38916 197.666 2.06299C197.608 2.72217 197.447 3.29346 197.183 3.77686C196.919 4.24561 196.575 4.63379 196.15 4.94141C195.286 5.57129 194.187 5.88623 192.854 5.88623C191.521 5.88623 189.903 5.79834 187.998 5.62256C187.515 6.604 187.054 7.89307 186.614 9.48975L184.593 16.7407C185.97 16.521 187.017 16.4111 187.735 16.4111C188.467 16.4111 189.068 16.4844 189.537 16.6309C190.005 16.7773 190.423 16.9824 190.789 17.2461C191.639 17.8174 192.056 18.5205 192.041 19.3555C192.027 20.1904 191.617 20.6079 190.811 20.6079Z" fill="#747373"/>
<path d="M199.248 46.25C199.248 45.8105 199.534 45.4883 200.105 45.2832C204.178 43.7012 208.25 38.8672 212.322 30.7812C215.516 24.4531 218.02 17.7881 219.837 10.7861C220.555 8.01758 220.914 6.01807 220.914 4.7876C220.914 4.3335 220.811 4.10645 220.606 4.10645C218.672 4.10645 216.226 5.58594 213.267 8.54492C212.974 8.83789 212.644 8.98438 212.278 8.98438C211.927 8.98438 211.575 8.91113 211.224 8.76465C210.887 8.61816 210.579 8.42773 210.301 8.19336C209.642 7.68066 209.312 7.16064 209.312 6.6333C209.312 6.09131 209.48 5.59326 209.817 5.13916C210.154 4.68506 210.608 4.24561 211.18 3.8208C211.751 3.396 212.403 3.00781 213.135 2.65625C213.868 2.29004 214.637 1.96777 215.442 1.68945C217.142 1.11816 218.445 0.83252 219.353 0.83252C220.276 0.83252 221.082 0.891113 221.77 1.0083C222.459 1.11084 223.118 1.29395 223.748 1.55762C225.271 2.2168 226.033 3.16162 226.033 4.39209C226.033 6.58936 225.345 10.0977 223.968 14.917C222.503 20.0146 220.584 25.0024 218.211 29.8804C214.783 36.7358 211.165 41.665 207.356 44.668C205.13 46.4258 203.02 47.3047 201.028 47.3047C200.281 47.3047 199.739 47.1069 199.402 46.7114C199.3 46.5796 199.248 46.4258 199.248 46.25Z" fill="#747373"/>
<path d="M247.325 29.2432C247.325 30.6494 247.845 31.3525 248.885 31.3525C249.5 31.3525 250.057 31.2207 250.555 30.957C251.067 30.6934 251.397 30.5615 251.543 30.5615C251.851 30.5615 252.005 30.7227 252.005 31.0449C252.005 32.334 251.316 33.418 249.939 34.2969C249.002 34.9121 248.108 35.2197 247.259 35.2197C246.409 35.2197 245.721 35.1245 245.193 34.9341C244.681 34.729 244.234 34.4141 243.853 33.9893C243.047 33.1104 242.644 31.7993 242.644 30.0562C242.644 28.6792 242.901 27.0825 243.414 25.2661C243.926 23.4497 244.3 22.1606 244.534 21.3989L242.249 24.8706C237.518 31.77 233.526 35.2197 230.274 35.2197C228.062 35.2197 226.604 34.2969 225.901 32.4512C225.682 31.8506 225.572 31.3232 225.572 30.8691V30.0342C225.572 28.1885 226.604 24.8047 228.67 19.8828L233.24 9.24805C234.119 7.13867 234.559 5.83496 234.559 5.33691C234.559 4.83887 234.471 4.46533 234.295 4.21631C234.119 3.96729 233.921 3.76953 233.702 3.62305L233.108 3.18359C232.933 3.06641 232.845 2.89062 232.845 2.65625C232.845 2.42188 232.962 2.1875 233.196 1.95312C233.431 1.71875 233.738 1.51367 234.119 1.33789C234.881 1.00098 235.628 0.83252 236.36 0.83252C237.107 0.83252 237.679 0.913086 238.074 1.07422C238.484 1.2207 238.821 1.41113 239.085 1.64551C239.598 2.12891 239.854 2.71484 239.854 3.40332C239.854 4.07715 239.722 4.87549 239.458 5.79834C239.209 6.72119 238.872 7.73193 238.448 8.83057C238.038 9.91455 237.561 11.0645 237.019 12.2803L233.68 19.6191C231.556 24.292 230.494 27.3828 230.494 28.8916V29.2212C230.494 30.6128 231.021 31.3086 232.076 31.3086C234.009 31.3086 236.521 28.8843 239.612 24.0356C240.535 22.6001 241.458 21.084 242.381 19.4873L245.061 14.5654C248.899 7.13867 251.111 2.90527 251.697 1.86523C251.99 1.33789 252.408 1.07422 252.95 1.07422C253.492 1.07422 253.946 1.15479 254.312 1.31592C254.678 1.4624 254.993 1.66016 255.257 1.90918C255.872 2.49512 256.026 3.08105 255.718 3.66699C254.327 6.31836 252.635 10.5591 250.643 16.3892C248.431 22.8052 247.325 27.0898 247.325 29.2432Z" fill="#747373"/>
<path d="M252.62 32.9785C255.154 31.1182 257.71 26.3281 260.289 18.6084C261.783 14.1113 262.823 10.0537 263.409 6.43555C263.57 5.4248 263.65 4.64844 263.65 4.10645C263.05 4.13574 262.493 4.29688 261.98 4.58984L260.332 5.53467C259.878 5.78369 259.27 5.58594 258.509 4.94141C257.762 4.29688 257.417 3.75488 257.476 3.31543C257.549 2.86133 257.798 2.49512 258.223 2.2168C258.663 1.92383 259.168 1.6748 259.739 1.46973C260.94 1.04492 261.944 0.83252 262.749 0.83252C263.57 0.83252 264.288 0.898438 264.903 1.03027C265.533 1.14746 266.104 1.35254 266.617 1.64551C267.789 2.31934 268.389 3.28613 268.418 4.5459C268.477 6.72852 267.737 10.4346 266.199 15.6641C263.768 23.9404 260.911 29.7559 257.63 33.1104C256.736 34.0332 255.806 34.6631 254.839 35C254.576 35.1025 254.305 35.1538 254.026 35.1538C253.763 35.1538 253.521 35.1025 253.301 35C253.081 34.9121 252.898 34.7949 252.752 34.6484C252.444 34.3701 252.29 34.0625 252.29 33.7256C252.29 33.3887 252.4 33.1396 252.62 32.9785Z" fill="#747373"/>
<path d="M269.715 25.7715L269.737 25.1343C269.898 20.7544 271.004 16.6162 273.055 12.7197C274.944 9.16016 277.325 6.28174 280.196 4.08447C283.038 1.9165 285.806 0.83252 288.501 0.83252C290.552 0.83252 292.171 1.54297 293.357 2.96387C294.368 4.19434 294.873 5.70312 294.873 7.49023C294.873 9.62891 294.09 11.7383 292.522 13.8184C291.614 15.0195 290.647 15.8838 289.622 16.4111C289.139 16.6748 288.685 16.8066 288.26 16.8066C287.85 16.8066 287.469 16.7188 287.117 16.543C286.766 16.3672 286.458 16.1475 286.194 15.8838C285.652 15.3125 285.381 14.7998 285.381 14.3457C285.381 13.8916 285.498 13.5767 285.733 13.4009C288.135 11.6724 289.768 9.89258 290.633 8.06152C290.97 7.3584 291.138 6.66992 291.138 5.99609C291.138 4.5752 290.464 3.86475 289.117 3.86475C287.007 3.86475 284.832 5.01465 282.591 7.31445C280.496 9.43848 278.738 12.1045 277.317 15.3125C275.838 18.6084 275.054 21.6333 274.966 24.3872L274.944 25.2222C274.944 28.5181 275.64 30.6787 277.032 31.7041C277.53 32.0703 278.123 32.2534 278.811 32.2534C279.515 32.2534 280.174 32.1655 280.789 31.9897C281.404 31.814 282.019 31.5723 282.635 31.2646C283.631 30.752 284.905 29.8657 286.458 28.606C286.927 28.2397 287.315 28.291 287.622 28.7598C287.886 29.1406 288.018 29.5801 288.018 30.0781C288.018 30.9131 287.901 31.4844 287.666 31.792C287.447 32.085 287.059 32.4365 286.502 32.8467C285.96 33.2568 285.293 33.6377 284.502 33.9893C282.657 34.8096 280.848 35.2197 279.075 35.2197C277.303 35.2197 275.874 35.0073 274.79 34.5825C273.706 34.1431 272.791 33.5205 272.044 32.7148C270.491 31.0156 269.715 28.7012 269.715 25.7715Z" fill="#747373"/>
<path d="M314.517 5.71045C314.517 4.47998 313.785 3.86475 312.32 3.86475C309.522 3.86475 306.98 5.16113 304.695 7.75391C303.348 9.27734 302.403 10.9253 301.861 12.6978C301.597 13.562 301.465 14.3237 301.465 14.9829C301.465 15.6421 301.539 16.1694 301.685 16.5649C301.846 16.9458 302.044 17.2607 302.278 17.5098C302.776 18.0371 303.355 18.2422 304.014 18.125C304.732 17.832 305.362 17.6855 305.904 17.6855C306.46 17.6855 306.9 17.7588 307.222 17.9053C307.559 18.0371 307.83 18.2056 308.035 18.4106C308.46 18.8208 308.672 19.2163 308.672 19.5972C308.672 20.3442 308.423 20.7324 307.925 20.7617C307.164 20.835 306.365 21.0474 305.53 21.3989C304.695 21.7505 303.853 22.2119 303.003 22.7832C302.154 23.3398 301.399 23.9697 300.74 24.6729C299.231 26.2842 298.477 27.9028 298.477 29.5288C298.477 30.3052 298.66 30.8911 299.026 31.2866C299.642 31.9751 300.374 32.3193 301.224 32.3193C302.073 32.3193 302.901 32.1582 303.706 31.8359C304.527 31.499 305.267 31.0962 305.926 30.6274C306.922 29.9097 307.889 28.9941 308.826 27.8809C309.295 27.3242 309.705 27.0459 310.057 27.0459C310.408 27.0459 310.672 27.2583 310.848 27.6831C311.038 28.0933 311.133 28.5327 311.133 29.0015C311.133 29.9683 310.95 30.686 310.584 31.1548C310.218 31.6089 309.756 32.0703 309.2 32.5391C308.658 32.9932 308.006 33.418 307.244 33.8135C305.413 34.751 303.45 35.2197 301.355 35.2197C297.825 35.2197 295.408 34.0625 294.104 31.748C293.636 30.8838 293.401 29.9976 293.401 29.0894C293.401 28.1812 293.533 27.3389 293.797 26.5625C294.075 25.7861 294.427 25.0684 294.852 24.4092C295.276 23.7354 295.752 23.1348 296.28 22.6074C296.807 22.0654 297.327 21.5967 297.84 21.2012C298.851 20.4102 299.685 19.9634 300.345 19.8608C298.689 19.2017 297.576 17.9199 297.005 16.0156C296.829 15.4004 296.741 14.6533 296.741 13.7744C296.741 12.8955 296.91 11.9287 297.247 10.874C297.583 9.80469 298.06 8.78662 298.675 7.81982C299.29 6.83838 300.022 5.92285 300.872 5.07324C301.722 4.22363 302.659 3.48389 303.685 2.854C305.896 1.50635 308.226 0.83252 310.672 0.83252C313.235 0.83252 315.147 1.46973 316.407 2.74414C317.417 3.76953 317.923 5.08057 317.923 6.67725C317.923 8.49365 317.161 10.332 315.638 12.1924C314.715 13.3057 313.88 14.0601 313.133 14.4556C312.4 14.8511 311.822 15.0708 311.397 15.1147C310.987 15.144 310.599 15.0928 310.232 14.9609C309.881 14.8145 309.573 14.624 309.31 14.3896C308.709 13.8477 308.409 13.3569 308.409 12.9175C308.409 12.3755 308.599 11.958 308.98 11.665L310.957 10.2588C313.331 8.51562 314.517 6.99951 314.517 5.71045Z" fill="#747373"/>
<path d="M320.076 26.4526L319.878 28.1445C319.878 29.917 320.472 31.1255 321.658 31.77C322.068 31.9897 322.559 32.0996 323.13 32.0996C323.702 32.0996 324.214 32.0044 324.668 31.814C325.122 31.6089 325.496 31.3452 325.789 31.0229C326.404 30.3638 326.712 29.6021 326.712 28.7378C326.712 27.8735 326.536 27.0898 326.185 26.3867C325.833 25.6836 325.393 24.9805 324.866 24.2773L323.108 22.124C321.687 20.4248 320.735 18.8794 320.252 17.4878C319.768 16.0815 319.527 14.7925 319.527 13.6206C319.527 12.4487 319.666 11.3428 319.944 10.3027C320.237 9.24805 320.64 8.25195 321.153 7.31445C321.665 6.3623 322.281 5.49072 322.998 4.69971C323.716 3.90869 324.515 3.22754 325.393 2.65625C327.225 1.42578 329.041 0.810547 330.843 0.810547C332.644 0.810547 334.051 1.05957 335.061 1.55762C336.072 2.05566 336.885 2.68555 337.5 3.44727C338.643 4.88281 339.214 6.61865 339.214 8.65479C339.214 10.5444 338.68 12.3242 337.61 13.9941C336.629 15.5176 335.53 16.4844 334.314 16.8945C334.051 17.0264 333.685 17.0923 333.216 17.0923C332.762 17.0923 332.373 17.0264 332.051 16.8945C331.744 16.748 331.473 16.5576 331.238 16.3232C330.726 15.8105 330.469 15.2539 330.469 14.6533C330.469 14.2432 330.594 13.9722 330.843 13.8403C331.956 13.2397 332.923 12.3682 333.743 11.2256C334.637 9.98047 335.105 8.74268 335.149 7.51221C335.193 6.26709 334.893 5.35156 334.248 4.76562C333.619 4.16504 332.776 3.86475 331.722 3.86475C330.667 3.86475 329.715 4.10645 328.865 4.58984C328.016 5.05859 327.283 5.6958 326.668 6.50146C325.35 8.22998 324.69 10.2734 324.69 12.6318C324.69 14.1992 325.232 15.8545 326.316 17.5977C326.77 18.3447 327.261 19.0845 327.789 19.8169C328.331 20.5347 328.836 21.2744 329.305 22.0361C330.374 23.8086 330.909 25.3979 330.909 26.8042C330.909 28.2104 330.652 29.397 330.14 30.3638C329.642 31.3306 328.975 32.1729 328.14 32.8906C326.338 34.4434 324.288 35.2197 321.988 35.2197C319.82 35.2197 318.15 34.5752 316.978 33.2861C316.04 32.2461 315.572 31.1182 315.572 29.9023C315.572 28.584 315.945 27.4707 316.692 26.5625C317.264 25.874 317.813 25.4639 318.34 25.332C319.497 25.0244 320.076 25.3979 320.076 26.4526Z" fill="#747373"/>
</svg>
