<svg width="439" height="44" viewBox="0 0 439 44" fill="none" xmlns="http://www.w3.org/2000/svg">
<path d="M19.7344 31.8281C19.7344 32.1875 19.7656 32.5312 19.8281 32.8594C19.9062 33.1719 20.0469 33.4453 20.25 33.6797C20.4688 33.9141 20.7578 34.1016 21.1172 34.2422C21.4922 34.3828 21.9766 34.4531 22.5703 34.4531C23.4297 34.4531 24.2188 34.2109 24.9375 33.7266C25.6562 33.2266 26.2734 32.5938 26.7891 31.8281C27.3047 31.0469 27.7031 30.1797 27.9844 29.2266C28.2656 28.2578 28.4062 27.2969 28.4062 26.3438C28.4062 24.9219 28.2109 23.6719 27.8203 22.5938C27.4453 21.5 26.9141 20.5781 26.2266 19.8281C25.5391 19.0781 24.7266 18.5 23.7891 18.0938C22.8516 17.6719 21.8359 17.4297 20.7422 17.3672L21.2109 16.1719C21.8984 16.2031 22.5547 16.1094 23.1797 15.8906C23.8047 15.6719 24.3516 15.2891 24.8203 14.7422C25.3047 14.1953 25.6875 13.4609 25.9688 12.5391C26.25 11.6016 26.3906 10.4297 26.3906 9.02344C26.3906 8.07031 26.2734 7.21094 26.0391 6.44531C25.8047 5.67969 25.4922 5.03906 25.1016 4.52344C24.7266 3.99219 24.2812 3.58594 23.7656 3.30469C23.2656 3.02344 22.75 2.88281 22.2188 2.88281C21.8906 2.88281 21.5703 2.92188 21.2578 3C20.9609 3.07812 20.6953 3.21094 20.4609 3.39844C20.2422 3.58594 20.0625 3.83594 19.9219 4.14844C19.7969 4.44531 19.7344 4.82031 19.7344 5.27344V31.8281ZM20.2031 0.960938C24.7344 0.960938 28.0625 1.67188 30.1875 3.09375C32.3281 4.5 33.3984 6.55469 33.3984 9.25781C33.3984 9.92969 33.3203 10.5469 33.1641 11.1094C33.0234 11.6719 32.8359 12.1875 32.6016 12.6562C32.3672 13.1094 32.1016 13.5156 31.8047 13.875C31.5078 14.2344 31.2031 14.5469 30.8906 14.8125C30.1562 15.4531 29.3281 15.9531 28.4062 16.3125V16.6641C29.8594 16.8359 31.1641 17.2734 32.3203 17.9766C32.8047 18.2734 33.2812 18.6484 33.75 19.1016C34.2188 19.5391 34.6328 20.0781 34.9922 20.7188C35.3672 21.3438 35.6641 22.0781 35.8828 22.9219C36.1172 23.75 36.2344 24.7031 36.2344 25.7812C36.2344 27.4219 35.9375 28.8984 35.3438 30.2109C34.75 31.5234 33.8672 32.6406 32.6953 33.5625C31.5234 34.4688 30.0625 35.1641 28.3125 35.6484C26.5625 36.1328 24.5312 36.375 22.2188 36.375C20.0781 36.375 18.3359 36.2422 16.9922 35.9766C15.6484 35.7109 14.6016 35.3281 13.8516 34.8281C13.1016 34.3125 12.5859 33.6953 12.3047 32.9766C12.0391 32.2578 11.9062 31.4453 11.9062 30.5391V4.89844C11.9062 4.03906 11.3125 3.60938 10.125 3.60938C9.26562 3.60938 8.39062 3.74219 7.5 4.00781C6.625 4.25781 5.82812 4.60938 5.10938 5.0625C4.40625 5.5 3.82812 6.03125 3.375 6.65625C2.92188 7.26562 2.69531 7.92969 2.69531 8.64844C2.69531 9.14844 2.75781 9.54688 2.88281 9.84375C3.02344 10.1406 3.17969 10.3672 3.35156 10.5234C3.52344 10.6641 3.69531 10.7578 3.86719 10.8047C4.05469 10.8359 4.1875 10.8516 4.26562 10.8516C4.65625 10.8516 4.97656 10.7891 5.22656 10.6641C5.47656 10.5234 5.70312 10.3828 5.90625 10.2422C6.10938 10.0859 6.29688 9.94531 6.46875 9.82031C6.65625 9.67969 6.86719 9.60938 7.10156 9.60938C7.28906 9.60938 7.48438 9.65625 7.6875 9.75C7.90625 9.82812 8.10156 9.96094 8.27344 10.1484C8.46094 10.3359 8.61719 10.5859 8.74219 10.8984C8.86719 11.1953 8.92969 11.5625 8.92969 12C8.92969 12.625 8.80469 13.1641 8.55469 13.6172C8.32031 14.0703 8.00781 14.4531 7.61719 14.7656C7.24219 15.0625 6.80469 15.2891 6.30469 15.4453C5.82031 15.5859 5.33594 15.6562 4.85156 15.6562C4.10156 15.6562 3.42188 15.5312 2.8125 15.2812C2.21875 15.0156 1.71094 14.6562 1.28906 14.2031C0.867188 13.75 0.546875 13.2188 0.328125 12.6094C0.109375 12 0 11.3516 0 10.6641C0 9.36719 0.242188 8.22656 0.726562 7.24219C1.21094 6.24219 1.89062 5.38281 2.76562 4.66406C3.65625 3.94531 4.71875 3.35156 5.95312 2.88281C7.1875 2.39844 8.55469 2.01562 10.0547 1.73438C11.5547 1.45312 13.1562 1.25781 14.8594 1.14844C16.5781 1.02344 18.3594 0.960938 20.2031 0.960938Z" fill="#747373"/>
<path d="M57.8906 0.960938C62.1406 0.960938 65.3828 1.71875 67.6172 3.23438C69.8672 4.73438 70.9922 6.89062 70.9922 9.70312C70.9922 11.0781 70.8281 12.2578 70.5 13.2422C70.1875 14.2109 69.7422 15.0391 69.1641 15.7266C68.6016 16.3984 67.9219 16.9609 67.125 17.4141C66.3438 17.8516 65.4922 18.2266 64.5703 18.5391C65.2109 18.7109 65.8516 19.1719 66.4922 19.9219C67.1484 20.6719 67.8125 21.6016 68.4844 22.7109C69.1562 23.8047 69.8359 25.0234 70.5234 26.3672C71.2109 27.7109 71.8984 29.0703 72.5859 30.4453C73.2891 31.8203 73.9922 33.1562 74.6953 34.4531C75.4141 35.75 76.125 36.9062 76.8281 37.9219C77.5469 38.9375 78.2656 39.75 78.9844 40.3594C79.7188 40.9688 80.4453 41.2734 81.1641 41.2734C81.4766 41.2734 81.7812 41.2109 82.0781 41.0859C82.3906 40.9609 82.6328 40.8359 82.8047 40.7109L83.2969 41.625C82.9844 41.7969 82.6016 41.9844 82.1484 42.1875C81.6953 42.4062 81.1641 42.6094 80.5547 42.7969C79.9453 42.9844 79.2578 43.1406 78.4922 43.2656C77.7422 43.4062 76.9062 43.4766 75.9844 43.4766C74.4688 43.4766 73.1016 43.0547 71.8828 42.2109C70.6641 41.3828 69.6172 40.2109 68.7422 38.6953C67.8516 37.1328 66.9766 35.4922 66.1172 33.7734C65.2578 32.0547 64.3984 30.3359 63.5391 28.6172C62.6953 26.8984 61.8438 25.2188 60.9844 23.5781C60.1406 21.9375 59.2891 20.3984 58.4297 18.9609L58.6172 18C59.5391 18.2344 60.3359 18.1797 61.0078 17.8359C61.6953 17.4922 62.2578 16.9375 62.6953 16.1719C63.1328 15.3906 63.4531 14.4375 63.6562 13.3125C63.875 12.1875 63.9844 10.9688 63.9844 9.65625C63.9844 8.71875 63.8828 7.84375 63.6797 7.03125C63.4766 6.20312 63.1875 5.48438 62.8125 4.875C62.4531 4.25 62.0156 3.76562 61.5 3.42188C60.9844 3.0625 60.4062 2.88281 59.7656 2.88281C59.2656 2.88281 58.8516 2.96094 58.5234 3.11719C58.2109 3.25781 57.9609 3.44531 57.7734 3.67969C57.5859 3.89844 57.4531 4.14062 57.375 4.40625C57.3125 4.65625 57.2812 4.89844 57.2812 5.13281V32.9297C57.2812 34.1328 56.9609 35.0078 56.3203 35.5547C55.6953 36.1016 54.7344 36.375 53.4375 36.375C52.125 36.375 51.1562 36.1016 50.5312 35.5547C49.9062 35.0078 49.5938 34.1328 49.5938 32.9297V4.89844C49.5938 4.03906 49 3.60938 47.8125 3.60938C46.9531 3.60938 46.0781 3.74219 45.1875 4.00781C44.3125 4.25781 43.5156 4.60938 42.7969 5.0625C42.0938 5.5 41.5156 6.03125 41.0625 6.65625C40.6094 7.26562 40.3828 7.92969 40.3828 8.64844C40.3828 9.14844 40.4453 9.54688 40.5703 9.84375C40.7109 10.1406 40.8672 10.3672 41.0391 10.5234C41.2109 10.6641 41.3828 10.7578 41.5547 10.8047C41.7422 10.8359 41.875 10.8516 41.9531 10.8516C42.3438 10.8516 42.6641 10.7891 42.9141 10.6641C43.1641 10.5234 43.3906 10.3828 43.5938 10.2422C43.7969 10.0859 43.9844 9.94531 44.1562 9.82031C44.3438 9.67969 44.5547 9.60938 44.7891 9.60938C44.9766 9.60938 45.1719 9.65625 45.375 9.75C45.5938 9.82812 45.7891 9.96094 45.9609 10.1484C46.1484 10.3359 46.3047 10.5859 46.4297 10.8984C46.5547 11.1953 46.6172 11.5625 46.6172 12C46.6172 12.625 46.4922 13.1641 46.2422 13.6172C46.0078 14.0703 45.6953 14.4531 45.3047 14.7656C44.9297 15.0625 44.4922 15.2891 43.9922 15.4453C43.5078 15.5859 43.0234 15.6562 42.5391 15.6562C41.7891 15.6562 41.1094 15.5312 40.5 15.2812C39.9062 15.0156 39.3984 14.6562 38.9766 14.2031C38.5547 13.75 38.2344 13.2188 38.0156 12.6094C37.7969 12 37.6875 11.3516 37.6875 10.6641C37.6875 9.36719 37.9297 8.22656 38.4141 7.24219C38.8984 6.24219 39.5781 5.38281 40.4531 4.66406C41.3438 3.94531 42.4062 3.35156 43.6406 2.88281C44.875 2.39844 46.2422 2.01562 47.7422 1.73438C49.2422 1.45312 50.8438 1.25781 52.5469 1.14844C54.2656 1.02344 56.0469 0.960938 57.8906 0.960938Z" fill="#747373"/>
<path d="M75.6094 11.1328C75.6094 9.30469 76.1094 7.75 77.1094 6.46875C78.125 5.1875 79.5078 4.14062 81.2578 3.32812C83.0078 2.5 85.0469 1.89844 87.375 1.52344C89.7031 1.14844 92.1953 0.960938 94.8516 0.960938C96.1172 0.960938 97.3516 0.976562 98.5547 1.00781C99.7578 1.02344 100.852 1.05469 101.836 1.10156C102.836 1.14844 103.695 1.20312 104.414 1.26562C105.133 1.32812 105.656 1.39844 105.984 1.47656C106.297 1.55469 106.547 1.64062 106.734 1.73438C106.922 1.82812 107.062 1.9375 107.156 2.0625C107.25 2.1875 107.312 2.33594 107.344 2.50781C107.375 2.66406 107.391 2.85156 107.391 3.07031C107.391 3.25781 107.367 3.46875 107.32 3.70312C107.273 3.92188 107.203 4.13281 107.109 4.33594C107.016 4.52344 106.898 4.6875 106.758 4.82812C106.617 4.96875 106.445 5.03906 106.242 5.03906C106.117 5.03906 105.977 4.98438 105.82 4.875C105.68 4.76562 105.469 4.625 105.188 4.45312C104.922 4.28125 104.555 4.10156 104.086 3.91406C103.633 3.72656 103.016 3.54688 102.234 3.375C101.469 3.20312 100.508 3.0625 99.3516 2.95312C98.2109 2.84375 96.8281 2.78906 95.2031 2.78906V17.8125H104.93V19.875H95.2031V29.0391C95.2031 29.7734 95.3125 30.4062 95.5312 30.9375C95.75 31.4531 96.0625 31.8828 96.4688 32.2266C96.875 32.5703 97.3594 32.8203 97.9219 32.9766C98.5 33.1328 99.1406 33.2109 99.8438 33.2109C100.641 33.2109 101.438 33.1328 102.234 32.9766C103.031 32.8047 103.781 32.5938 104.484 32.3438C105.203 32.0938 105.852 31.8125 106.43 31.5C107.023 31.1875 107.5 30.8828 107.859 30.5859L108.773 31.5938C108.383 31.9062 107.859 32.3359 107.203 32.8828C106.547 33.4141 105.742 33.9375 104.789 34.4531C103.852 34.9688 102.75 35.4219 101.484 35.8125C100.234 36.1875 98.8125 36.375 97.2188 36.375C96.6875 36.375 96.0781 36.3438 95.3906 36.2812C94.7188 36.2344 94.0234 36.1328 93.3047 35.9766C92.5859 35.8047 91.875 35.5625 91.1719 35.25C90.4844 34.9219 89.8672 34.4922 89.3203 33.9609C88.7891 33.4297 88.3516 32.7812 88.0078 32.0156C87.6797 31.2344 87.5156 30.3047 87.5156 29.2266V19.875H83.8594V17.8125H87.5156V3.07031C87.0156 3.11719 86.4375 3.21094 85.7812 3.35156C85.1406 3.47656 84.4766 3.66406 83.7891 3.91406C83.1172 4.14844 82.4531 4.42969 81.7969 4.75781C81.1406 5.08594 80.5547 5.46875 80.0391 5.90625C79.5234 6.34375 79.1016 6.83594 78.7734 7.38281C78.4609 7.91406 78.3047 8.49219 78.3047 9.11719C78.3047 9.61719 78.3672 10.0156 78.4922 10.3125C78.6328 10.6094 78.7891 10.8359 78.9609 10.9922C79.1328 11.1328 79.3047 11.2266 79.4766 11.2734C79.6641 11.3047 79.7969 11.3203 79.875 11.3203C80.2656 11.3203 80.5859 11.2578 80.8359 11.1328C81.0859 10.9922 81.3125 10.8516 81.5156 10.7109C81.7188 10.5547 81.9062 10.4141 82.0781 10.2891C82.2656 10.1484 82.4766 10.0781 82.7109 10.0781C82.8984 10.0781 83.0938 10.125 83.2969 10.2188C83.5156 10.2969 83.7109 10.4297 83.8828 10.6172C84.0703 10.8047 84.2266 11.0547 84.3516 11.3672C84.4766 11.6641 84.5391 12.0312 84.5391 12.4688C84.5391 13.0938 84.4141 13.6406 84.1641 14.1094C83.9297 14.5625 83.6172 14.9375 83.2266 15.2344C82.8516 15.5312 82.4141 15.7578 81.9141 15.9141C81.4297 16.0547 80.9453 16.125 80.4609 16.125C79.7109 16.125 79.0312 16 78.4219 15.75C77.8281 15.4844 77.3203 15.125 76.8984 14.6719C76.4766 14.2188 76.1562 13.6953 75.9375 13.1016C75.7188 12.4922 75.6094 11.8359 75.6094 11.1328Z" fill="#747373"/>
<path d="M130.922 26.1094H122.086C121.43 28.1719 120.719 29.9609 119.953 31.4766C119.203 32.9922 118.367 34.25 117.445 35.25C116.523 36.25 115.508 36.9922 114.398 37.4766C113.305 37.9609 112.078 38.2031 110.719 38.2031C109.969 38.2031 109.25 38.1328 108.562 37.9922C107.859 37.8672 107.242 37.6875 106.711 37.4531C106.18 37.2188 105.758 36.9375 105.445 36.6094C105.117 36.2969 104.953 35.9531 104.953 35.5781C104.953 35.2969 105 35.0156 105.094 34.7344C105.172 34.4375 105.289 34.1719 105.445 33.9375C105.602 33.6875 105.797 33.4922 106.031 33.3516C106.25 33.1953 106.5 33.1172 106.781 33.1172C107.031 33.1172 107.25 33.2891 107.438 33.6328C107.625 33.9766 107.867 34.3594 108.164 34.7812C108.445 35.1875 108.812 35.5625 109.266 35.9062C109.719 36.25 110.344 36.4219 111.141 36.4219C111.953 36.4219 112.727 36.2266 113.461 35.8359C114.195 35.4453 114.898 34.8359 115.57 34.0078C116.258 33.1641 116.914 32.0938 117.539 30.7969C118.164 29.5 118.773 27.9375 119.367 26.1094H113.836V24.0469H119.977C120.492 22.2969 120.992 20.5312 121.477 18.75C121.977 16.9688 122.445 15.2578 122.883 13.6172C123.32 11.9766 123.711 10.4453 124.055 9.02344C124.398 7.58594 124.688 6.33594 124.922 5.27344C124.609 4.39844 124.18 3.8125 123.633 3.51562C123.102 3.21875 122.383 3.07031 121.477 3.07031C120.633 3.07031 119.758 3.20312 118.852 3.46875C117.961 3.71875 117.148 4.08594 116.414 4.57031C115.68 5.03906 115.07 5.625 114.586 6.32812C114.117 7.01562 113.883 7.78906 113.883 8.64844C113.883 9.14844 113.945 9.54688 114.07 9.84375C114.211 10.1406 114.367 10.3672 114.539 10.5234C114.727 10.6641 114.906 10.7578 115.078 10.8047C115.25 10.8359 115.383 10.8516 115.477 10.8516C115.852 10.8516 116.164 10.7891 116.414 10.6641C116.68 10.5234 116.906 10.3828 117.094 10.2422C117.297 10.0859 117.492 9.94531 117.68 9.82031C117.867 9.67969 118.078 9.60938 118.312 9.60938C118.484 9.60938 118.672 9.65625 118.875 9.75C119.094 9.82812 119.289 9.96094 119.461 10.1484C119.648 10.3359 119.805 10.5859 119.93 10.8984C120.055 11.1953 120.117 11.5625 120.117 12C120.117 12.625 119.992 13.1641 119.742 13.6172C119.508 14.0703 119.195 14.4531 118.805 14.7656C118.43 15.0625 117.992 15.2891 117.492 15.4453C117.008 15.5859 116.523 15.6562 116.039 15.6562C115.289 15.6562 114.609 15.5234 114 15.2578C113.406 14.9766 112.898 14.6016 112.477 14.1328C112.055 13.6641 111.734 13.1172 111.516 12.4922C111.297 11.8672 111.188 11.2109 111.188 10.5234C111.188 9.49219 111.359 8.54688 111.703 7.6875C112.047 6.8125 112.523 6.02344 113.133 5.32031C113.742 4.60156 114.461 3.97656 115.289 3.44531C116.117 2.89844 117.008 2.44531 117.961 2.08594C118.93 1.71094 119.938 1.42969 120.984 1.24219C122.031 1.05469 123.086 0.960938 124.148 0.960938C125.648 0.960938 126.914 1.08594 127.945 1.33594C128.992 1.57031 129.867 1.92969 130.57 2.41406C131.273 2.88281 131.836 3.48438 132.258 4.21875C132.695 4.9375 133.055 5.77344 133.336 6.72656L138.375 24.0469H143.461V26.1094H138.938L140.766 32.25C140.828 32.4844 140.891 32.7031 140.953 32.9062C141.016 33.1094 141.086 33.2891 141.164 33.4453C141.258 33.5859 141.367 33.7031 141.492 33.7969C141.633 33.8906 141.805 33.9375 142.008 33.9375C142.445 33.9375 142.852 33.8672 143.227 33.7266C143.602 33.5703 143.93 33.4141 144.211 33.2578L144.609 34.125C144.328 34.3281 143.969 34.5625 143.531 34.8281C143.109 35.0781 142.617 35.3203 142.055 35.5547C141.508 35.7891 140.898 35.9844 140.227 36.1406C139.555 36.2969 138.836 36.375 138.07 36.375C137.008 36.375 136.148 36.2422 135.492 35.9766C134.852 35.7109 134.344 35.3828 133.969 34.9922C133.609 34.6016 133.344 34.1875 133.172 33.75C133.016 33.3125 132.891 32.9297 132.797 32.6016L130.922 26.1094ZM126.375 10.2656C125.734 12.875 125.109 15.3281 124.5 17.625C123.906 19.9219 123.312 22.0625 122.719 24.0469H130.359L126.375 10.2656Z" fill="#747373"/>
<path d="M156.023 5.08594C156.023 4.58594 155.836 4.21875 155.461 3.98438C155.102 3.73438 154.703 3.60938 154.266 3.60938C153.391 3.60938 152.539 3.74219 151.711 4.00781C150.883 4.25781 150.141 4.60938 149.484 5.0625C148.828 5.5 148.297 6.03125 147.891 6.65625C147.5 7.26562 147.305 7.92969 147.305 8.64844C147.305 9.14844 147.367 9.54688 147.492 9.84375C147.633 10.1406 147.789 10.3672 147.961 10.5234C148.133 10.6641 148.305 10.7578 148.477 10.8047C148.664 10.8359 148.797 10.8516 148.875 10.8516C149.266 10.8516 149.586 10.7891 149.836 10.6641C150.086 10.5234 150.312 10.3828 150.516 10.2422C150.719 10.0859 150.906 9.94531 151.078 9.82031C151.266 9.67969 151.477 9.60938 151.711 9.60938C151.898 9.60938 152.094 9.65625 152.297 9.75C152.516 9.82812 152.711 9.96094 152.883 10.1484C153.07 10.3359 153.227 10.5859 153.352 10.8984C153.477 11.1953 153.539 11.5625 153.539 12C153.539 12.625 153.414 13.1641 153.164 13.6172C152.93 14.0703 152.617 14.4531 152.227 14.7656C151.852 15.0625 151.414 15.2891 150.914 15.4453C150.43 15.5859 149.945 15.6562 149.461 15.6562C148.711 15.6562 148.031 15.5312 147.422 15.2812C146.828 15.0156 146.32 14.6562 145.898 14.2031C145.477 13.75 145.156 13.2188 144.938 12.6094C144.719 12 144.609 11.3516 144.609 10.6641C144.609 8.71094 145.102 7.10938 146.086 5.85938C147.07 4.59375 148.406 3.60156 150.094 2.88281C151.797 2.14844 153.773 1.64844 156.023 1.38281C158.289 1.10156 160.695 0.960938 163.242 0.960938C166.148 0.960938 168.773 1.25781 171.117 1.85156C173.477 2.42969 175.492 3.375 177.164 4.6875C178.836 6 180.125 7.71875 181.031 9.84375C181.938 11.9531 182.391 14.5312 182.391 17.5781C182.391 20.625 181.906 23.3281 180.938 25.6875C179.984 28.0469 178.672 30.0312 177 31.6406C175.344 33.2344 173.391 34.4531 171.141 35.2969C168.906 36.125 166.508 36.5391 163.945 36.5391C162.242 36.5391 160.867 36.4531 159.82 36.2812C158.789 36.125 157.992 35.8516 157.43 35.4609C156.867 35.0547 156.492 34.5234 156.305 33.8672C156.117 33.1953 156.023 32.3516 156.023 31.3359V5.08594ZM163.758 31.5469C163.758 32.4375 163.953 33.0781 164.344 33.4688C164.75 33.8438 165.344 34.0312 166.125 34.0312C167.297 34.0312 168.375 33.7734 169.359 33.2578C170.359 32.7422 171.219 31.8594 171.938 30.6094C172.656 29.3438 173.219 27.6641 173.625 25.5703C174.031 23.4766 174.234 20.8438 174.234 17.6719C174.234 15.5469 174.102 13.7109 173.836 12.1641C173.586 10.6016 173.25 9.28125 172.828 8.20312C172.406 7.10938 171.922 6.22656 171.375 5.55469C170.844 4.86719 170.297 4.33594 169.734 3.96094C169.172 3.57031 168.617 3.3125 168.07 3.1875C167.539 3.04688 167.062 2.97656 166.641 2.97656C165.625 2.97656 164.891 3.20312 164.438 3.65625C163.984 4.10938 163.758 4.92188 163.758 6.09375V31.5469Z" fill="#747373"/>
<path d="M196.102 12.2812C197.07 11.625 197.734 10.9297 198.094 10.1953C198.469 9.44531 198.656 8.73438 198.656 8.0625C198.656 7.34375 198.453 6.71094 198.047 6.16406C197.656 5.60156 197.219 5.11719 196.734 4.71094C196.5 4.47656 196.383 4.21875 196.383 3.9375C196.383 3.60938 196.492 3.27344 196.711 2.92969C196.93 2.58594 197.219 2.26562 197.578 1.96875C197.938 1.67188 198.352 1.42969 198.82 1.24219C199.305 1.05469 199.805 0.960938 200.32 0.960938C200.805 0.960938 201.219 1.08594 201.562 1.33594C201.906 1.58594 202.18 1.89062 202.383 2.25C202.586 2.60938 202.734 2.99219 202.828 3.39844C202.922 3.78906 202.969 4.14062 202.969 4.45312C202.969 5.375 202.805 6.25 202.477 7.07812C202.148 7.90625 201.703 8.6875 201.141 9.42188C200.578 10.1562 199.922 10.8359 199.172 11.4609C198.438 12.0703 197.656 12.6172 196.828 13.1016L196.102 12.2812Z" fill="#747373"/>
<path d="M215.836 5.08594C215.836 4.58594 215.648 4.21875 215.273 3.98438C214.914 3.73438 214.516 3.60938 214.078 3.60938C213.203 3.60938 212.352 3.74219 211.523 4.00781C210.695 4.25781 209.953 4.60938 209.297 5.0625C208.641 5.5 208.109 6.03125 207.703 6.65625C207.312 7.26562 207.117 7.92969 207.117 8.64844C207.117 9.14844 207.18 9.54688 207.305 9.84375C207.445 10.1406 207.602 10.3672 207.773 10.5234C207.945 10.6641 208.117 10.7578 208.289 10.8047C208.477 10.8359 208.609 10.8516 208.688 10.8516C209.078 10.8516 209.398 10.7891 209.648 10.6641C209.898 10.5234 210.125 10.3828 210.328 10.2422C210.531 10.0859 210.719 9.94531 210.891 9.82031C211.078 9.67969 211.289 9.60938 211.523 9.60938C211.711 9.60938 211.906 9.65625 212.109 9.75C212.328 9.82812 212.523 9.96094 212.695 10.1484C212.883 10.3359 213.039 10.5859 213.164 10.8984C213.289 11.1953 213.352 11.5625 213.352 12C213.352 12.625 213.227 13.1641 212.977 13.6172C212.742 14.0703 212.43 14.4531 212.039 14.7656C211.664 15.0625 211.227 15.2891 210.727 15.4453C210.242 15.5859 209.758 15.6562 209.273 15.6562C208.523 15.6562 207.844 15.5312 207.234 15.2812C206.641 15.0156 206.133 14.6562 205.711 14.2031C205.289 13.75 204.969 13.2188 204.75 12.6094C204.531 12 204.422 11.3516 204.422 10.6641C204.422 8.71094 204.914 7.10938 205.898 5.85938C206.883 4.59375 208.219 3.60156 209.906 2.88281C211.609 2.14844 213.586 1.64844 215.836 1.38281C218.102 1.10156 220.508 0.960938 223.055 0.960938C225.961 0.960938 228.586 1.25781 230.93 1.85156C233.289 2.42969 235.305 3.375 236.977 4.6875C238.648 6 239.938 7.71875 240.844 9.84375C241.75 11.9531 242.203 14.5312 242.203 17.5781C242.203 20.625 241.719 23.3281 240.75 25.6875C239.797 28.0469 238.484 30.0312 236.812 31.6406C235.156 33.2344 233.203 34.4531 230.953 35.2969C228.719 36.125 226.32 36.5391 223.758 36.5391C222.055 36.5391 220.68 36.4531 219.633 36.2812C218.602 36.125 217.805 35.8516 217.242 35.4609C216.68 35.0547 216.305 34.5234 216.117 33.8672C215.93 33.1953 215.836 32.3516 215.836 31.3359V5.08594ZM223.57 31.5469C223.57 32.4375 223.766 33.0781 224.156 33.4688C224.562 33.8438 225.156 34.0312 225.938 34.0312C227.109 34.0312 228.188 33.7734 229.172 33.2578C230.172 32.7422 231.031 31.8594 231.75 30.6094C232.469 29.3438 233.031 27.6641 233.438 25.5703C233.844 23.4766 234.047 20.8438 234.047 17.6719C234.047 15.5469 233.914 13.7109 233.648 12.1641C233.398 10.6016 233.062 9.28125 232.641 8.20312C232.219 7.10938 231.734 6.22656 231.188 5.55469C230.656 4.86719 230.109 4.33594 229.547 3.96094C228.984 3.57031 228.43 3.3125 227.883 3.1875C227.352 3.04688 226.875 2.97656 226.453 2.97656C225.438 2.97656 224.703 3.20312 224.25 3.65625C223.797 4.10938 223.57 4.92188 223.57 6.09375V31.5469Z" fill="#747373"/>
<path d="M274.547 32.9297C274.547 34.1328 274.227 35.0078 273.586 35.5547C272.961 36.1016 272 36.375 270.703 36.375C269.391 36.375 268.422 36.1016 267.797 35.5547C267.172 35.0078 266.859 34.1328 266.859 32.9297V4.89844C266.859 4.03906 266.266 3.60938 265.078 3.60938C264.219 3.60938 263.344 3.74219 262.453 4.00781C261.578 4.25781 260.781 4.60938 260.062 5.0625C259.359 5.5 258.781 6.03125 258.328 6.65625C257.875 7.26562 257.648 7.92969 257.648 8.64844C257.648 9.14844 257.711 9.54688 257.836 9.84375C257.977 10.1406 258.133 10.3672 258.305 10.5234C258.477 10.6641 258.648 10.7578 258.82 10.8047C259.008 10.8359 259.141 10.8516 259.219 10.8516C259.609 10.8516 259.93 10.7891 260.18 10.6641C260.43 10.5234 260.656 10.3828 260.859 10.2422C261.062 10.0859 261.25 9.94531 261.422 9.82031C261.609 9.67969 261.82 9.60938 262.055 9.60938C262.242 9.60938 262.438 9.65625 262.641 9.75C262.859 9.82812 263.055 9.96094 263.227 10.1484C263.414 10.3359 263.57 10.5859 263.695 10.8984C263.82 11.1953 263.883 11.5625 263.883 12C263.883 12.625 263.758 13.1641 263.508 13.6172C263.273 14.0703 262.961 14.4531 262.57 14.7656C262.195 15.0625 261.758 15.2891 261.258 15.4453C260.773 15.5859 260.289 15.6562 259.805 15.6562C259.055 15.6562 258.375 15.5312 257.766 15.2812C257.172 15.0156 256.664 14.6562 256.242 14.2031C255.82 13.75 255.5 13.2188 255.281 12.6094C255.062 12 254.953 11.3516 254.953 10.6641C254.953 9.36719 255.195 8.22656 255.68 7.24219C256.164 6.24219 256.844 5.38281 257.719 4.66406C258.609 3.94531 259.672 3.35156 260.906 2.88281C262.141 2.39844 263.508 2.01562 265.008 1.73438C266.508 1.45312 268.109 1.25781 269.812 1.14844C271.531 1.02344 273.312 0.960938 275.156 0.960938C279.625 0.960938 283.008 1.82031 285.305 3.53906C287.602 5.24219 288.75 7.69531 288.75 10.8984C288.75 12.4609 288.539 13.8438 288.117 15.0469C287.711 16.25 287.156 17.2891 286.453 18.1641C285.766 19.0234 284.969 19.7266 284.062 20.2734C283.156 20.8047 282.219 21.1875 281.25 21.4219C280.281 21.6562 279.305 21.75 278.32 21.7031C277.352 21.6562 276.445 21.4766 275.602 21.1641L275.93 20.1562C277.102 20.5156 278.062 20.5312 278.812 20.2031C279.578 19.8594 280.172 19.2578 280.594 18.3984C281.031 17.5391 281.328 16.4531 281.484 15.1406C281.656 13.8281 281.742 12.3828 281.742 10.8047C281.742 9.61719 281.617 8.53906 281.367 7.57031C281.117 6.58594 280.773 5.75 280.336 5.0625C279.914 4.375 279.414 3.84375 278.836 3.46875C278.273 3.07812 277.672 2.88281 277.031 2.88281C276.531 2.88281 276.117 2.96094 275.789 3.11719C275.477 3.25781 275.227 3.44531 275.039 3.67969C274.867 3.89844 274.742 4.14062 274.664 4.40625C274.602 4.65625 274.562 4.89844 274.547 5.13281V32.9297Z" fill="#747373"/>
<path d="M311.344 26.1094H302.508C301.852 28.1719 301.141 29.9609 300.375 31.4766C299.625 32.9922 298.789 34.25 297.867 35.25C296.945 36.25 295.93 36.9922 294.82 37.4766C293.727 37.9609 292.5 38.2031 291.141 38.2031C290.391 38.2031 289.672 38.1328 288.984 37.9922C288.281 37.8672 287.664 37.6875 287.133 37.4531C286.602 37.2188 286.18 36.9375 285.867 36.6094C285.539 36.2969 285.375 35.9531 285.375 35.5781C285.375 35.2969 285.422 35.0156 285.516 34.7344C285.594 34.4375 285.711 34.1719 285.867 33.9375C286.023 33.6875 286.219 33.4922 286.453 33.3516C286.672 33.1953 286.922 33.1172 287.203 33.1172C287.453 33.1172 287.672 33.2891 287.859 33.6328C288.047 33.9766 288.289 34.3594 288.586 34.7812C288.867 35.1875 289.234 35.5625 289.688 35.9062C290.141 36.25 290.766 36.4219 291.562 36.4219C292.375 36.4219 293.148 36.2266 293.883 35.8359C294.617 35.4453 295.32 34.8359 295.992 34.0078C296.68 33.1641 297.336 32.0938 297.961 30.7969C298.586 29.5 299.195 27.9375 299.789 26.1094H294.258V24.0469H300.398C300.914 22.2969 301.414 20.5312 301.898 18.75C302.398 16.9688 302.867 15.2578 303.305 13.6172C303.742 11.9766 304.133 10.4453 304.477 9.02344C304.82 7.58594 305.109 6.33594 305.344 5.27344C305.031 4.39844 304.602 3.8125 304.055 3.51562C303.523 3.21875 302.805 3.07031 301.898 3.07031C301.055 3.07031 300.18 3.20312 299.273 3.46875C298.383 3.71875 297.57 4.08594 296.836 4.57031C296.102 5.03906 295.492 5.625 295.008 6.32812C294.539 7.01562 294.305 7.78906 294.305 8.64844C294.305 9.14844 294.367 9.54688 294.492 9.84375C294.633 10.1406 294.789 10.3672 294.961 10.5234C295.148 10.6641 295.328 10.7578 295.5 10.8047C295.672 10.8359 295.805 10.8516 295.898 10.8516C296.273 10.8516 296.586 10.7891 296.836 10.6641C297.102 10.5234 297.328 10.3828 297.516 10.2422C297.719 10.0859 297.914 9.94531 298.102 9.82031C298.289 9.67969 298.5 9.60938 298.734 9.60938C298.906 9.60938 299.094 9.65625 299.297 9.75C299.516 9.82812 299.711 9.96094 299.883 10.1484C300.07 10.3359 300.227 10.5859 300.352 10.8984C300.477 11.1953 300.539 11.5625 300.539 12C300.539 12.625 300.414 13.1641 300.164 13.6172C299.93 14.0703 299.617 14.4531 299.227 14.7656C298.852 15.0625 298.414 15.2891 297.914 15.4453C297.43 15.5859 296.945 15.6562 296.461 15.6562C295.711 15.6562 295.031 15.5234 294.422 15.2578C293.828 14.9766 293.32 14.6016 292.898 14.1328C292.477 13.6641 292.156 13.1172 291.938 12.4922C291.719 11.8672 291.609 11.2109 291.609 10.5234C291.609 9.49219 291.781 8.54688 292.125 7.6875C292.469 6.8125 292.945 6.02344 293.555 5.32031C294.164 4.60156 294.883 3.97656 295.711 3.44531C296.539 2.89844 297.43 2.44531 298.383 2.08594C299.352 1.71094 300.359 1.42969 301.406 1.24219C302.453 1.05469 303.508 0.960938 304.57 0.960938C306.07 0.960938 307.336 1.08594 308.367 1.33594C309.414 1.57031 310.289 1.92969 310.992 2.41406C311.695 2.88281 312.258 3.48438 312.68 4.21875C313.117 4.9375 313.477 5.77344 313.758 6.72656L318.797 24.0469H323.883V26.1094H319.359L321.188 32.25C321.25 32.4844 321.312 32.7031 321.375 32.9062C321.438 33.1094 321.508 33.2891 321.586 33.4453C321.68 33.5859 321.789 33.7031 321.914 33.7969C322.055 33.8906 322.227 33.9375 322.43 33.9375C322.867 33.9375 323.273 33.8672 323.648 33.7266C324.023 33.5703 324.352 33.4141 324.633 33.2578L325.031 34.125C324.75 34.3281 324.391 34.5625 323.953 34.8281C323.531 35.0781 323.039 35.3203 322.477 35.5547C321.93 35.7891 321.32 35.9844 320.648 36.1406C319.977 36.2969 319.258 36.375 318.492 36.375C317.43 36.375 316.57 36.2422 315.914 35.9766C315.273 35.7109 314.766 35.3828 314.391 34.9922C314.031 34.6016 313.766 34.1875 313.594 33.75C313.438 33.3125 313.312 32.9297 313.219 32.6016L311.344 26.1094ZM306.797 10.2656C306.156 12.875 305.531 15.3281 304.922 17.625C304.328 19.9219 303.734 22.0625 303.141 24.0469H310.781L306.797 10.2656Z" fill="#747373"/>
<path d="M335.25 39.3984C335.875 39.3984 336.492 39.2812 337.102 39.0469C337.711 38.8281 338.25 38.4531 338.719 37.9219C339.203 37.4062 339.594 36.7266 339.891 35.8828C340.188 35.0391 340.336 34.0078 340.336 32.7891C340.336 31.4766 340.008 30.2031 339.352 28.9688C338.711 27.7344 337.898 26.5234 336.914 25.3359C335.945 24.1328 334.891 22.9453 333.75 21.7734C332.625 20.5859 331.57 19.3828 330.586 18.1641C329.617 16.9297 328.805 15.6641 328.148 14.3672C327.508 13.0547 327.188 11.6875 327.188 10.2656C327.188 8.84375 327.445 7.5625 327.961 6.42188C328.492 5.26562 329.203 4.28906 330.094 3.49219C331 2.67969 332.047 2.05469 333.234 1.61719C334.438 1.17969 335.719 0.960938 337.078 0.960938C338.531 0.960938 339.82 1.11719 340.945 1.42969C342.086 1.72656 343.047 2.14062 343.828 2.67188C344.625 3.1875 345.227 3.80469 345.633 4.52344C346.039 5.22656 346.242 5.97656 346.242 6.77344C346.242 7.14844 346.188 7.53906 346.078 7.94531C345.969 8.33594 345.797 8.69531 345.562 9.02344C345.328 9.35156 345.031 9.625 344.672 9.84375C344.312 10.0625 343.891 10.1719 343.406 10.1719C342.828 10.1719 342.398 10 342.117 9.65625C341.852 9.29688 341.648 8.85938 341.508 8.34375C341.383 7.82812 341.273 7.26562 341.18 6.65625C341.086 6.03125 340.938 5.46094 340.734 4.94531C340.531 4.42969 340.227 4 339.82 3.65625C339.414 3.29688 338.82 3.11719 338.039 3.11719C337.617 3.11719 337.195 3.21094 336.773 3.39844C336.367 3.58594 335.992 3.875 335.648 4.26562C335.32 4.64062 335.055 5.125 334.852 5.71875C334.648 6.3125 334.547 7.01562 334.547 7.82812C334.547 8.76562 334.742 9.67969 335.133 10.5703C335.523 11.4609 336.039 12.3438 336.68 13.2188C337.32 14.0781 338.047 14.9453 338.859 15.8203C339.688 16.6797 340.523 17.5547 341.367 18.4453C342.227 19.3203 343.062 20.2266 343.875 21.1641C344.703 22.0859 345.438 23.0469 346.078 24.0469C346.719 25.0469 347.234 26.0938 347.625 27.1875C348.016 28.2812 348.211 29.4297 348.211 30.6328C348.211 32.3984 347.867 33.9766 347.18 35.3672C346.508 36.7422 345.586 37.8984 344.414 38.8359C343.258 39.7891 341.898 40.5156 340.336 41.0156C338.773 41.5156 337.109 41.7656 335.344 41.7656C333.75 41.7656 332.336 41.5625 331.102 41.1562C329.883 40.7656 328.852 40.2422 328.008 39.5859C327.164 38.9297 326.523 38.1797 326.086 37.3359C325.664 36.5078 325.453 35.6484 325.453 34.7578C325.453 34.3828 325.508 33.9844 325.617 33.5625C325.742 33.125 325.914 32.7266 326.133 32.3672C326.367 32.0078 326.656 31.7109 327 31.4766C327.344 31.2266 327.742 31.1016 328.195 31.1016C328.664 31.1016 329.039 31.2188 329.32 31.4531C329.617 31.6875 329.852 32 330.023 32.3906C330.195 32.7812 330.336 33.2266 330.445 33.7266C330.555 34.2266 330.672 34.7344 330.797 35.25C330.922 35.7656 331.078 36.2734 331.266 36.7734C331.453 37.2734 331.711 37.7188 332.039 38.1094C332.367 38.5 332.789 38.8125 333.305 39.0469C333.82 39.2812 334.469 39.3984 335.25 39.3984Z" fill="#747373"/>
<path d="M367.266 36.375C365.953 36.375 364.984 36.1016 364.359 35.5547C363.734 35.0078 363.422 34.1328 363.422 32.9297V3.16406C362.922 3.21094 362.297 3.30469 361.547 3.44531C360.812 3.57031 360.039 3.75781 359.227 4.00781C358.414 4.25781 357.602 4.5625 356.789 4.92188C355.977 5.26562 355.25 5.67188 354.609 6.14062C353.969 6.59375 353.445 7.10938 353.039 7.6875C352.633 8.26562 352.43 8.90625 352.43 9.60938C352.43 10.1094 352.492 10.5078 352.617 10.8047C352.758 11.1016 352.914 11.3281 353.086 11.4844C353.258 11.625 353.43 11.7188 353.602 11.7656C353.789 11.7969 353.922 11.8125 354 11.8125C354.391 11.8125 354.711 11.75 354.961 11.625C355.211 11.4844 355.438 11.3438 355.641 11.2031C355.844 11.0469 356.031 10.9062 356.203 10.7812C356.391 10.6406 356.602 10.5703 356.836 10.5703C357.023 10.5703 357.219 10.6172 357.422 10.7109C357.641 10.7891 357.836 10.9219 358.008 11.1094C358.195 11.2969 358.352 11.5469 358.477 11.8594C358.602 12.1562 358.664 12.5234 358.664 12.9609C358.664 13.5859 358.539 14.125 358.289 14.5781C358.055 15.0312 357.742 15.4141 357.352 15.7266C356.977 16.0234 356.539 16.25 356.039 16.4062C355.555 16.5469 355.07 16.6172 354.586 16.6172C353.836 16.6172 353.156 16.4922 352.547 16.2422C351.953 15.9766 351.445 15.6172 351.023 15.1641C350.602 14.7109 350.281 14.1797 350.062 13.5703C349.844 12.9609 349.734 12.3125 349.734 11.625C349.734 9.79688 350.234 8.21875 351.234 6.89062C352.25 5.54688 353.633 4.4375 355.383 3.5625C357.133 2.67188 359.172 2.01562 361.5 1.59375C363.828 1.17188 366.32 0.960938 368.977 0.960938C370.242 0.960938 371.477 0.976562 372.68 1.00781C373.883 1.02344 374.977 1.05469 375.961 1.10156C376.961 1.14844 377.82 1.20312 378.539 1.26562C379.258 1.32812 379.781 1.39844 380.109 1.47656C380.422 1.55469 380.672 1.67188 380.859 1.82812C381.047 1.96875 381.188 2.13281 381.281 2.32031C381.375 2.50781 381.438 2.71094 381.469 2.92969C381.5 3.13281 381.516 3.34375 381.516 3.5625C381.516 3.73438 381.492 3.9375 381.445 4.17188C381.398 4.39062 381.328 4.60156 381.234 4.80469C381.141 5.00781 381.023 5.17969 380.883 5.32031C380.742 5.46094 380.57 5.53125 380.367 5.53125C380.242 5.53125 380.109 5.47656 379.969 5.36719C379.844 5.25781 379.664 5.125 379.43 4.96875C379.195 4.8125 378.875 4.63281 378.469 4.42969C378.078 4.22656 377.555 4.03906 376.898 3.86719C376.258 3.69531 375.461 3.53906 374.508 3.39844C373.57 3.25781 372.43 3.16406 371.086 3.11719V32.9297C371.086 34.1328 370.773 35.0078 370.148 35.5547C369.523 36.1016 368.562 36.375 367.266 36.375Z" fill="#747373"/>
<path d="M401.25 26.1094H392.414C391.758 28.1719 391.047 29.9609 390.281 31.4766C389.531 32.9922 388.695 34.25 387.773 35.25C386.852 36.25 385.836 36.9922 384.727 37.4766C383.633 37.9609 382.406 38.2031 381.047 38.2031C380.297 38.2031 379.578 38.1328 378.891 37.9922C378.188 37.8672 377.57 37.6875 377.039 37.4531C376.508 37.2188 376.086 36.9375 375.773 36.6094C375.445 36.2969 375.281 35.9531 375.281 35.5781C375.281 35.2969 375.328 35.0156 375.422 34.7344C375.5 34.4375 375.617 34.1719 375.773 33.9375C375.93 33.6875 376.125 33.4922 376.359 33.3516C376.578 33.1953 376.828 33.1172 377.109 33.1172C377.359 33.1172 377.578 33.2891 377.766 33.6328C377.953 33.9766 378.195 34.3594 378.492 34.7812C378.773 35.1875 379.141 35.5625 379.594 35.9062C380.047 36.25 380.672 36.4219 381.469 36.4219C382.281 36.4219 383.055 36.2266 383.789 35.8359C384.523 35.4453 385.227 34.8359 385.898 34.0078C386.586 33.1641 387.242 32.0938 387.867 30.7969C388.492 29.5 389.102 27.9375 389.695 26.1094H384.164V24.0469H390.305C390.82 22.2969 391.32 20.5312 391.805 18.75C392.305 16.9688 392.773 15.2578 393.211 13.6172C393.648 11.9766 394.039 10.4453 394.383 9.02344C394.727 7.58594 395.016 6.33594 395.25 5.27344C394.938 4.39844 394.508 3.8125 393.961 3.51562C393.43 3.21875 392.711 3.07031 391.805 3.07031C390.961 3.07031 390.086 3.20312 389.18 3.46875C388.289 3.71875 387.477 4.08594 386.742 4.57031C386.008 5.03906 385.398 5.625 384.914 6.32812C384.445 7.01562 384.211 7.78906 384.211 8.64844C384.211 9.14844 384.273 9.54688 384.398 9.84375C384.539 10.1406 384.695 10.3672 384.867 10.5234C385.055 10.6641 385.234 10.7578 385.406 10.8047C385.578 10.8359 385.711 10.8516 385.805 10.8516C386.18 10.8516 386.492 10.7891 386.742 10.6641C387.008 10.5234 387.234 10.3828 387.422 10.2422C387.625 10.0859 387.82 9.94531 388.008 9.82031C388.195 9.67969 388.406 9.60938 388.641 9.60938C388.812 9.60938 389 9.65625 389.203 9.75C389.422 9.82812 389.617 9.96094 389.789 10.1484C389.977 10.3359 390.133 10.5859 390.258 10.8984C390.383 11.1953 390.445 11.5625 390.445 12C390.445 12.625 390.32 13.1641 390.07 13.6172C389.836 14.0703 389.523 14.4531 389.133 14.7656C388.758 15.0625 388.32 15.2891 387.82 15.4453C387.336 15.5859 386.852 15.6562 386.367 15.6562C385.617 15.6562 384.938 15.5234 384.328 15.2578C383.734 14.9766 383.227 14.6016 382.805 14.1328C382.383 13.6641 382.062 13.1172 381.844 12.4922C381.625 11.8672 381.516 11.2109 381.516 10.5234C381.516 9.49219 381.688 8.54688 382.031 7.6875C382.375 6.8125 382.852 6.02344 383.461 5.32031C384.07 4.60156 384.789 3.97656 385.617 3.44531C386.445 2.89844 387.336 2.44531 388.289 2.08594C389.258 1.71094 390.266 1.42969 391.312 1.24219C392.359 1.05469 393.414 0.960938 394.477 0.960938C395.977 0.960938 397.242 1.08594 398.273 1.33594C399.32 1.57031 400.195 1.92969 400.898 2.41406C401.602 2.88281 402.164 3.48438 402.586 4.21875C403.023 4.9375 403.383 5.77344 403.664 6.72656L408.703 24.0469H413.789V26.1094H409.266L411.094 32.25C411.156 32.4844 411.219 32.7031 411.281 32.9062C411.344 33.1094 411.414 33.2891 411.492 33.4453C411.586 33.5859 411.695 33.7031 411.82 33.7969C411.961 33.8906 412.133 33.9375 412.336 33.9375C412.773 33.9375 413.18 33.8672 413.555 33.7266C413.93 33.5703 414.258 33.4141 414.539 33.2578L414.938 34.125C414.656 34.3281 414.297 34.5625 413.859 34.8281C413.438 35.0781 412.945 35.3203 412.383 35.5547C411.836 35.7891 411.227 35.9844 410.555 36.1406C409.883 36.2969 409.164 36.375 408.398 36.375C407.336 36.375 406.477 36.2422 405.82 35.9766C405.18 35.7109 404.672 35.3828 404.297 34.9922C403.938 34.6016 403.672 34.1875 403.5 33.75C403.344 33.3125 403.219 32.9297 403.125 32.6016L401.25 26.1094ZM396.703 10.2656C396.062 12.875 395.438 15.3281 394.828 17.625C394.234 19.9219 393.641 22.0625 393.047 24.0469H400.688L396.703 10.2656Z" fill="#747373"/>
<path d="M425.156 39.3984C425.781 39.3984 426.398 39.2812 427.008 39.0469C427.617 38.8281 428.156 38.4531 428.625 37.9219C429.109 37.4062 429.5 36.7266 429.797 35.8828C430.094 35.0391 430.242 34.0078 430.242 32.7891C430.242 31.4766 429.914 30.2031 429.258 28.9688C428.617 27.7344 427.805 26.5234 426.82 25.3359C425.852 24.1328 424.797 22.9453 423.656 21.7734C422.531 20.5859 421.477 19.3828 420.492 18.1641C419.523 16.9297 418.711 15.6641 418.055 14.3672C417.414 13.0547 417.094 11.6875 417.094 10.2656C417.094 8.84375 417.352 7.5625 417.867 6.42188C418.398 5.26562 419.109 4.28906 420 3.49219C420.906 2.67969 421.953 2.05469 423.141 1.61719C424.344 1.17969 425.625 0.960938 426.984 0.960938C428.438 0.960938 429.727 1.11719 430.852 1.42969C431.992 1.72656 432.953 2.14062 433.734 2.67188C434.531 3.1875 435.133 3.80469 435.539 4.52344C435.945 5.22656 436.148 5.97656 436.148 6.77344C436.148 7.14844 436.094 7.53906 435.984 7.94531C435.875 8.33594 435.703 8.69531 435.469 9.02344C435.234 9.35156 434.938 9.625 434.578 9.84375C434.219 10.0625 433.797 10.1719 433.312 10.1719C432.734 10.1719 432.305 10 432.023 9.65625C431.758 9.29688 431.555 8.85938 431.414 8.34375C431.289 7.82812 431.18 7.26562 431.086 6.65625C430.992 6.03125 430.844 5.46094 430.641 4.94531C430.438 4.42969 430.133 4 429.727 3.65625C429.32 3.29688 428.727 3.11719 427.945 3.11719C427.523 3.11719 427.102 3.21094 426.68 3.39844C426.273 3.58594 425.898 3.875 425.555 4.26562C425.227 4.64062 424.961 5.125 424.758 5.71875C424.555 6.3125 424.453 7.01562 424.453 7.82812C424.453 8.76562 424.648 9.67969 425.039 10.5703C425.43 11.4609 425.945 12.3438 426.586 13.2188C427.227 14.0781 427.953 14.9453 428.766 15.8203C429.594 16.6797 430.43 17.5547 431.273 18.4453C432.133 19.3203 432.969 20.2266 433.781 21.1641C434.609 22.0859 435.344 23.0469 435.984 24.0469C436.625 25.0469 437.141 26.0938 437.531 27.1875C437.922 28.2812 438.117 29.4297 438.117 30.6328C438.117 32.3984 437.773 33.9766 437.086 35.3672C436.414 36.7422 435.492 37.8984 434.32 38.8359C433.164 39.7891 431.805 40.5156 430.242 41.0156C428.68 41.5156 427.016 41.7656 425.25 41.7656C423.656 41.7656 422.242 41.5625 421.008 41.1562C419.789 40.7656 418.758 40.2422 417.914 39.5859C417.07 38.9297 416.43 38.1797 415.992 37.3359C415.57 36.5078 415.359 35.6484 415.359 34.7578C415.359 34.3828 415.414 33.9844 415.523 33.5625C415.648 33.125 415.82 32.7266 416.039 32.3672C416.273 32.0078 416.562 31.7109 416.906 31.4766C417.25 31.2266 417.648 31.1016 418.102 31.1016C418.57 31.1016 418.945 31.2188 419.227 31.4531C419.523 31.6875 419.758 32 419.93 32.3906C420.102 32.7812 420.242 33.2266 420.352 33.7266C420.461 34.2266 420.578 34.7344 420.703 35.25C420.828 35.7656 420.984 36.2734 421.172 36.7734C421.359 37.2734 421.617 37.7188 421.945 38.1094C422.273 38.5 422.695 38.8125 423.211 39.0469C423.727 39.2812 424.375 39.3984 425.156 39.3984Z" fill="#747373"/>
</svg>
