<svg width="421" height="33" viewBox="0 0 421 33" fill="none" xmlns="http://www.w3.org/2000/svg">
<path d="M5.42188 19.2188C5.26562 19.25 5.125 19.2656 5 19.2656L5.28125 23.4844C5.34375 24.4531 5.39062 25.4375 5.42188 26.4375C5.45312 27.4062 5.46875 28.3906 5.46875 29.3906C5.46875 29.9219 5.28125 30.3594 4.90625 30.7031C4.53125 31.0469 4.10938 31.2188 3.64062 31.2188C3.20312 31.2188 2.76562 31.0625 2.32812 30.75C1.92188 30.4688 1.6875 30 1.625 29.3438C1.625 26.4375 1.48438 23.5 1.20312 20.5312C0.953125 17.5312 0.828125 14.5938 0.828125 11.7188C0.828125 11.1562 0.8125 10.5312 0.78125 9.84375C0.78125 9.125 0.8125 8.4375 0.875 7.78125C0.9375 7.09375 1.04688 6.46875 1.20312 5.90625C1.39062 5.3125 1.67188 4.85938 2.04688 4.54688C3.14062 4.07812 4.25 3.70312 5.375 3.42188C6.53125 3.14062 7.70312 2.875 8.89062 2.625C10.0781 2.375 11.2812 2.14062 12.5 1.92188C13.7188 1.67188 14.9531 1.35938 16.2031 0.984375C16.8906 0.984375 17.4219 1.15625 17.7969 1.5C18.2031 1.84375 18.4062 2.28125 18.4062 2.8125C18.4062 3.5625 18.0312 4.20312 17.2812 4.73438C16.2188 5.04688 15.1562 5.3125 14.0938 5.53125C13.0625 5.71875 12.0312 5.90625 11 6.09375C9.96875 6.28125 8.9375 6.48438 7.90625 6.70312C6.90625 6.89062 5.89062 7.15625 4.85938 7.5C4.79688 8.125 4.75 8.76562 4.71875 9.42188C4.6875 10.0469 4.67188 10.6875 4.67188 11.3438V12.1406L4.8125 15.375C6.8125 14.875 8.9375 14.5469 11.1875 14.3906C13.4688 14.2031 15.75 14.1094 18.0312 14.1094C18.5625 14.2969 18.9844 14.5781 19.2969 14.9531C19.6094 15.2969 19.7656 15.6719 19.7656 16.0781C19.7656 16.5469 19.5938 16.9375 19.25 17.25C18.9062 17.5625 18.4688 17.7969 17.9375 17.9531C15.7812 17.9531 13.6719 18.0156 11.6094 18.1406C9.54688 18.2656 7.48438 18.625 5.42188 19.2188Z" fill="#747373"/>
<path d="M27.2656 30.2344C27.2656 30.7656 27.0625 31.2031 26.6562 31.5469C26.2812 31.8906 25.875 32.0625 25.4375 32.0625C25 32.0625 24.5625 31.9062 24.125 31.5938C23.7188 31.3125 23.4844 30.8438 23.4219 30.1875C23.4219 28.0938 23.4375 26.0156 23.4688 23.9531C23.5312 21.8906 23.5625 19.8125 23.5625 17.7188C23.5625 17.125 23.5156 16.1875 23.4219 14.9062C23.3594 13.5938 23.3281 12.2344 23.3281 10.8281C23.3281 9.32812 23.375 7.85938 23.4688 6.42188C23.5938 4.98438 23.875 3.73438 24.3125 2.67188L24.5938 2.20312L25.1094 1.78125C25.9531 1.46875 26.8281 1.3125 27.7344 1.3125C29.0156 1.3125 30.3906 1.45312 31.8594 1.73438C33.3281 1.98438 34.6875 2.4375 35.9375 3.09375C37.1875 3.75 38.2188 4.64062 39.0312 5.76562C39.875 6.85938 40.2969 8.26562 40.2969 9.98438C40.2969 10.7969 40.1719 11.5469 39.9219 12.2344C39.7031 12.9219 39.4062 13.5469 39.0312 14.1094C38.6875 14.6719 38.2812 15.1719 37.8125 15.6094C37.375 16.0469 36.9375 16.4062 36.5 16.6875C35.5938 17.2812 34.5938 17.75 33.5 18.0938C32.4062 18.4062 31.2656 18.7656 30.0781 19.1719L29.5156 19.3594C29.4531 19.3281 29.4219 19.3125 29.4219 19.3125C30.1719 19.8438 30.875 20.4062 31.5312 21C32.2188 21.5625 32.9062 22.125 33.5938 22.6875C34.3125 23.25 35.0469 23.7969 35.7969 24.3281C36.5781 24.8281 37.4219 25.2969 38.3281 25.7344C38.9219 26.2969 39.2188 26.8906 39.2188 27.5156C39.2188 28.0469 39.0312 28.4844 38.6562 28.8281C38.3125 29.1406 37.8906 29.2969 37.3906 29.2969C37.0156 29.2969 36.5781 29.1875 36.0781 28.9688C35.5781 28.75 35.0625 28.4844 34.5312 28.1719C34 27.8281 33.4531 27.4688 32.8906 27.0938C32.3594 26.7188 31.8594 26.375 31.3906 26.0625C30.5781 25.5312 29.8281 24.9844 29.1406 24.4219C28.4844 23.8594 27.8906 23.3125 27.3594 22.7812V23.7656C27.3594 24.7969 27.3281 25.8594 27.2656 26.9531C27.2344 28.0156 27.2344 29.1094 27.2656 30.2344ZM27.4062 15.8438C27.3438 15.9062 27.3125 15.9375 27.3125 15.9375C27.2812 15.9375 27.3594 15.9062 27.5469 15.8438C28.2344 15.6562 29.0781 15.4688 30.0781 15.2812C31.1094 15.0625 32.0938 14.7656 33.0312 14.3906C33.9688 13.9844 34.7656 13.4531 35.4219 12.7969C36.1094 12.1094 36.4531 11.1875 36.4531 10.0312C36.4531 9.09375 36.2656 8.35938 35.8906 7.82812C35.5469 7.29688 35.0781 6.89062 34.4844 6.60938C33.9219 6.29688 33.2812 6.07812 32.5625 5.95312C31.8438 5.79688 31.125 5.64062 30.4062 5.48438C30 5.39062 29.5469 5.3125 29.0469 5.25C28.5469 5.15625 28.125 5.10938 27.7812 5.10938C27.6562 5.10938 27.5625 5.3125 27.5 5.71875C27.4375 6.09375 27.3906 6.54688 27.3594 7.07812C27.3594 7.60938 27.3594 8.14062 27.3594 8.67188C27.3594 9.17188 27.3594 9.54688 27.3594 9.79688C27.3594 10.9531 27.3594 12.0469 27.3594 13.0781C27.3906 14.1094 27.4062 15.0312 27.4062 15.8438Z" fill="#747373"/>
<path d="M46.3906 29.7656C46.1094 29.3906 45.875 28.9375 45.6875 28.4062C45.5312 27.875 45.4062 27.3125 45.3125 26.7188C45.2188 26.125 45.1406 25.5156 45.0781 24.8906C45.0469 24.2656 45.0156 23.6719 44.9844 23.1094L44.7031 17.4844C44.6094 16.5781 44.5312 15.8906 44.4688 15.4219C44.4375 14.9531 44.3906 14.4844 44.3281 14.0156C44.2969 13.5156 44.2656 12.9219 44.2344 12.2344C44.2344 11.5156 44.2344 10.4688 44.2344 9.09375C44.2344 8.625 44.2188 8.17188 44.1875 7.73438C44.1875 7.29688 44.1875 6.85938 44.1875 6.42188C44.1875 5.29688 44.4688 4.53125 45.0312 4.125C45.625 3.6875 46.375 3.46875 47.2812 3.46875C47.8125 3.46875 48.375 3.5 48.9688 3.5625C49.5625 3.59375 50.1562 3.60938 50.75 3.60938C51.8438 3.60938 52.9219 3.46875 53.9844 3.1875C55.0469 2.875 56.0781 2.625 57.0781 2.4375C57.7031 2.4375 58.2344 2.60938 58.6719 2.95312C59.1094 3.26562 59.3281 3.65625 59.3281 4.125C59.3281 4.5625 59.1875 5 58.9062 5.4375C58.625 5.84375 58.1719 6.10938 57.5469 6.23438C56.3281 6.48438 55.0781 6.76562 53.7969 7.07812C52.5156 7.39062 51.2188 7.54688 49.9062 7.54688C49.5625 7.54688 49.2188 7.54688 48.875 7.54688C48.5312 7.54688 48.2344 7.51562 47.9844 7.45312C48.0156 8.64062 48.0469 9.78125 48.0781 10.875C48.1094 11.9688 48.1562 13.0312 48.2188 14.0625H48.2656C50.6406 13.8125 52.875 13.6719 54.9688 13.6406C57.0625 13.5781 59.2812 13.5469 61.625 13.5469C62.7812 13.8594 63.3594 14.5 63.3594 15.4688C63.3594 15.9062 63.1875 16.3125 62.8438 16.6875C62.5312 17.0312 62.0938 17.25 61.5312 17.3438C61.2812 17.3438 60.7812 17.3438 60.0312 17.3438C59.3125 17.3438 58.4688 17.3594 57.5 17.3906C56.5312 17.3906 55.5156 17.4062 54.4531 17.4375C53.3906 17.4375 52.4062 17.4688 51.5 17.5312C50.625 17.5625 49.8906 17.6094 49.2969 17.6719C48.7344 17.7344 48.4531 17.8125 48.4531 17.9062C48.4531 19.3125 48.5312 20.7188 48.6875 22.125C48.875 23.5 49.0312 24.8594 49.1562 26.2031C50 25.8906 50.9219 25.625 51.9219 25.4062C52.9219 25.1562 53.9531 24.9688 55.0156 24.8438C56.1094 24.7188 57.2188 24.625 58.3438 24.5625C59.4688 24.5 60.5625 24.4688 61.625 24.4688C62.25 24.7188 62.6875 25.0156 62.9375 25.3594C63.2188 25.6719 63.3594 26.0312 63.3594 26.4375C63.3594 26.875 63.1875 27.2812 62.8438 27.6562C62.5312 28 62.0938 28.2188 61.5312 28.3125C60.0938 28.3125 58.5938 28.4219 57.0312 28.6406C55.4688 28.8281 54.0156 29.0625 52.6719 29.3438C51.3594 29.5938 50.2344 29.8125 49.2969 30C48.3594 30.2188 47.7969 30.3281 47.6094 30.3281C47.4531 30.3281 47.2656 30.2656 47.0469 30.1406C46.8594 30.0469 46.6406 29.9219 46.3906 29.7656Z" fill="#747373"/>
<path d="M83.1406 3.5625C83.4219 4.09375 83.5625 4.59375 83.5625 5.0625C83.5625 5.5 83.375 5.89062 83 6.23438C82.6562 6.54688 82.2031 6.70312 81.6406 6.70312C81.2656 6.70312 80.9219 6.625 80.6094 6.46875C79.3906 5.4375 78.0625 4.92188 76.625 4.92188C75 4.92188 73.625 5.57812 72.5 6.89062C72.4688 7.01562 72.4219 7.15625 72.3594 7.3125C72.3281 7.46875 72.2812 7.60938 72.2188 7.73438C72.2188 9.04688 72.5625 10.1406 73.25 11.0156C73.9375 11.8594 74.7969 12.625 75.8281 13.3125C76.8594 13.9688 77.9688 14.5938 79.1562 15.1875C80.3438 15.7812 81.4531 16.4688 82.4844 17.25C83.5156 18.0312 84.375 18.9844 85.0625 20.1094C85.75 21.2031 86.0938 22.5781 86.0938 24.2344C86.0938 25.6094 85.7656 26.7656 85.1094 27.7031C84.4844 28.6406 83.6875 29.4062 82.7188 30C81.75 30.5625 80.7188 30.9688 79.625 31.2188C78.5312 31.5 77.5156 31.6406 76.5781 31.6406C74.9531 31.6406 73.3594 31.2969 71.7969 30.6094C70.2344 29.9531 68.875 28.9531 67.7188 27.6094C67.4688 27.2656 67.2188 26.8281 66.9688 26.2969C66.7188 25.7656 66.5938 25.25 66.5938 24.75C66.5938 24.2188 66.75 23.7656 67.0625 23.3906C67.4062 22.9844 67.8906 22.7812 68.5156 22.7812C69.1094 22.7812 69.5781 23.0469 69.9219 23.5781C70.2969 24.0781 70.625 24.7031 70.9062 25.4531C71.7188 26.2656 72.5938 26.875 73.5312 27.2812C74.4688 27.6562 75.4375 27.8438 76.4375 27.8438C76.8125 27.8438 77.2812 27.8125 77.8438 27.75C78.4062 27.6562 78.9531 27.5156 79.4844 27.3281C80.0469 27.1406 80.5469 26.9062 80.9844 26.625C81.4531 26.3125 81.7812 25.9375 81.9688 25.5C82.0312 25.25 82.0781 25.0469 82.1094 24.8906C82.1719 24.7031 82.2344 24.5312 82.2969 24.375C82.1094 23.3125 81.7188 22.3906 81.125 21.6094C80.5625 20.8281 79.8906 20.1406 79.1094 19.5469C78.3281 18.9531 77.5 18.4375 76.625 18C75.7812 17.5625 75 17.1406 74.2812 16.7344C73 16.0156 71.8438 15.1562 70.8125 14.1562C69.7812 13.125 69 11.6406 68.4688 9.70312C68.3125 9.14062 68.2344 8.60938 68.2344 8.10938C68.2344 7.04688 68.5 6.07812 69.0312 5.20312C69.5625 4.32812 70.25 3.59375 71.0938 3C71.9375 2.375 72.8906 1.89062 73.9531 1.54688C75.0156 1.20312 76.0938 1.03125 77.1875 1.03125C78.4688 1.03125 79.5781 1.26562 80.5156 1.73438C81.4531 2.17188 82.3281 2.78125 83.1406 3.5625Z" fill="#747373"/>
<path d="M106.391 20.5781C106.453 20.2656 106.484 20.125 106.484 20.1562C106.109 20.5312 105.766 20.7344 105.453 20.7656H99.3594C97.5469 20.7656 95.8281 20.7188 94.2031 20.625C94.2656 21.9375 94.3125 23.2812 94.3438 24.6562C94.375 26.0312 94.3906 27.4531 94.3906 28.9219C94.3906 29.4531 94.2031 29.875 93.8281 30.1875C93.4531 30.5312 93.0469 30.7031 92.6094 30.7031C92.1719 30.7031 91.7188 30.5625 91.25 30.2812C90.8125 30 90.5938 29.5156 90.5938 28.8281C90.5938 24.9531 90.4688 21.1406 90.2188 17.3906C89.9688 13.6094 89.7812 9.76562 89.6562 5.85938C89.8125 5.29688 90.0469 4.875 90.3594 4.59375C90.6719 4.3125 91.0625 4.14062 91.5312 4.07812C92.4375 4.07812 93.0938 4.64062 93.5 5.76562C93.5625 7.67188 93.625 9.54688 93.6875 11.3906C93.7812 13.2031 93.8906 15 94.0156 16.7812C95.7344 16.875 97.5625 16.9219 99.5 16.9219H105.547C105.859 17.0469 106.156 17.2812 106.438 17.625C106.469 17.625 106.484 17.5312 106.484 17.3438V16.9688C106.516 16.2188 106.531 15.3438 106.531 14.3438C106.562 13.3125 106.594 12.2188 106.625 11.0625C106.688 9.875 106.75 8.67188 106.812 7.45312C106.906 6.20312 107 5.01562 107.094 3.89062C107.25 3.32812 107.516 2.90625 107.891 2.625C108.297 2.3125 108.688 2.15625 109.062 2.15625C109.562 2.15625 109.984 2.35938 110.328 2.76562C110.703 3.14062 110.891 3.65625 110.891 4.3125C110.703 6.875 110.562 9.40625 110.469 11.9062C110.406 14.4062 110.328 16.9844 110.234 19.6406L109.953 24.8438C109.922 25.25 109.891 25.8281 109.859 26.5781C109.828 27.2969 109.734 28.0156 109.578 28.7344C109.422 29.4219 109.172 30.0312 108.828 30.5625C108.516 31.0938 108.031 31.3594 107.375 31.3594C106.906 31.3594 106.484 31.1875 106.109 30.8438C105.734 30.5312 105.547 30.0312 105.547 29.3438C105.547 29.125 105.562 28.9688 105.594 28.875C105.719 28.3125 105.812 27.5938 105.875 26.7188C105.969 25.8125 106.047 24.9375 106.109 24.0938C106.203 23.2188 106.266 22.4531 106.297 21.7969C106.328 21.1094 106.359 20.7031 106.391 20.5781Z" fill="#747373"/>
<path d="M132.125 19.2188C131.969 19.25 131.828 19.2656 131.703 19.2656L131.984 23.4844C132.047 24.4531 132.094 25.4375 132.125 26.4375C132.156 27.4062 132.172 28.3906 132.172 29.3906C132.172 29.9219 131.984 30.3594 131.609 30.7031C131.234 31.0469 130.812 31.2188 130.344 31.2188C129.906 31.2188 129.469 31.0625 129.031 30.75C128.625 30.4688 128.391 30 128.328 29.3438C128.328 26.4375 128.188 23.5 127.906 20.5312C127.656 17.5312 127.531 14.5938 127.531 11.7188C127.531 11.1562 127.516 10.5312 127.484 9.84375C127.484 9.125 127.516 8.4375 127.578 7.78125C127.641 7.09375 127.75 6.46875 127.906 5.90625C128.094 5.3125 128.375 4.85938 128.75 4.54688C129.844 4.07812 130.953 3.70312 132.078 3.42188C133.234 3.14062 134.406 2.875 135.594 2.625C136.781 2.375 137.984 2.14062 139.203 1.92188C140.422 1.67188 141.656 1.35938 142.906 0.984375C143.594 0.984375 144.125 1.15625 144.5 1.5C144.906 1.84375 145.109 2.28125 145.109 2.8125C145.109 3.5625 144.734 4.20312 143.984 4.73438C142.922 5.04688 141.859 5.3125 140.797 5.53125C139.766 5.71875 138.734 5.90625 137.703 6.09375C136.672 6.28125 135.641 6.48438 134.609 6.70312C133.609 6.89062 132.594 7.15625 131.562 7.5C131.5 8.125 131.453 8.76562 131.422 9.42188C131.391 10.0469 131.375 10.6875 131.375 11.3438V12.1406L131.516 15.375C133.516 14.875 135.641 14.5469 137.891 14.3906C140.172 14.2031 142.453 14.1094 144.734 14.1094C145.266 14.2969 145.688 14.5781 146 14.9531C146.312 15.2969 146.469 15.6719 146.469 16.0781C146.469 16.5469 146.297 16.9375 145.953 17.25C145.609 17.5625 145.172 17.7969 144.641 17.9531C142.484 17.9531 140.375 18.0156 138.312 18.1406C136.25 18.2656 134.188 18.625 132.125 19.2188Z" fill="#747373"/>
<path d="M153.969 30.2344C153.969 30.7656 153.766 31.2031 153.359 31.5469C152.984 31.8906 152.578 32.0625 152.141 32.0625C151.703 32.0625 151.266 31.9062 150.828 31.5938C150.422 31.3125 150.188 30.8438 150.125 30.1875C150.125 28.0938 150.141 26.0156 150.172 23.9531C150.234 21.8906 150.266 19.8125 150.266 17.7188C150.266 17.125 150.219 16.1875 150.125 14.9062C150.062 13.5938 150.031 12.2344 150.031 10.8281C150.031 9.32812 150.078 7.85938 150.172 6.42188C150.297 4.98438 150.578 3.73438 151.016 2.67188L151.297 2.20312L151.812 1.78125C152.656 1.46875 153.531 1.3125 154.438 1.3125C155.719 1.3125 157.094 1.45312 158.562 1.73438C160.031 1.98438 161.391 2.4375 162.641 3.09375C163.891 3.75 164.922 4.64062 165.734 5.76562C166.578 6.85938 167 8.26562 167 9.98438C167 10.7969 166.875 11.5469 166.625 12.2344C166.406 12.9219 166.109 13.5469 165.734 14.1094C165.391 14.6719 164.984 15.1719 164.516 15.6094C164.078 16.0469 163.641 16.4062 163.203 16.6875C162.297 17.2812 161.297 17.75 160.203 18.0938C159.109 18.4062 157.969 18.7656 156.781 19.1719L156.219 19.3594C156.156 19.3281 156.125 19.3125 156.125 19.3125C156.875 19.8438 157.578 20.4062 158.234 21C158.922 21.5625 159.609 22.125 160.297 22.6875C161.016 23.25 161.75 23.7969 162.5 24.3281C163.281 24.8281 164.125 25.2969 165.031 25.7344C165.625 26.2969 165.922 26.8906 165.922 27.5156C165.922 28.0469 165.734 28.4844 165.359 28.8281C165.016 29.1406 164.594 29.2969 164.094 29.2969C163.719 29.2969 163.281 29.1875 162.781 28.9688C162.281 28.75 161.766 28.4844 161.234 28.1719C160.703 27.8281 160.156 27.4688 159.594 27.0938C159.062 26.7188 158.562 26.375 158.094 26.0625C157.281 25.5312 156.531 24.9844 155.844 24.4219C155.188 23.8594 154.594 23.3125 154.062 22.7812V23.7656C154.062 24.7969 154.031 25.8594 153.969 26.9531C153.938 28.0156 153.938 29.1094 153.969 30.2344ZM154.109 15.8438C154.047 15.9062 154.016 15.9375 154.016 15.9375C153.984 15.9375 154.062 15.9062 154.25 15.8438C154.938 15.6562 155.781 15.4688 156.781 15.2812C157.812 15.0625 158.797 14.7656 159.734 14.3906C160.672 13.9844 161.469 13.4531 162.125 12.7969C162.812 12.1094 163.156 11.1875 163.156 10.0312C163.156 9.09375 162.969 8.35938 162.594 7.82812C162.25 7.29688 161.781 6.89062 161.188 6.60938C160.625 6.29688 159.984 6.07812 159.266 5.95312C158.547 5.79688 157.828 5.64062 157.109 5.48438C156.703 5.39062 156.25 5.3125 155.75 5.25C155.25 5.15625 154.828 5.10938 154.484 5.10938C154.359 5.10938 154.266 5.3125 154.203 5.71875C154.141 6.09375 154.094 6.54688 154.062 7.07812C154.062 7.60938 154.062 8.14062 154.062 8.67188C154.062 9.17188 154.062 9.54688 154.062 9.79688C154.062 10.9531 154.062 12.0469 154.062 13.0781C154.094 14.1094 154.109 15.0312 154.109 15.8438Z" fill="#747373"/>
<path d="M170.328 4.5C170.297 4.40625 170.281 4.28125 170.281 4.125C170.281 3.53125 170.469 3.0625 170.844 2.71875C171.219 2.34375 171.625 2.15625 172.062 2.15625C172.469 2.15625 172.875 2.28125 173.281 2.53125C173.688 2.78125 173.953 3.1875 174.078 3.75C174.516 5.71875 174.984 7.64062 175.484 9.51562C176.016 11.3594 176.578 13.2812 177.172 15.2812C177.359 16.1875 177.562 17.1562 177.781 18.1875C178 19.2188 178.25 20.25 178.531 21.2812C178.812 22.2812 179.141 23.25 179.516 24.1875C179.891 25.0938 180.312 25.875 180.781 26.5312C181.156 26.8125 181.609 26.9531 182.141 26.9531C183.578 26.9531 184.766 26.5 185.703 25.5938C186.641 24.6875 187.375 23.6094 187.906 22.3594C188.438 21.0781 188.797 19.75 188.984 18.375C189.203 17 189.312 15.8438 189.312 14.9062V10.8281C189.312 9.79688 189.281 8.76562 189.219 7.73438C189.156 6.67188 189.141 5.625 189.172 4.59375C189.266 4.03125 189.484 3.59375 189.828 3.28125C190.203 2.9375 190.609 2.76562 191.047 2.76562C191.453 2.76562 191.828 2.90625 192.172 3.1875C192.547 3.4375 192.828 3.875 193.016 4.5C193.016 5.96875 193.047 7.42188 193.109 8.85938C193.203 10.2656 193.25 11.6875 193.25 13.125C193.25 14.7812 193.125 16.5469 192.875 18.4219C192.656 20.2969 192.188 22.0781 191.469 23.7656C190.75 25.4219 189.734 26.8906 188.422 28.1719C187.141 29.4219 185.438 30.25 183.312 30.6562C183.125 30.6875 182.922 30.7031 182.703 30.7031C182.516 30.7031 182.312 30.7031 182.094 30.7031C180.938 30.7031 179.953 30.4688 179.141 30C178.328 29.5 177.641 28.8438 177.078 28.0312C176.516 27.2188 176.047 26.2969 175.672 25.2656C175.297 24.2344 174.969 23.1719 174.688 22.0781C174.438 20.9844 174.219 19.9219 174.031 18.8906C173.844 17.8281 173.641 16.8594 173.422 15.9844C172.953 14.1094 172.406 12.2031 171.781 10.2656C171.188 8.32812 170.703 6.40625 170.328 4.5Z" fill="#747373"/>
<path d="M199.953 30.7031C199.266 30.6719 198.781 30.4375 198.5 30C198.219 29.5625 198.078 29.125 198.078 28.6875C198.078 28.25 198.25 27.8438 198.594 27.4688C198.938 27.0938 199.422 26.9062 200.047 26.9062L203.75 26.7188L203.703 26.1562C203.703 24.7188 203.688 23.4688 203.656 22.4062C203.656 21.3125 203.641 20.3125 203.609 19.4062C203.578 18.4688 203.547 17.5938 203.516 16.7812C203.484 15.9375 203.438 15.0625 203.375 14.1562C203.344 13.2188 203.312 12.2031 203.281 11.1094C203.25 10.0156 203.219 8.75 203.188 7.3125C203.188 7.1875 203.188 7.09375 203.188 7.03125C203.219 6.96875 203.234 6.90625 203.234 6.84375C203.234 6.78125 203.219 6.75 203.188 6.75C202.719 6.78125 202.188 6.79688 201.594 6.79688C201.031 6.79688 200.391 6.79688 199.672 6.79688C198.984 6.73438 198.5 6.5 198.219 6.09375C197.938 5.65625 197.797 5.20312 197.797 4.73438C197.797 4.29688 197.969 3.89062 198.312 3.51562C198.656 3.14062 199.094 2.95312 199.625 2.95312C201.406 2.95312 203.109 2.92188 204.734 2.85938C206.359 2.76562 208.016 2.71875 209.703 2.71875C210.234 2.90625 210.656 3.17188 210.969 3.51562C211.281 3.85938 211.438 4.21875 211.438 4.59375C211.438 5.1875 211.25 5.625 210.875 5.90625C210.531 6.15625 210.109 6.34375 209.609 6.46875C209.141 6.5625 208.641 6.60938 208.109 6.60938C207.609 6.57812 207.203 6.57812 206.891 6.60938H206.844C206.844 6.67188 206.859 6.75 206.891 6.84375C206.922 6.90625 206.969 7.01562 207.031 7.17188C207.062 8.60938 207.094 9.875 207.125 10.9688C207.156 12.0625 207.188 13.0781 207.219 14.0156C207.281 14.9219 207.328 15.7969 207.359 16.6406C207.391 17.4844 207.422 18.375 207.453 19.3125C207.484 20.2188 207.5 21.2344 207.5 22.3594C207.531 23.4531 207.547 24.7188 207.547 26.1562V26.4844C208.172 26.4531 208.812 26.4375 209.469 26.4375C210.156 26.4062 210.875 26.3906 211.625 26.3906C212.156 26.5469 212.562 26.7969 212.844 27.1406C213.156 27.4844 213.312 27.8594 213.312 28.2656C213.25 28.7031 213.078 29.1094 212.797 29.4844C212.516 29.8281 212.094 30.0625 211.531 30.1875C209.562 30.1875 207.625 30.25 205.719 30.375C203.844 30.5 201.922 30.6094 199.953 30.7031Z" fill="#747373"/>
<path d="M230.75 7.45312C230.656 10.7969 230.609 14.25 230.609 17.8125V28.7812C230.609 29.3438 230.406 29.7969 230 30.1406C229.625 30.4844 229.219 30.6562 228.781 30.6562C228.344 30.6562 227.906 30.5 227.469 30.1875C227.062 29.9062 226.828 29.4062 226.766 28.6875V17.9062C226.766 14.4375 226.812 11.0781 226.906 7.82812C225.406 7.98438 224.062 8.125 222.875 8.25C221.688 8.34375 220.641 8.45312 219.734 8.57812C219.109 8.51562 218.625 8.29688 218.281 7.92188C217.969 7.54688 217.812 7.09375 217.812 6.5625C217.812 5.96875 218.094 5.51562 218.656 5.20312C219.219 4.89062 219.969 4.65625 220.906 4.5C221.844 4.3125 222.922 4.1875 224.141 4.125C225.391 4.0625 226.703 3.96875 228.078 3.84375C229.984 3.6875 231.672 3.5625 233.141 3.46875C234.609 3.375 235.875 3.32812 236.938 3.32812C238.062 3.73438 238.625 4.35938 238.625 5.20312C238.531 5.85938 238.25 6.32812 237.781 6.60938C237.344 6.89062 236.766 7.07812 236.047 7.17188C235.359 7.26562 234.562 7.3125 233.656 7.3125C232.75 7.3125 231.781 7.35938 230.75 7.45312Z" fill="#747373"/>
<path d="M258.594 3.5625C258.875 4.09375 259.016 4.59375 259.016 5.0625C259.016 5.5 258.828 5.89062 258.453 6.23438C258.109 6.54688 257.656 6.70312 257.094 6.70312C256.719 6.70312 256.375 6.625 256.062 6.46875C254.844 5.4375 253.516 4.92188 252.078 4.92188C250.453 4.92188 249.078 5.57812 247.953 6.89062C247.922 7.01562 247.875 7.15625 247.812 7.3125C247.781 7.46875 247.734 7.60938 247.672 7.73438C247.672 9.04688 248.016 10.1406 248.703 11.0156C249.391 11.8594 250.25 12.625 251.281 13.3125C252.312 13.9688 253.422 14.5938 254.609 15.1875C255.797 15.7812 256.906 16.4688 257.938 17.25C258.969 18.0312 259.828 18.9844 260.516 20.1094C261.203 21.2031 261.547 22.5781 261.547 24.2344C261.547 25.6094 261.219 26.7656 260.562 27.7031C259.938 28.6406 259.141 29.4062 258.172 30C257.203 30.5625 256.172 30.9688 255.078 31.2188C253.984 31.5 252.969 31.6406 252.031 31.6406C250.406 31.6406 248.812 31.2969 247.25 30.6094C245.688 29.9531 244.328 28.9531 243.172 27.6094C242.922 27.2656 242.672 26.8281 242.422 26.2969C242.172 25.7656 242.047 25.25 242.047 24.75C242.047 24.2188 242.203 23.7656 242.516 23.3906C242.859 22.9844 243.344 22.7812 243.969 22.7812C244.562 22.7812 245.031 23.0469 245.375 23.5781C245.75 24.0781 246.078 24.7031 246.359 25.4531C247.172 26.2656 248.047 26.875 248.984 27.2812C249.922 27.6562 250.891 27.8438 251.891 27.8438C252.266 27.8438 252.734 27.8125 253.297 27.75C253.859 27.6562 254.406 27.5156 254.938 27.3281C255.5 27.1406 256 26.9062 256.438 26.625C256.906 26.3125 257.234 25.9375 257.422 25.5C257.484 25.25 257.531 25.0469 257.562 24.8906C257.625 24.7031 257.688 24.5312 257.75 24.375C257.562 23.3125 257.172 22.3906 256.578 21.6094C256.016 20.8281 255.344 20.1406 254.562 19.5469C253.781 18.9531 252.953 18.4375 252.078 18C251.234 17.5625 250.453 17.1406 249.734 16.7344C248.453 16.0156 247.297 15.1562 246.266 14.1562C245.234 13.125 244.453 11.6406 243.922 9.70312C243.766 9.14062 243.688 8.60938 243.688 8.10938C243.688 7.04688 243.953 6.07812 244.484 5.20312C245.016 4.32812 245.703 3.59375 246.547 3C247.391 2.375 248.344 1.89062 249.406 1.54688C250.469 1.20312 251.547 1.03125 252.641 1.03125C253.922 1.03125 255.031 1.26562 255.969 1.73438C256.906 2.17188 257.781 2.78125 258.594 3.5625Z" fill="#747373"/>
<path d="M282.453 19.2188C282.297 19.25 282.156 19.2656 282.031 19.2656L282.312 23.4844C282.375 24.4531 282.422 25.4375 282.453 26.4375C282.484 27.4062 282.5 28.3906 282.5 29.3906C282.5 29.9219 282.312 30.3594 281.938 30.7031C281.562 31.0469 281.141 31.2188 280.672 31.2188C280.234 31.2188 279.797 31.0625 279.359 30.75C278.953 30.4688 278.719 30 278.656 29.3438C278.656 26.4375 278.516 23.5 278.234 20.5312C277.984 17.5312 277.859 14.5938 277.859 11.7188C277.859 11.1562 277.844 10.5312 277.812 9.84375C277.812 9.125 277.844 8.4375 277.906 7.78125C277.969 7.09375 278.078 6.46875 278.234 5.90625C278.422 5.3125 278.703 4.85938 279.078 4.54688C280.172 4.07812 281.281 3.70312 282.406 3.42188C283.562 3.14062 284.734 2.875 285.922 2.625C287.109 2.375 288.312 2.14062 289.531 1.92188C290.75 1.67188 291.984 1.35938 293.234 0.984375C293.922 0.984375 294.453 1.15625 294.828 1.5C295.234 1.84375 295.438 2.28125 295.438 2.8125C295.438 3.5625 295.062 4.20312 294.312 4.73438C293.25 5.04688 292.188 5.3125 291.125 5.53125C290.094 5.71875 289.062 5.90625 288.031 6.09375C287 6.28125 285.969 6.48438 284.938 6.70312C283.938 6.89062 282.922 7.15625 281.891 7.5C281.828 8.125 281.781 8.76562 281.75 9.42188C281.719 10.0469 281.703 10.6875 281.703 11.3438V12.1406L281.844 15.375C283.844 14.875 285.969 14.5469 288.219 14.3906C290.5 14.2031 292.781 14.1094 295.062 14.1094C295.594 14.2969 296.016 14.5781 296.328 14.9531C296.641 15.2969 296.797 15.6719 296.797 16.0781C296.797 16.5469 296.625 16.9375 296.281 17.25C295.938 17.5625 295.5 17.7969 294.969 17.9531C292.812 17.9531 290.703 18.0156 288.641 18.1406C286.578 18.2656 284.516 18.625 282.453 19.2188Z" fill="#747373"/>
<path d="M306.078 21.0938C305.922 21.0625 305.781 21.0469 305.656 21.0469C305.594 21.0469 305.438 21.2812 305.188 21.75C304.938 22.1875 304.641 22.7031 304.297 23.2969C303.984 23.8594 303.672 24.4375 303.359 25.0312C303.047 25.5938 302.812 26 302.656 26.25C302.156 26.8438 301.594 27.1406 300.969 27.1406C300.5 27.1406 300.094 26.9844 299.75 26.6719C299.406 26.3281 299.234 25.8438 299.234 25.2188C299.234 24.9688 299.25 24.7656 299.281 24.6094C300.312 22.7969 301.297 21.0156 302.234 19.2656C303.172 17.5156 304.141 15.7812 305.141 14.0625C306.172 12.3438 307.25 10.6719 308.375 9.04688C309.5 7.39062 310.766 5.78125 312.172 4.21875C312.391 3.96875 312.625 3.8125 312.875 3.75C313.125 3.65625 313.359 3.59375 313.578 3.5625C314.047 3.5625 314.438 3.73438 314.75 4.07812C315.094 4.42188 315.297 4.84375 315.359 5.34375C315.266 5.6875 315.156 5.92188 315.031 6.04688L315.406 5.85938C315.812 5.85938 316.234 5.96875 316.672 6.1875C317.141 6.40625 317.469 6.82812 317.656 7.45312C317.906 9.20312 318.203 10.9062 318.547 12.5625C318.891 14.1875 319.219 15.8281 319.531 17.4844C319.875 19.1094 320.172 20.75 320.422 22.4062C320.703 24.0625 320.875 25.7812 320.938 27.5625C320.938 28.1875 320.75 28.6719 320.375 29.0156C320 29.3281 319.594 29.4844 319.156 29.4844C318.688 29.4844 318.234 29.3438 317.797 29.0625C317.391 28.7812 317.156 28.2969 317.094 27.6094C317.031 25.4219 316.844 23.3594 316.531 21.4219C316.469 21.4844 316.297 21.5312 316.016 21.5625C314.328 21.5625 312.641 21.4844 310.953 21.3281C309.297 21.1719 307.672 21.0938 306.078 21.0938ZM307.719 17.3438C308.844 17.4062 310.156 17.4844 311.656 17.5781C313.156 17.6719 314.531 17.7188 315.781 17.7188H315.828L315.781 17.4844C315.688 17.1719 315.578 16.7188 315.453 16.125C315.328 15.5312 315.188 14.8906 315.031 14.2031C314.906 13.5156 314.766 12.8125 314.609 12.0938C314.484 11.3438 314.359 10.6719 314.234 10.0781C314.109 9.48438 314 9 313.906 8.625C313.844 8.25 313.812 8.0625 313.812 8.0625C313.531 8.3125 313.141 8.76562 312.641 9.42188C312.203 9.98438 311.641 10.8125 310.953 11.9062C310.266 12.9688 309.406 14.4219 308.375 16.2656L307.719 17.3438Z" fill="#747373"/>
<path d="M341.891 6.09375L343.062 4.35938C343.531 3.95312 343.859 3.71875 344.047 3.65625C344.266 3.5625 344.531 3.51562 344.844 3.51562H345.172L345.828 3.70312L346.25 4.07812C346.562 4.35938 346.828 4.8125 347.047 5.4375C347.266 6.03125 347.453 6.67188 347.609 7.35938C347.766 8.04688 347.891 8.71875 347.984 9.375C348.078 10 348.172 10.5 348.266 10.875C348.484 11.9062 348.656 12.7812 348.781 13.5C348.906 14.2188 349.016 14.8906 349.109 15.5156C349.203 16.1406 349.297 16.8125 349.391 17.5312C349.516 18.25 349.688 19.125 349.906 20.1562C350.156 21.4375 350.375 22.6719 350.562 23.8594C350.781 25.0156 350.891 26.2188 350.891 27.4688C350.891 28.5938 350.688 29.3438 350.281 29.7188C349.875 30.0938 349.359 30.2812 348.734 30.2812C348.266 30.2188 347.875 30.0312 347.562 29.7188C347.25 29.4062 347.078 28.9688 347.047 28.4062C347.078 28.1562 347.094 27.9219 347.094 27.7031C347.125 27.4844 347.141 27.25 347.141 27C347.141 25.7812 347 24.6094 346.719 23.4844C346.469 22.3281 346.219 21.125 345.969 19.875C345.531 17.625 345.188 15.6875 344.938 14.0625C344.719 12.4375 344.422 10.9062 344.047 9.46875L343.812 9.79688C343.219 10.6719 342.625 11.5938 342.031 12.5625C341.438 13.5 340.859 14.4375 340.297 15.375C339.766 16.3125 339.25 17.2031 338.75 18.0469C338.281 18.8906 337.859 19.6406 337.484 20.2969C336.922 20.9531 336.375 21.2812 335.844 21.2812C335.344 21.2812 334.859 21.0312 334.391 20.5312C333.953 20 333.531 19.3438 333.125 18.5625C332.719 17.7812 332.344 16.9531 332 16.0781C331.688 15.1719 331.406 14.3594 331.156 13.6406L329.703 10.2188C329.453 11.4062 329.25 12.6875 329.094 14.0625C328.969 15.4062 328.875 16.8125 328.812 18.2812C328.75 19.7188 328.703 21.1875 328.672 22.6875C328.672 24.1875 328.672 25.6719 328.672 27.1406C328.672 27.7031 328.469 28.1562 328.062 28.5C327.656 28.8438 327.234 29.0156 326.797 29.0156C326.234 29.0156 325.812 28.875 325.531 28.5938C325.281 28.3125 325.109 27.9219 325.016 27.4219C324.922 26.9219 324.875 26.3594 324.875 25.7344C324.875 25.0781 324.875 24.3906 324.875 23.6719C324.875 21.5156 324.922 19.375 325.016 17.25C325.109 15.125 325.375 12.9844 325.812 10.8281C325.938 10.4219 326.031 9.85938 326.094 9.14062C326.188 8.39062 326.328 7.67188 326.516 6.98438C326.734 6.29688 327.031 5.70312 327.406 5.20312C327.812 4.67188 328.375 4.40625 329.094 4.40625C329.656 4.40625 330.234 4.70312 330.828 5.29688C331.422 5.85938 331.984 6.59375 332.516 7.5C333.078 8.40625 333.594 9.40625 334.062 10.5C334.562 11.5938 334.984 12.6719 335.328 13.7344C335.609 14.6719 335.859 15.1406 336.078 15.1406C336.078 15.1406 336.188 14.9844 336.406 14.6719C336.625 14.3594 336.891 13.9688 337.203 13.5C337.516 13 337.844 12.4688 338.188 11.9062C338.562 11.3125 338.906 10.7344 339.219 10.1719L341.328 6.9375C341.516 6.71875 341.703 6.4375 341.891 6.09375Z" fill="#747373"/>
<path d="M357.219 30.7031C356.531 30.6719 356.047 30.4375 355.766 30C355.484 29.5625 355.344 29.125 355.344 28.6875C355.344 28.25 355.516 27.8438 355.859 27.4688C356.203 27.0938 356.688 26.9062 357.312 26.9062L361.016 26.7188L360.969 26.1562C360.969 24.7188 360.953 23.4688 360.922 22.4062C360.922 21.3125 360.906 20.3125 360.875 19.4062C360.844 18.4688 360.812 17.5938 360.781 16.7812C360.75 15.9375 360.703 15.0625 360.641 14.1562C360.609 13.2188 360.578 12.2031 360.547 11.1094C360.516 10.0156 360.484 8.75 360.453 7.3125C360.453 7.1875 360.453 7.09375 360.453 7.03125C360.484 6.96875 360.5 6.90625 360.5 6.84375C360.5 6.78125 360.484 6.75 360.453 6.75C359.984 6.78125 359.453 6.79688 358.859 6.79688C358.297 6.79688 357.656 6.79688 356.938 6.79688C356.25 6.73438 355.766 6.5 355.484 6.09375C355.203 5.65625 355.062 5.20312 355.062 4.73438C355.062 4.29688 355.234 3.89062 355.578 3.51562C355.922 3.14062 356.359 2.95312 356.891 2.95312C358.672 2.95312 360.375 2.92188 362 2.85938C363.625 2.76562 365.281 2.71875 366.969 2.71875C367.5 2.90625 367.922 3.17188 368.234 3.51562C368.547 3.85938 368.703 4.21875 368.703 4.59375C368.703 5.1875 368.516 5.625 368.141 5.90625C367.797 6.15625 367.375 6.34375 366.875 6.46875C366.406 6.5625 365.906 6.60938 365.375 6.60938C364.875 6.57812 364.469 6.57812 364.156 6.60938H364.109C364.109 6.67188 364.125 6.75 364.156 6.84375C364.188 6.90625 364.234 7.01562 364.297 7.17188C364.328 8.60938 364.359 9.875 364.391 10.9688C364.422 12.0625 364.453 13.0781 364.484 14.0156C364.547 14.9219 364.594 15.7969 364.625 16.6406C364.656 17.4844 364.688 18.375 364.719 19.3125C364.75 20.2188 364.766 21.2344 364.766 22.3594C364.797 23.4531 364.812 24.7188 364.812 26.1562V26.4844C365.438 26.4531 366.078 26.4375 366.734 26.4375C367.422 26.4062 368.141 26.3906 368.891 26.3906C369.422 26.5469 369.828 26.7969 370.109 27.1406C370.422 27.4844 370.578 27.8594 370.578 28.2656C370.516 28.7031 370.344 29.1094 370.062 29.4844C369.781 29.8281 369.359 30.0625 368.797 30.1875C366.828 30.1875 364.891 30.25 362.984 30.375C361.109 30.5 359.188 30.6094 357.219 30.7031Z" fill="#747373"/>
<path d="M374.844 4.07812C374.969 3.48438 375.188 3.04688 375.5 2.76562C375.844 2.48438 376.25 2.3125 376.719 2.25C377.562 2.25 378.188 2.8125 378.594 3.9375C379 7.875 379.328 11.7812 379.578 15.6562C379.859 19.5312 380.344 23.2656 381.031 26.8594C382.125 26.8594 383.234 26.875 384.359 26.9062C385.516 26.9062 386.688 26.9062 387.875 26.9062C389.875 26.9062 391.891 26.8594 393.922 26.7656C394.547 26.9531 395 27.2344 395.281 27.6094C395.562 27.9531 395.703 28.3281 395.703 28.7344C395.641 29.2031 395.469 29.6094 395.188 29.9531C394.906 30.2969 394.469 30.5156 393.875 30.6094C392.281 30.6719 390.672 30.7812 389.047 30.9375C387.453 31.125 385.859 31.2188 384.266 31.2188C383.734 31.2188 383.125 31.2031 382.438 31.1719C381.781 31.1406 381.141 31.0625 380.516 30.9375C379.891 30.8125 379.312 30.625 378.781 30.375C378.25 30.125 377.859 29.7812 377.609 29.3438C377.203 27.625 376.906 25.9531 376.719 24.3281C376.531 22.6719 376.359 21 376.203 19.3125C375.922 16.7812 375.688 14.25 375.5 11.7188C375.312 9.1875 375.094 6.64062 374.844 4.07812Z" fill="#747373"/>
<path d="M407.281 18.4219C407.344 18.1406 407.406 17.9375 407.469 17.8125L403.156 11.0156C402.438 9.85938 401.766 8.65625 401.141 7.40625C400.547 6.15625 400.062 4.84375 399.688 3.46875V3.14062C399.688 2.60938 399.844 2.14062 400.156 1.73438C400.5 1.29688 400.984 1.07812 401.609 1.07812C402.203 1.07812 402.75 1.42188 403.25 2.10938C403.969 4.39062 404.906 6.53125 406.062 8.53125C407.219 10.5 408.375 12.3281 409.531 14.0156C410.031 13.4219 410.609 12.75 411.266 12C411.922 11.25 412.594 10.4219 413.281 9.51562C413.969 8.60938 414.641 7.64062 415.297 6.60938C415.984 5.54688 416.578 4.40625 417.078 3.1875C417.422 2.78125 417.766 2.5 418.109 2.34375C418.453 2.15625 418.797 2.0625 419.141 2.0625C419.703 2.0625 420.125 2.26562 420.406 2.67188C420.688 3.07812 420.828 3.59375 420.828 4.21875C420.016 6.46875 418.922 8.5 417.547 10.3125C416.203 12.0938 414.781 13.8281 413.281 15.5156C413.031 15.7656 412.688 16.1562 412.25 16.6875C411.844 17.1875 411.438 17.6406 411.031 18.0469L411.078 18.3281C411.078 19.2344 411.109 20.0469 411.172 20.7656C411.234 21.4844 411.281 22.1562 411.312 22.7812C411.375 23.375 411.422 23.9688 411.453 24.5625C411.516 25.125 411.547 25.7031 411.547 26.2969C411.547 26.7031 411.547 27.2031 411.547 27.7969C411.547 28.3906 411.5 28.8594 411.406 29.2031L411.312 29.7188C411.156 30.2188 410.906 30.5938 410.562 30.8438C410.219 31.0938 409.875 31.2188 409.531 31.2188C409.094 31.2188 408.703 31.0781 408.359 30.7969C408.047 30.5156 407.812 30.1719 407.656 29.7656L407.609 29.3438C407.609 28.7188 407.625 28.1719 407.656 27.7031C407.688 27.2344 407.703 26.75 407.703 26.25C407.703 25.625 407.672 25.0312 407.609 24.4688C407.578 23.875 407.531 23.2812 407.469 22.6875C407.438 22.0938 407.391 21.4531 407.328 20.7656C407.297 20.0781 407.281 19.2969 407.281 18.4219Z" fill="#747373"/>
</svg>
