<svg width="170" height="144" viewBox="0 0 170 144" fill="none" xmlns="http://www.w3.org/2000/svg">
<path d="M59.0196 1.95653C64.1176 1.95653 68.1699 2.28262 71.1765 2.93479C74.3137 3.45653 77.0588 4.23914 79.4118 5.28261C81.5033 6.06522 83.5948 7.17392 85.6863 8.6087C87.7778 10.0435 89.4771 11.8696 90.7843 14.087C92.0915 16.3044 92.7451 18.9131 92.7451 21.9131C92.7451 26.087 91.1111 29.4783 87.8431 32.087C84.7059 34.5652 80.8497 35.8043 76.2745 35.8043C72.0915 35.8043 68.4314 34.7609 65.2941 32.6739C62.2876 30.587 60.7843 27.3261 60.7843 22.8913C60.7843 19.3696 61.9608 16.2391 64.3137 13.5C66.7974 10.6304 70.0654 8.73914 74.1176 7.82609C72.9412 7.04348 71.1765 6.45653 68.8235 6.06522C66.6013 5.54348 64.2484 5.28261 61.7647 5.28261C54.9673 5.28261 49.085 7.5 44.1176 11.9348C39.1503 16.2391 36.6667 22.8261 36.6667 31.6957C36.6667 34.4348 37.1242 37.5 38.0392 40.8913C38.9542 44.1522 40.7843 47.4783 43.5294 50.8696C45.7516 50.2174 47.7124 49.8261 49.4118 49.6957C51.2418 49.4348 52.8105 49.3043 54.1176 49.3043C56.4706 49.3043 58.2353 49.8261 59.4118 50.8696C60.5882 51.7826 61.1765 53.0217 61.1765 54.587C61.1765 55.8913 60.6536 56.9348 59.6078 57.7174C58.5621 58.5 57.2549 58.8913 55.6863 58.8913C53.5948 58.8913 51.4379 58.2391 49.2157 56.9348C46.9935 55.6304 45.1634 54.5217 43.7255 53.6087C38.1046 57 33.4641 61.1087 29.8039 65.9348C26.2745 70.7609 24.5098 77.1522 24.5098 85.1087C24.5098 93.587 26.7974 100.5 31.3725 105.848C36.0784 111.196 42.8105 115.174 51.5686 117.783C60.4575 120.391 70.9804 121.696 83.1373 121.696C89.5425 121.696 95.9477 121.043 102.353 119.739C108.889 118.304 114.837 116.217 120.196 113.478C125.556 110.609 129.869 107.087 133.137 102.913C136.405 98.7391 138.039 93.8478 138.039 88.2391C138.039 86.2826 137.778 83.8696 137.255 81C136.863 78 135.686 75 133.725 72C131.895 68.8696 128.758 66.2609 124.314 64.1739L125.294 62.6087C131.438 64.4348 136.275 68.413 139.804 74.5435C143.464 80.5435 145.294 87.587 145.294 95.6739C145.294 105.196 142.288 113.609 136.275 120.913C130.392 128.087 122.157 133.761 111.569 137.935C100.98 141.978 88.8235 144 75.098 144C63.4641 144 53.0065 142.891 43.7255 140.674C34.5752 138.457 26.732 135.261 20.1961 131.087C13.6601 126.783 8.62745 121.63 5.09804 115.63C1.69935 109.63 0 102.848 0 95.2826C0 87.9783 1.56863 81.7174 4.70588 76.5C7.84314 71.2826 11.6993 67.0435 16.2745 63.7826C20.8497 60.3913 25.4248 57.7826 30 55.9565C34.5752 54 38.2353 52.6957 40.9804 52.0435C37.0588 50.4783 33.3333 48.6522 29.8039 46.5652C26.2745 44.3478 23.3987 41.6739 21.1765 38.5435C19.085 35.413 18.0392 31.7609 18.0392 27.587C18.0392 23.0217 19.2157 19.1087 21.5686 15.8478C24.0523 12.587 27.3203 9.97827 31.3725 8.02174C35.4248 5.93479 39.8693 4.43479 44.7059 3.52174C49.5425 2.47827 54.3137 1.95653 59.0196 1.95653ZM138.039 0C147.582 0 155.294 2.47826 161.176 7.43479C167.059 12.2609 170 19.1087 170 27.9783C170 35.413 168.105 41.6087 164.314 46.5652C160.523 51.5217 155.098 55.5 148.039 58.5C141.111 61.3696 132.81 63.6522 123.137 65.3478C121.569 65.7391 119.804 66.1957 117.843 66.7174C115.882 67.2391 113.856 67.7609 111.765 68.2826C109.804 68.6739 107.843 69.1304 105.882 69.6522C104.052 70.1739 102.353 70.6304 100.784 71.0217C88.8889 73.3696 79.8039 75.9783 73.5294 78.8478C67.2549 81.587 64.1176 85.5 64.1176 90.587C64.1176 93.7174 65.2288 96.5217 67.451 99C69.6732 101.348 72.4837 103.174 75.8824 104.478C79.4118 105.783 82.9412 106.435 86.4706 106.435C87.2549 106.435 88.0392 106.37 88.8235 106.239C89.6078 106.109 90.3922 105.978 91.1765 105.848C91.9608 105.587 92.6144 105.391 93.1373 105.261C89.4771 103.957 86.8627 102.065 85.2941 99.587C83.7255 97.1087 82.9412 94.4348 82.9412 91.5652C82.9412 87 84.5752 83.5435 87.8431 81.1957C91.2418 78.8478 95.3595 77.6739 100.196 77.6739C105.425 77.6739 109.477 78.9783 112.353 81.587C115.359 84.1957 116.863 87.6522 116.863 91.9565C116.863 96.1304 115.621 99.587 113.137 102.326C110.654 104.935 107.19 106.891 102.745 108.196C98.4314 109.37 93.3987 109.957 87.6471 109.957C82.0261 109.957 76.8627 108.978 72.1569 107.022C67.451 105.065 63.7255 102.196 60.9804 98.413C58.2353 94.6304 56.8627 89.8696 56.8627 84.1304C56.8627 76.5652 58.8889 70.2391 62.9412 65.1522C66.9935 60.0652 72.6797 55.9565 80 52.8261C87.451 49.6957 96.2092 47.2826 106.275 45.587C108.627 45.1957 111.046 44.7391 113.529 44.2174C116.144 43.5652 118.824 42.913 121.569 42.2609C124.314 41.6087 126.928 40.9565 129.412 40.3043C139.739 38.3478 147.908 35.9348 153.922 33.0652C160.065 30.1957 163.137 26.087 163.137 20.7391C163.137 17.3478 162.026 14.3478 159.804 11.7391C157.712 9.13044 154.967 7.17392 151.569 5.86957C148.301 4.43479 144.837 3.7174 141.176 3.7174C140.131 3.7174 139.085 3.78262 138.039 3.91305C137.124 4.04348 136.34 4.17392 135.686 4.30435C139.346 5.73914 142.026 7.69566 143.725 10.1739C145.556 12.6522 146.471 15.2609 146.471 18C146.471 22.3044 144.837 25.6304 141.569 27.9783C138.431 30.3261 134.379 31.5 129.412 31.5C124.314 31.5 120.196 30.2609 117.059 27.7826C114.052 25.1739 112.549 21.7174 112.549 17.4131C112.549 13.8913 113.464 10.8261 115.294 8.2174C117.255 5.6087 120.131 3.58696 123.922 2.15218C127.712 0.717394 132.418 0 138.039 0Z" fill="#D9D9D9"/>
</svg>
