<svg width="84" height="71" viewBox="0 0 84 71" fill="none" xmlns="http://www.w3.org/2000/svg">
<path d="M28.896 0.960005C31.392 0.960005 33.376 1.12 34.848 1.44C36.384 1.696 37.728 2.08 38.88 2.592C39.904 2.976 40.928 3.52 41.952 4.224C42.976 4.928 43.808 5.824 44.448 6.912C45.088 8 45.408 9.28 45.408 10.752C45.408 12.8 44.608 14.464 43.008 15.744C41.472 16.96 39.584 17.568 37.344 17.568C35.296 17.568 33.504 17.056 31.968 16.032C30.496 15.008 29.76 13.408 29.76 11.232C29.76 9.504 30.336 7.968 31.488 6.624C32.704 5.216 34.304 4.288 36.288 3.84C35.712 3.456 34.848 3.168 33.696 2.976C32.608 2.72 31.456 2.592 30.24 2.592C26.912 2.592 24.032 3.68 21.6 5.856C19.168 7.968 17.952 11.2 17.952 15.552C17.952 16.896 18.176 18.4 18.624 20.064C19.072 21.664 19.968 23.296 21.312 24.96C22.4 24.64 23.36 24.448 24.192 24.384C25.088 24.256 25.856 24.192 26.496 24.192C27.648 24.192 28.512 24.448 29.088 24.96C29.664 25.408 29.952 26.016 29.952 26.784C29.952 27.424 29.696 27.936 29.184 28.32C28.672 28.704 28.032 28.896 27.264 28.896C26.24 28.896 25.184 28.576 24.096 27.936C23.008 27.296 22.112 26.752 21.408 26.304C18.656 27.968 16.384 29.984 14.592 32.352C12.864 34.72 12 37.856 12 41.76C12 45.92 13.12 49.312 15.36 51.936C17.664 54.56 20.96 56.512 25.248 57.792C29.6 59.072 34.752 59.712 40.704 59.712C43.84 59.712 46.976 59.392 50.112 58.752C53.312 58.048 56.224 57.024 58.848 55.68C61.472 54.272 63.584 52.544 65.184 50.496C66.784 48.448 67.584 46.048 67.584 43.296C67.584 42.336 67.456 41.152 67.2 39.744C67.008 38.272 66.432 36.8 65.472 35.328C64.576 33.792 63.04 32.512 60.864 31.488L61.344 30.72C64.352 31.616 66.72 33.568 68.448 36.576C70.24 39.52 71.136 42.976 71.136 46.944C71.136 51.616 69.664 55.744 66.72 59.328C63.84 62.848 59.808 65.632 54.624 67.68C49.44 69.664 43.488 70.656 36.768 70.656C31.072 70.656 25.952 70.112 21.408 69.024C16.928 67.936 13.088 66.368 9.888 64.32C6.688 62.208 4.224 59.68 2.496 56.736C0.832 53.792 0 50.464 0 46.752C0 43.168 0.768 40.096 2.304 37.536C3.84 34.976 5.728 32.896 7.968 31.296C10.208 29.632 12.448 28.352 14.688 27.456C16.928 26.496 18.72 25.856 20.064 25.536C18.144 24.768 16.32 23.872 14.592 22.848C12.864 21.76 11.456 20.448 10.368 18.912C9.344 17.376 8.832 15.584 8.832 13.536C8.832 11.296 9.408 9.376 10.56 7.776C11.776 6.176 13.376 4.896 15.36 3.936C17.344 2.912 19.52 2.176 21.888 1.728C24.256 1.216 26.592 0.960005 28.896 0.960005ZM67.584 0C72.256 0 76.032 1.216 78.912 3.648C81.792 6.016 83.232 9.376 83.232 13.728C83.232 17.376 82.304 20.416 80.448 22.848C78.592 25.28 75.936 27.232 72.48 28.704C69.088 30.112 65.024 31.232 60.288 32.064C59.52 32.256 58.656 32.48 57.696 32.736C56.736 32.992 55.744 33.248 54.72 33.504C53.76 33.696 52.8 33.92 51.84 34.176C50.944 34.432 50.112 34.656 49.344 34.848C43.52 36 39.072 37.28 36 38.688C32.928 40.032 31.392 41.952 31.392 44.448C31.392 45.984 31.936 47.36 33.024 48.576C34.112 49.728 35.488 50.624 37.152 51.264C38.88 51.904 40.608 52.224 42.336 52.224C42.72 52.224 43.104 52.192 43.488 52.128C43.872 52.064 44.256 52 44.64 51.936C45.024 51.808 45.344 51.712 45.6 51.648C43.808 51.008 42.528 50.08 41.76 48.864C40.992 47.648 40.608 46.336 40.608 44.928C40.608 42.688 41.408 40.992 43.008 39.84C44.672 38.688 46.688 38.112 49.056 38.112C51.616 38.112 53.6 38.752 55.008 40.032C56.48 41.312 57.216 43.008 57.216 45.12C57.216 47.168 56.608 48.864 55.392 50.208C54.176 51.488 52.48 52.448 50.304 53.088C48.192 53.664 45.728 53.952 42.912 53.952C40.16 53.952 37.632 53.472 35.328 52.512C33.024 51.552 31.2 50.144 29.856 48.288C28.512 46.432 27.84 44.096 27.84 41.28C27.84 37.568 28.832 34.464 30.816 31.968C32.8 29.472 35.584 27.456 39.168 25.92C42.816 24.384 47.104 23.2 52.032 22.368C53.184 22.176 54.368 21.952 55.584 21.696C56.864 21.376 58.176 21.056 59.52 20.736C60.864 20.416 62.144 20.096 63.36 19.776C68.416 18.816 72.416 17.632 75.36 16.224C78.368 14.816 79.872 12.8 79.872 10.176C79.872 8.512 79.328 7.04 78.24 5.76C77.216 4.48 75.872 3.52 74.208 2.88C72.608 2.176 70.912 1.82401 69.12 1.82401C68.608 1.82401 68.096 1.856 67.584 1.92C67.136 1.984 66.752 2.048 66.432 2.112C68.224 2.816 69.536 3.776 70.368 4.992C71.264 6.208 71.712 7.488 71.712 8.832C71.712 10.944 70.912 12.576 69.312 13.728C67.776 14.88 65.792 15.456 63.36 15.456C60.864 15.456 58.848 14.848 57.312 13.632C55.84 12.352 55.104 10.656 55.104 8.544C55.104 6.816 55.552 5.312 56.448 4.03201C57.408 2.752 58.816 1.76 60.672 1.056C62.528 0.352001 64.832 0 67.584 0Z" fill="#FFAC82"/>
</svg>
