<svg width="170" height="136" viewBox="0 0 170 136" fill="none" xmlns="http://www.w3.org/2000/svg">
<path d="M0 136V132.812C3.81137 132.408 7.07109 131.244 9.77917 129.321C12.5875 127.399 14.744 124.06 16.2485 119.304C17.7529 114.548 18.5052 107.869 18.5052 99.2679V16.0893C18.5052 12.3452 18.2043 9.61309 17.6025 7.89285C17.101 6.07143 16.0479 4.85714 14.4431 4.25C12.8383 3.54166 10.5314 3.1369 7.52244 3.03571V0C10.0299 0.101189 13.4401 0.202378 17.7529 0.303568C22.0658 0.404757 26.5793 0.455351 31.2933 0.455351C36.1077 0.455351 40.7716 0.404757 45.2851 0.303568C49.8988 0.202378 53.7102 0.101189 56.7192 0V3.03571C53.6099 3.1369 51.2529 3.54166 49.6481 4.25C48.0433 4.85714 46.9902 6.07143 46.4887 7.89285C45.9872 9.61309 45.7364 12.3452 45.7364 16.0893V71.6428C45.7364 75.7917 45.7364 80.2946 45.7364 85.1518C45.7364 89.9077 45.5358 94.5625 45.1346 99.1161C44.8337 103.67 44.1818 107.717 43.1788 111.259C41.0725 118.241 36.4587 124.11 29.3375 128.866C22.2163 133.622 12.4371 136 0 136Z" fill="#D9D9D9"/>
<path d="M64.9868 0C67.6949 0.101189 71.3056 0.202378 75.8191 0.303568C80.3326 0.404757 84.846 0.455351 89.3595 0.455351C94.2741 0.455351 98.9882 0.404757 103.502 0.303568C108.115 0.202378 111.375 0.151784 113.281 0.151784C123.11 0.151784 131.184 1.16369 137.503 3.1875C143.922 5.2113 148.737 8.19642 151.946 12.1429C155.156 15.9881 156.761 20.7946 156.761 26.5625C156.761 30.2054 156.008 33.7976 154.504 37.3393C153.1 40.7798 150.642 43.9673 147.132 46.9018C143.722 49.8363 138.957 52.1637 132.839 53.8839C126.821 55.6042 119.198 56.4643 109.971 56.4643H95.5279V53.4286H108.466C113.983 53.4286 118.145 52.3155 120.954 50.0893C123.862 47.7619 125.818 44.7262 126.821 40.9821C127.925 37.1369 128.476 32.8869 128.476 28.2321C128.476 20.2381 127.222 14.0655 124.715 9.71428C122.207 5.2619 117.945 3.03571 111.927 3.03571C108.216 3.03571 105.809 3.89583 104.705 5.61607C103.702 7.33631 103.201 10.8274 103.201 16.0893V91.375C103.201 95.0179 103.452 97.75 103.953 99.5714C104.555 101.393 105.608 102.607 107.112 103.214C108.717 103.821 111.074 104.226 114.184 104.429V107.464C111.375 107.262 107.764 107.161 103.351 107.161C99.0384 107.06 94.6753 107.009 90.2622 107.009C85.1469 107.009 80.3326 107.06 75.8191 107.161C71.3056 107.161 67.6949 107.262 64.9868 107.464V104.429C68.0961 104.226 70.4029 103.821 71.9074 103.214C73.5122 102.607 74.5654 101.393 75.0669 99.5714C75.6687 97.75 75.9695 95.0179 75.9695 91.375V16.0893C75.9695 12.3452 75.6687 9.61309 75.0669 7.89285C74.5654 6.07143 73.5122 4.85714 71.9074 4.25C70.4029 3.54166 68.0961 3.1369 64.9868 3.03571V0ZM94.9261 53.8839C98.8378 53.9851 102.398 54.1875 105.608 54.4911C108.818 54.7946 111.676 55.0982 114.184 55.4018C116.791 55.6042 119.048 55.7559 120.954 55.8571C130.883 56.4643 138.255 58.3869 143.07 61.625C147.984 64.7619 151.094 69.4673 152.398 75.7411L155.557 91.5268C156.46 95.372 157.412 98.1042 158.415 99.7232C159.418 101.241 160.823 101.949 162.628 101.848C163.731 101.848 164.684 101.646 165.487 101.241C166.289 100.735 167.091 100.027 167.894 99.1161L170 101.089C167.091 104.226 163.932 106.402 160.522 107.616C157.112 108.932 153.15 109.589 148.636 109.589C142.719 109.589 137.854 108.426 134.043 106.098C130.332 103.771 127.975 99.4702 126.972 93.1964L124.414 78.0179C123.812 73.869 123.01 70.1756 122.007 66.9375C121.104 63.6994 119.85 61.1696 118.246 59.3482C116.641 57.4256 114.384 56.4643 111.475 56.4643H95.227L94.9261 53.8839Z" fill="#D9D9D9"/>
</svg>
