<svg width="170" height="136" viewBox="0 0 170 136" fill="none" xmlns="http://www.w3.org/2000/svg">
<path d="M0.400024 135.2V132.05C4.20002 131.65 7.45002 130.5 10.15 128.6C12.95 126.7 15.1 123.4 16.6 118.7C18.1 114 18.85 107.4 18.85 98.9V16.7C18.85 13 18.55 10.3 17.95 8.59999C17.45 6.79998 16.4 5.59999 14.8 4.99999C13.2 4.29998 10.9 3.89998 7.90002 3.79998V0.799988C10.4 0.899987 13.8 0.999985 18.1 1.09998C22.4 1.19998 26.9 1.24998 31.6 1.24998C36.4 1.24998 41.05 1.19998 45.55 1.09998C50.15 0.999985 53.95 0.899987 56.95 0.799988V3.79998C53.85 3.89998 51.5 4.29998 49.9 4.99999C48.3 5.59999 47.25 6.79998 46.75 8.59999C46.25 10.3 46 13 46 16.7V71.6C46 75.7 46 80.15 46 84.95C46 89.65 45.8 94.25 45.4 98.75C45.1 103.25 44.45 107.25 43.45 110.75C41.35 117.65 36.75 123.45 29.65 128.15C22.55 132.85 12.8 135.2 0.400024 135.2Z" fill="#FFAC82"/>
<path d="M65.193 0.799988C67.893 0.899987 71.493 0.999985 75.993 1.09998C80.493 1.19998 84.993 1.24998 89.493 1.24998C94.393 1.24998 99.093 1.19998 103.593 1.09998C108.193 0.999985 111.443 0.949986 113.343 0.949986C123.143 0.949986 131.193 1.94999 137.493 3.94998C143.893 5.94998 148.693 8.89998 151.893 12.8C155.093 16.6 156.693 21.35 156.693 27.05C156.693 30.65 155.943 34.2 154.443 37.7C153.043 41.1 150.593 44.25 147.093 47.15C143.693 50.05 138.943 52.35 132.843 54.05C126.843 55.75 119.243 56.6 110.043 56.6H95.643V53.6H108.543C114.043 53.6 118.193 52.5 120.993 50.3C123.893 48 125.843 45 126.843 41.3C127.943 37.5 128.493 33.3 128.493 28.7C128.493 20.8 127.243 14.7 124.743 10.4C122.243 5.99998 117.993 3.79998 111.993 3.79998C108.293 3.79998 105.893 4.64999 104.793 6.34999C103.793 8.04998 103.293 11.5 103.293 16.7V91.1C103.293 94.7 103.543 97.4 104.043 99.2C104.643 101 105.693 102.2 107.193 102.8C108.793 103.4 111.143 103.8 114.243 104V107C111.443 106.8 107.843 106.7 103.443 106.7C99.143 106.6 94.793 106.55 90.393 106.55C85.293 106.55 80.493 106.6 75.993 106.7C71.493 106.7 67.893 106.8 65.193 107V104C68.293 103.8 70.593 103.4 72.093 102.8C73.693 102.2 74.743 101 75.243 99.2C75.843 97.4 76.143 94.7 76.143 91.1V16.7C76.143 13 75.843 10.3 75.243 8.59999C74.743 6.79998 73.693 5.59999 72.093 4.99999C70.593 4.29998 68.293 3.89998 65.193 3.79998V0.799988ZM95.043 54.05C98.943 54.15 102.493 54.35 105.693 54.65C108.893 54.95 111.743 55.25 114.243 55.55C116.843 55.75 119.093 55.9 120.993 56C130.893 56.6 138.243 58.5 143.043 61.7C147.943 64.8 151.043 69.45 152.343 75.65L155.493 91.25C156.393 95.05 157.343 97.75 158.343 99.35C159.343 100.85 160.743 101.55 162.543 101.45C163.643 101.45 164.593 101.25 165.393 100.85C166.193 100.35 166.993 99.65 167.793 98.75L169.893 100.7C166.993 103.8 163.843 105.95 160.443 107.15C157.043 108.45 153.093 109.1 148.593 109.1C142.693 109.1 137.843 107.95 134.043 105.65C130.343 103.35 127.993 99.1 126.993 92.9L124.443 77.9C123.843 73.8 123.043 70.15 122.043 66.95C121.143 63.75 119.893 61.25 118.293 59.45C116.693 57.55 114.443 56.6 111.543 56.6H95.343L95.043 54.05Z" fill="#FFAC82"/>
</svg>
