<svg width="84" height="72" viewBox="0 0 84 72" fill="none" xmlns="http://www.w3.org/2000/svg">
<path d="M29.448 1.64799C31.944 1.64799 33.928 1.80799 35.4 2.12799C36.936 2.38399 38.28 2.76799 39.432 3.27999C40.456 3.66399 41.48 4.20799 42.504 4.91199C43.528 5.61599 44.36 6.51199 45 7.59999C45.64 8.68799 45.96 9.96799 45.96 11.44C45.96 13.488 45.16 15.152 43.56 16.432C42.024 17.648 40.136 18.256 37.896 18.256C35.848 18.256 34.056 17.744 32.52 16.72C31.048 15.696 30.312 14.096 30.312 11.92C30.312 10.192 30.888 8.65599 32.04 7.31199C33.256 5.90399 34.856 4.97599 36.84 4.52799C36.264 4.14399 35.4 3.85599 34.248 3.66399C33.16 3.40799 32.008 3.27999 30.792 3.27999C27.464 3.27999 24.584 4.36799 22.152 6.54399C19.72 8.65599 18.504 11.888 18.504 16.24C18.504 17.584 18.728 19.088 19.176 20.752C19.624 22.352 20.52 23.984 21.864 25.648C22.952 25.328 23.912 25.136 24.744 25.072C25.64 24.944 26.408 24.88 27.048 24.88C28.2 24.88 29.064 25.136 29.64 25.648C30.216 26.096 30.504 26.704 30.504 27.472C30.504 28.112 30.248 28.624 29.736 29.008C29.224 29.392 28.584 29.584 27.816 29.584C26.792 29.584 25.736 29.264 24.648 28.624C23.56 27.984 22.664 27.44 21.96 26.992C19.208 28.656 16.936 30.672 15.144 33.04C13.416 35.408 12.552 38.544 12.552 42.448C12.552 46.608 13.672 50 15.912 52.624C18.216 55.248 21.512 57.2 25.8 58.48C30.152 59.76 35.304 60.4 41.256 60.4C44.392 60.4 47.528 60.08 50.664 59.44C53.864 58.736 56.776 57.712 59.4 56.368C62.024 54.96 64.136 53.232 65.736 51.184C67.336 49.136 68.136 46.736 68.136 43.984C68.136 43.024 68.008 41.84 67.752 40.432C67.56 38.96 66.984 37.488 66.024 36.016C65.128 34.48 63.592 33.2 61.416 32.176L61.896 31.408C64.904 32.304 67.272 34.256 69 37.264C70.792 40.208 71.688 43.664 71.688 47.632C71.688 52.304 70.216 56.432 67.272 60.016C64.392 63.536 60.36 66.32 55.176 68.368C49.992 70.352 44.04 71.344 37.32 71.344C31.624 71.344 26.504 70.8 21.96 69.712C17.48 68.624 13.64 67.056 10.44 65.008C7.24 62.896 4.776 60.368 3.048 57.424C1.384 54.48 0.552002 51.152 0.552002 47.44C0.552002 43.856 1.32 40.784 2.856 38.224C4.392 35.664 6.28 33.584 8.52 31.984C10.76 30.32 13 29.04 15.24 28.144C17.48 27.184 19.272 26.544 20.616 26.224C18.696 25.456 16.872 24.56 15.144 23.536C13.416 22.448 12.008 21.136 10.92 19.6C9.896 18.064 9.384 16.272 9.384 14.224C9.384 11.984 9.96 10.064 11.112 8.46399C12.328 6.86399 13.928 5.58399 15.912 4.62399C17.896 3.59999 20.072 2.86399 22.44 2.41599C24.808 1.90399 27.144 1.64799 29.448 1.64799ZM68.136 0.687988C72.808 0.687988 76.584 1.90399 79.464 4.33599C82.344 6.70399 83.784 10.064 83.784 14.416C83.784 18.064 82.856 21.104 81 23.536C79.144 25.968 76.488 27.92 73.032 29.392C69.64 30.8 65.576 31.92 60.84 32.752C60.072 32.944 59.208 33.168 58.248 33.424C57.288 33.68 56.296 33.936 55.272 34.192C54.312 34.384 53.352 34.608 52.392 34.864C51.496 35.12 50.664 35.344 49.896 35.536C44.072 36.688 39.624 37.968 36.552 39.376C33.48 40.72 31.944 42.64 31.944 45.136C31.944 46.672 32.488 48.048 33.576 49.264C34.664 50.416 36.04 51.312 37.704 51.952C39.432 52.592 41.16 52.912 42.888 52.912C43.272 52.912 43.656 52.88 44.04 52.816C44.424 52.752 44.808 52.688 45.192 52.624C45.576 52.496 45.896 52.4 46.152 52.336C44.36 51.696 43.08 50.768 42.312 49.552C41.544 48.336 41.16 47.024 41.16 45.616C41.16 43.376 41.96 41.68 43.56 40.528C45.224 39.376 47.24 38.8 49.608 38.8C52.168 38.8 54.152 39.44 55.56 40.72C57.032 42 57.768 43.696 57.768 45.808C57.768 47.856 57.16 49.552 55.944 50.896C54.728 52.176 53.032 53.136 50.856 53.776C48.744 54.352 46.28 54.64 43.464 54.64C40.712 54.64 38.184 54.16 35.88 53.2C33.576 52.24 31.752 50.832 30.408 48.976C29.064 47.12 28.392 44.784 28.392 41.968C28.392 38.256 29.384 35.152 31.368 32.656C33.352 30.16 36.136 28.144 39.72 26.608C43.368 25.072 47.656 23.888 52.584 23.056C53.736 22.864 54.92 22.64 56.136 22.384C57.416 22.064 58.728 21.744 60.072 21.424C61.416 21.104 62.696 20.784 63.912 20.464C68.968 19.504 72.968 18.32 75.912 16.912C78.92 15.504 80.424 13.488 80.424 10.864C80.424 9.19999 79.88 7.72799 78.792 6.44799C77.768 5.16799 76.424 4.20799 74.76 3.56799C73.16 2.86399 71.464 2.51199 69.672 2.51199C69.16 2.51199 68.648 2.54399 68.136 2.60799C67.688 2.67199 67.304 2.73599 66.984 2.79999C68.776 3.50399 70.088 4.46399 70.92 5.67999C71.816 6.89599 72.264 8.17599 72.264 9.51999C72.264 11.632 71.464 13.264 69.864 14.416C68.328 15.568 66.344 16.144 63.912 16.144C61.416 16.144 59.4 15.536 57.864 14.32C56.392 13.04 55.656 11.344 55.656 9.23199C55.656 7.50399 56.104 5.99999 57 4.71999C57.96 3.43999 59.368 2.44799 61.224 1.74399C63.08 1.03999 65.384 0.687988 68.136 0.687988Z" fill="#FFAC82"/>
</svg>
