<svg width="40" height="41" viewBox="0 0 40 41" fill="none" xmlns="http://www.w3.org/2000/svg">
<g clip-path="url(#clip0_48_229)">
<path d="M32.5833 24.6712C32.5591 24.8716 32.463 25.0564 32.3128 25.1913C32.1626 25.3262 31.9685 25.402 31.7667 25.4045H28.3333C28.1137 25.4088 27.9042 25.498 27.7488 25.6533C27.5934 25.8087 27.5043 26.0182 27.5 26.2379V39.5712C27.5 39.7922 27.5878 40.0042 27.7441 40.1605C27.9004 40.3167 28.1123 40.4045 28.3333 40.4045H38.3333C38.7754 40.4045 39.1993 40.2289 39.5118 39.9164C39.8244 39.6038 40 39.1799 40 38.7379V2.07121C40 1.62918 39.8244 1.20526 39.5118 0.892696C39.1993 0.580136 38.7754 0.404541 38.3333 0.404541L1.66667 0.404541C1.22464 0.404541 0.800716 0.580136 0.488155 0.892696C0.175595 1.20526 0 1.62918 0 2.07121L0 38.7379C0 39.1799 0.175595 39.6038 0.488155 39.9164C0.800716 40.2289 1.22464 40.4045 1.66667 40.4045H20C20.2197 40.4003 20.4292 40.3111 20.5845 40.1557C20.7399 40.0004 20.8291 39.7909 20.8333 39.5712V26.2379C20.8333 26.0169 20.7455 25.8049 20.5893 25.6486C20.433 25.4923 20.221 25.4045 20 25.4045H16.6667C16.4457 25.4045 16.2337 25.3167 16.0774 25.1605C15.9211 25.0042 15.8333 24.7922 15.8333 24.5712V19.5712C15.8333 19.3502 15.9211 19.1382 16.0774 18.982C16.2337 18.8257 16.4457 18.7379 16.6667 18.7379H20C20.221 18.7379 20.433 18.6501 20.5893 18.4938C20.7455 18.3375 20.8333 18.1256 20.8333 17.9045V15.7212C20.8333 13.2061 21.8325 10.7939 23.6109 9.01548C25.3894 7.23701 27.8015 6.23787 30.3167 6.23787H32.5C32.721 6.23787 32.933 6.32567 33.0893 6.48195C33.2455 6.63823 33.3333 6.85019 33.3333 7.07121V12.0712C33.3333 12.2922 33.2455 12.5042 33.0893 12.6605C32.933 12.8167 32.721 12.9045 32.5 12.9045H30.3167C29.5696 12.9045 28.8532 13.2013 28.325 13.7295C27.7968 14.2578 27.5 14.9742 27.5 15.7212V17.9045C27.5 18.1256 27.5878 18.3375 27.7441 18.4938C27.9004 18.6501 28.1123 18.7379 28.3333 18.7379H32.3833C32.5031 18.7368 32.6216 18.7616 32.7309 18.8105C32.8402 18.8594 32.9376 18.9313 33.0167 19.0212C33.0929 19.1099 33.1501 19.2135 33.1845 19.3253C33.2189 19.4372 33.2299 19.5549 33.2167 19.6712L32.5833 24.6712Z" fill="#3D3D3D"/>
</g>
<defs>
<clipPath id="clip0_48_229">
<rect width="40" height="40" fill="white" transform="translate(0 0.404541)"/>
</clipPath>
</defs>
</svg>
