<svg width="40" height="41" viewBox="0 0 40 41" fill="none" xmlns="http://www.w3.org/2000/svg">
<g clip-path="url(#clip0_48_231)">
<path d="M30.1167 19.1545C30.0522 19.1558 29.9888 19.1714 29.9312 19.2002C29.8735 19.229 29.823 19.2704 29.7833 19.3212C29.7461 19.3707 29.7195 19.4273 29.7052 19.4875C29.6908 19.5477 29.6891 19.6103 29.7 19.6712C29.9022 20.4551 30.003 21.2617 30 22.0712C30 24.7234 28.9464 27.2669 27.0711 29.1423C25.1957 31.0176 22.6522 32.0712 20 32.0712C17.3478 32.0712 14.8043 31.0176 12.9289 29.1423C11.0536 27.2669 10 24.7234 10 22.0712C9.99697 21.2617 10.0978 20.4551 10.3 19.6712C10.3234 19.6158 10.3354 19.5563 10.3354 19.4962C10.3354 19.4361 10.3234 19.3766 10.3 19.3212C10.2603 19.2704 10.2098 19.229 10.1522 19.2002C10.0945 19.1714 10.0311 19.1558 9.96667 19.1545H0.833333C0.61232 19.1545 0.400358 19.2423 0.244078 19.3986C0.0877974 19.5549 0 19.7669 0 19.9879L0 29.5712C0.00440803 32.443 1.14719 35.196 3.17788 37.2267C5.20857 39.2574 7.96151 40.4001 10.8333 40.4045H29.1667C32.0385 40.4001 34.7914 39.2574 36.8221 37.2267C38.8528 35.196 39.9956 32.443 40 29.5712V19.9879C40 19.7669 39.9122 19.5549 39.7559 19.3986C39.5996 19.2423 39.3877 19.1545 39.1667 19.1545H30.1167Z" fill="#3D3D3D"/>
<path d="M39.1667 16.6546C39.3877 16.6546 39.5996 16.5668 39.7559 16.4105C39.9122 16.2542 40 16.0423 40 15.8212V11.2379C39.9956 8.36608 38.8528 5.61314 36.8221 3.58245C34.7914 1.55176 32.0385 0.408982 29.1667 0.404574H19.5833C19.3623 0.404574 19.1504 0.492371 18.9941 0.648652C18.8378 0.804932 18.75 1.01689 18.75 1.23791V7.90457C18.75 8.23609 18.6183 8.55404 18.3839 8.78846C18.1495 9.02288 17.8315 9.15457 17.5 9.15457C17.1685 9.15457 16.8505 9.02288 16.6161 8.78846C16.3817 8.55404 16.25 8.23609 16.25 7.90457V1.23791C16.25 1.01689 16.1622 0.804932 16.0059 0.648652C15.8496 0.492371 15.6377 0.404574 15.4167 0.404574H14.5833C14.3623 0.404574 14.1504 0.492371 13.9941 0.648652C13.8378 0.804932 13.75 1.01689 13.75 1.23791V7.90457C13.75 8.23609 13.6183 8.55404 13.3839 8.78846C13.1495 9.02288 12.8315 9.15457 12.5 9.15457C12.1685 9.15457 11.8505 9.02288 11.6161 8.78846C11.3817 8.55404 11.25 8.23609 11.25 7.90457V1.23791C11.2451 1.01848 11.1555 0.809449 11 0.654574C10.9219 0.570191 10.8261 0.504047 10.7195 0.46084C10.613 0.417633 10.4982 0.398423 10.3833 0.404574C10.078 0.389231 9.77203 0.389231 9.46667 0.404574C9.26789 0.43614 9.08676 0.537221 8.95552 0.689821C8.82428 0.842422 8.75146 1.03664 8.75 1.23791V7.90457C8.75 8.23609 8.6183 8.55404 8.38388 8.78846C8.14946 9.02288 7.83152 9.15457 7.5 9.15457C7.16848 9.15457 6.85054 9.02288 6.61612 8.78846C6.3817 8.55404 6.25 8.23609 6.25 7.90457V2.07124C6.24136 2.00719 6.21902 1.94575 6.18451 1.89111C6.15 1.83647 6.10412 1.7899 6.05 1.75457C5.98666 1.718 5.91481 1.69875 5.84167 1.69875C5.76853 1.69875 5.69667 1.718 5.63333 1.75457C3.92996 2.68456 2.50817 4.05569 1.51702 5.72422C0.525875 7.39275 0.00188876 9.2972 0 11.2379L0 15.8212C0 16.0423 0.0877974 16.2542 0.244078 16.4105C0.400358 16.5668 0.61232 16.6546 0.833333 16.6546H11.1667C11.2998 16.6526 11.4307 16.6201 11.5492 16.5594C11.6677 16.4987 11.7706 16.4115 11.85 16.3046C12.7745 15.0043 13.9967 13.9441 15.4145 13.2125C16.8323 12.4809 18.4046 12.0992 20 12.0992C21.5954 12.0992 23.1677 12.4809 24.5855 13.2125C26.0033 13.9441 27.2255 15.0043 28.15 16.3046C28.2294 16.4115 28.3323 16.4987 28.4508 16.5594C28.5693 16.6201 28.7002 16.6526 28.8333 16.6546H39.1667ZM29.1667 7.90457C29.1667 7.46255 29.3423 7.03862 29.6548 6.72606C29.9674 6.4135 30.3913 6.23791 30.8333 6.23791H32.5C32.942 6.23791 33.366 6.4135 33.6785 6.72606C33.9911 7.03862 34.1667 7.46255 34.1667 7.90457V9.57124C34.1667 10.0133 33.9911 10.4372 33.6785 10.7498C33.366 11.0623 32.942 11.2379 32.5 11.2379H30.8333C30.3913 11.2379 29.9674 11.0623 29.6548 10.7498C29.3423 10.4372 29.1667 10.0133 29.1667 9.57124V7.90457Z" fill="#3D3D3D"/>
<path d="M15 22.0713C15 23.3974 15.5268 24.6691 16.4645 25.6068C17.4021 26.5445 18.6739 27.0713 20 27.0713C21.3261 27.0713 22.5979 26.5445 23.5355 25.6068C24.4732 24.6691 25 23.3974 25 22.0713C25 20.7452 24.4732 19.4734 23.5355 18.5358C22.5979 17.5981 21.3261 17.0713 20 17.0713C18.6739 17.0713 17.4021 17.5981 16.4645 18.5358C15.5268 19.4734 15 20.7452 15 22.0713Z" fill="#3D3D3D"/>
</g>
<defs>
<clipPath id="clip0_48_231">
<rect width="40" height="40" fill="white" transform="translate(0 0.404541)"/>
</clipPath>
</defs>
</svg>
