<svg width="40" height="41" viewBox="0 0 40 41" fill="none" xmlns="http://www.w3.org/2000/svg">
<g clip-path="url(#clip0_48_238)">
<path fill-rule="evenodd" clip-rule="evenodd" d="M8.324 7.15188C9.06449 6.38857 9.47497 5.3646 9.46668 4.30114C9.42814 3.26954 8.99697 2.29163 8.26137 1.56734C7.52577 0.843052 6.54128 0.427106 5.5092 0.404541C4.47408 0.426693 3.48614 0.84161 2.7456 1.56518C2.00507 2.28875 1.56738 3.26683 1.52126 4.30114C1.53616 5.36277 1.95832 6.37805 2.70052 7.13725C3.44271 7.89645 4.4482 8.34148 5.5092 8.38043C6.5724 8.35645 7.58348 7.91517 8.324 7.15188ZM4.76808 13.636C3.09237 13.598 1.94745 13.5721 1.94745 15.6257V38.4574C1.94745 40.4685 3.03923 40.4268 4.61251 40.3671C4.89688 40.3562 5.19697 40.3448 5.5092 40.3448C5.822 40.3448 6.12188 40.3562 6.40551 40.3671C7.97126 40.4268 9.04051 40.4677 9.04051 38.4574V15.6257C9.04051 13.5725 7.91943 13.598 6.25008 13.6359C6.0136 13.6413 5.76608 13.6469 5.5092 13.6469C5.25271 13.6469 5.00508 13.6413 4.76808 13.636ZM16.4379 13.6774C15.6769 13.8296 15.1898 14.3167 15.1898 15.6257V38.4574C15.1898 40.4665 16.2361 40.4271 17.8121 40.3671C18.0987 40.3562 18.4027 40.3448 18.7211 40.3448C19.039 40.3448 19.3432 40.3562 19.6305 40.3671C21.2141 40.4271 22.2829 40.4674 22.2829 38.4574V26.2805C22.2223 25.6583 22.2946 25.0303 22.495 24.4381C22.6954 23.8459 23.0193 23.303 23.4452 22.8454C23.8712 22.3878 24.3895 22.0259 24.9658 21.7836C25.5421 21.5414 26.1633 21.4243 26.7883 21.4402C27.4162 21.403 28.0448 21.5013 28.6311 21.7285C29.2177 21.9557 29.7486 22.3065 30.1874 22.757C30.6266 23.2075 30.9634 23.7472 31.1751 24.3394C31.3871 24.9316 31.4691 25.5625 31.4154 26.1892V38.366C31.4154 40.3754 32.4617 40.3357 34.038 40.276C34.3243 40.2651 34.6283 40.2534 34.9469 40.2534C35.2654 40.2534 35.5694 40.2651 35.856 40.276C37.432 40.3357 38.4783 40.3754 38.4783 38.366V22.7797C38.536 21.4999 38.324 20.2223 37.856 19.0299C37.388 17.8374 36.6743 16.7568 35.7611 15.8581C34.8483 14.9595 33.7563 14.263 32.5566 13.8139C31.3569 13.3648 30.0763 13.1731 28.7974 13.2512C27.4954 13.1328 26.1847 13.3505 24.9908 13.8835C23.7968 14.4165 22.7597 15.247 21.9785 16.2955C22.0089 15.1691 21.6436 13.6774 20.7303 13.6774C20.4685 13.6774 20.0664 13.6649 19.6082 13.6506C18.4683 13.6151 16.9808 13.5689 16.4379 13.6774Z" fill="#3D3D3D"/>
</g>
<defs>
<clipPath id="clip0_48_238">
<rect width="40" height="40" fill="white" transform="translate(0 0.404541)"/>
</clipPath>
</defs>
</svg>
