<svg width="71" height="59" viewBox="0 0 71 59" fill="none" xmlns="http://www.w3.org/2000/svg">
<path d="M0.528015 58.032V56.752C2.23468 56.5813 3.68535 56.0693 4.88002 55.216C6.07468 54.4053 6.99202 52.9973 7.63202 50.992C8.27202 48.9867 8.59202 46.1707 8.59202 42.544V7.47198C8.59202 5.89332 8.46402 4.74132 8.20802 4.01599C7.99468 3.24799 7.54668 2.73599 6.86402 2.47999C6.18135 2.18132 5.15735 2.01065 3.79202 1.96799V0.687988C4.85868 0.730654 6.24535 0.773321 7.95202 0.815987C9.70135 0.858653 11.536 0.879986 13.456 0.879986C15.376 0.879986 17.232 0.858653 19.024 0.815987C20.8587 0.773321 22.3733 0.730654 23.568 0.687988V1.96799C22.2453 2.01065 21.2213 2.18132 20.496 2.47999C19.8133 2.73599 19.344 3.24799 19.088 4.01599C18.8747 4.74132 18.768 5.89332 18.768 7.47198V30.896C18.768 32.6453 18.768 34.544 18.768 36.592C18.768 38.5973 18.6827 40.56 18.512 42.48C18.384 44.4 18.1067 46.1067 17.68 47.6C16.8267 50.544 14.9707 53.0187 12.112 55.024C9.29602 57.0293 5.43468 58.032 0.528015 58.032Z" fill="#171717"/>
<path d="M27.4885 0.687988C28.5552 0.730654 29.9845 0.773321 31.7765 0.815987C33.6112 0.858653 35.4245 0.879986 37.2165 0.879986C39.2645 0.879986 41.2485 0.858653 43.1685 0.815987C45.0885 0.773321 46.4539 0.751987 47.2645 0.751987C51.2325 0.751987 54.5178 1.19999 57.1205 2.09599C59.7658 2.94932 61.7285 4.20799 63.0085 5.87199C64.3312 7.53599 64.9925 9.54132 64.9925 11.888C64.9925 13.3387 64.6938 14.8107 64.0965 16.304C63.4992 17.7547 62.4752 19.12 61.0245 20.4C59.6165 21.6373 57.6752 22.64 55.2005 23.408C52.7258 24.1333 49.6112 24.496 45.8565 24.496H39.7125V23.216H45.2165C47.7338 23.216 49.6325 22.7467 50.9125 21.808C52.2352 20.8267 53.1312 19.5467 53.6005 17.968C54.1125 16.3467 54.3685 14.5547 54.3685 12.592C54.3685 9.22132 53.7712 6.61865 52.5765 4.78399C51.3818 2.90665 49.3339 1.96799 46.4325 1.96799C44.7685 1.96799 43.6805 2.33065 43.1685 3.05599C42.6992 3.78132 42.4645 5.25332 42.4645 7.47198V39.216C42.4645 40.752 42.5712 41.904 42.7845 42.672C43.0405 43.44 43.5098 43.952 44.1925 44.208C44.8752 44.464 45.8992 44.6347 47.2645 44.72V46C46.1125 45.9147 44.6618 45.872 42.9125 45.872C41.1632 45.8293 39.3925 45.808 37.6005 45.808C35.5525 45.808 33.6112 45.8293 31.7765 45.872C29.9845 45.872 28.5552 45.9147 27.4885 46V44.72C28.8538 44.6347 29.8778 44.464 30.5605 44.208C31.2432 43.952 31.6912 43.44 31.9045 42.672C32.1605 41.904 32.2885 40.752 32.2885 39.216V7.47198C32.2885 5.89332 32.1605 4.74132 31.9045 4.01599C31.6912 3.24799 31.2218 2.73599 30.4965 2.47999C29.8138 2.18132 28.8112 2.01065 27.4885 1.96799V0.687988ZM39.5845 23.408C41.4192 23.4507 42.9979 23.536 44.3205 23.664C45.6859 23.792 46.8805 23.92 47.9045 24.048C48.9285 24.1333 49.8458 24.1973 50.6565 24.24C54.5392 24.5813 57.3979 25.4133 59.2325 26.736C61.1098 28.0587 62.3258 30.0427 62.8805 32.688L64.3525 39.28C64.7365 40.9867 65.1418 42.1813 65.5685 42.864C65.9952 43.5467 66.6138 43.888 67.4245 43.888C67.9792 43.8453 68.4272 43.7173 68.7685 43.504C69.1525 43.248 69.5578 42.8853 69.9845 42.416L70.8805 43.184C69.7285 44.5067 68.4912 45.4453 67.1685 46C65.8459 46.5973 64.2459 46.896 62.3685 46.896C60.0645 46.896 58.1659 46.4053 56.6725 45.424C55.1792 44.4427 54.1978 42.6293 53.7285 39.984L52.5765 33.584C52.2778 31.792 51.9152 30.2347 51.4885 28.912C51.0619 27.5467 50.4645 26.48 49.6965 25.712C48.9712 24.9013 47.9472 24.496 46.6245 24.496H39.7125L39.5845 23.408Z" fill="#171717"/>
</svg>
