<svg width="24" height="24" viewBox="0 0 24 24" fill="none" xmlns="http://www.w3.org/2000/svg">
<path fill-rule="evenodd" clip-rule="evenodd" d="M14.5286 1.99377C16.7606 1.41948 19.4537 2.21148 21.0943 3.95834H22.9337C23.0787 3.95847 23.2212 3.99537 23.3481 4.06559C23.4749 4.13581 23.5819 4.23704 23.6589 4.35983C23.736 4.48262 23.7806 4.62296 23.7887 4.7677C23.7968 4.91245 23.768 5.05688 23.7051 5.18748L21.8966 8.93491C22.4108 13.3029 20.7017 17.4789 17.2646 19.9475C13.7503 22.4726 8.57827 23.1086 2.44456 20.5955C2.11179 20.4694 1.8265 20.2429 1.62828 19.9473C1.43006 19.6518 1.32873 19.3019 1.33833 18.9461C1.34794 18.5904 1.46802 18.2465 1.68191 17.9621C1.8958 17.6777 2.19289 17.4669 2.53199 17.3589C3.47305 17.104 4.37504 16.7222 5.21313 16.2241C3.3358 15.0961 1.86599 13.4002 1.01633 11.3816C0.166676 9.363 -0.0187629 7.12644 0.486843 4.99548C0.525292 4.67728 0.652176 4.37624 0.853092 4.12651C1.05401 3.87679 1.32091 3.6884 1.6235 3.58271C1.92609 3.47703 2.25224 3.45829 2.56494 3.52863C2.87765 3.59896 3.16437 3.75555 3.39256 3.98063C5.81484 6.36177 7.93199 7.34577 9.39942 7.74863C9.96856 7.90463 10.4451 7.97491 10.8086 8.00405C10.6954 6.49548 10.9526 5.2372 11.5217 4.24291C12.2143 3.03091 13.3166 2.30577 14.5286 1.99377Z" fill="#565656"/>
</svg>
