<svg width="40" height="41" viewBox="0 0 40 41" fill="none" xmlns="http://www.w3.org/2000/svg">
<g clip-path="url(#clip0_48_236)">
<path fill-rule="evenodd" clip-rule="evenodd" d="M38.175 0.911162C38.3353 1.06038 38.4646 1.23972 38.5556 1.43894C38.6465 1.63816 38.6973 1.85336 38.7051 2.07223C38.7128 2.29109 38.6773 2.50934 38.6007 2.71449C38.524 2.91964 38.4077 3.10767 38.2583 3.26783L24.6983 17.8095L39.665 37.6762C39.8511 37.9237 39.9646 38.2181 39.9927 38.5265C40.0208 38.8349 39.9625 39.145 39.8242 39.4221C39.6859 39.6991 39.4732 39.9322 39.2098 40.0951C38.9465 40.2581 38.643 40.3444 38.3333 40.3445H29.2033C28.9452 40.3446 28.6905 40.2848 28.4594 40.1697C28.2283 40.0545 28.0271 39.8873 27.8717 39.6812L17.3383 25.7028L4.18167 39.8145C4.0324 39.9746 3.85306 40.1037 3.65388 40.1945C3.4547 40.2853 3.2396 40.336 3.02084 40.3437C2.80208 40.3513 2.58395 40.3158 2.37891 40.2392C2.17387 40.1625 1.98594 40.0463 1.82583 39.897C1.66573 39.7477 1.5366 39.5684 1.4458 39.3692C1.35501 39.17 1.30434 38.9549 1.29667 38.7362C1.28901 38.5174 1.32452 38.2993 1.40115 38.0942C1.47779 37.8892 1.59406 37.7013 1.74333 37.5412L15.3033 22.9995L0.336667 3.13283C0.150645 2.88545 0.037186 2.59115 0.00900375 2.28291C-0.0191785 1.97468 0.0390294 1.66469 0.177105 1.38767C0.31518 1.11065 0.527668 0.877558 0.790759 0.714505C1.05385 0.551452 1.35715 0.464882 1.66667 0.464495H10.7983C11.0562 0.464623 11.3106 0.524599 11.5414 0.639703C11.7722 0.754807 11.9731 0.921898 12.1283 1.12783L22.6617 15.1062L35.8167 0.994496C35.9659 0.834191 36.1452 0.704865 36.3444 0.613911C36.5437 0.522958 36.7589 0.472159 36.9777 0.46442C37.1966 0.456681 37.4148 0.492152 37.62 0.568807C37.8251 0.645462 38.0132 0.761797 38.1733 0.911162H38.175ZM21.2583 18.7845C21.2113 18.7301 21.1679 18.6728 21.1283 18.6128L9.96667 3.79616H5.00833L30.0333 37.0128H34.9917L21.2583 18.7845Z" fill="#3D3D3D"/>
</g>
<defs>
<clipPath id="clip0_48_236">
<rect width="40" height="40" fill="white" transform="translate(0 0.404541)"/>
</clipPath>
</defs>
</svg>
